<?xml version="1.0" encoding="UTF-8"?>
<svg width="14px" height="14px" viewBox="0 0 14 14" version="1.1" xmlns="http://www.w3.org/2000/svg" xmlns:xlink="http://www.w3.org/1999/xlink">
    <!-- Generator: Sketch 59 (86127) - https://sketch.com -->
    <title>智能分析_选中</title>
    <desc>Created with Sketch.</desc>
    <g id="设计稿" stroke="none" stroke-width="1" fill="none" fill-rule="evenodd">
        <g id="首页" transform="translate(-43.000000, -462.000000)">
            <g id="编组" transform="translate(-1.000000, 0.000000)">
                <g id="智能分析_选中" transform="translate(43.000000, 461.000000)">
                    <rect id="矩形" fill="#85919D" fill-rule="nonzero" opacity="0" x="0" y="0" width="16" height="16"></rect>
                    <path d="M12.1997667,14.0664333 C12.4534981,14.0721066 12.6562296,14.2794218 12.6562296,14.5332167 C12.6562296,14.7870115 12.4534981,14.9943267 12.1997667,15 L3.8,15 C3.54626855,14.9943267 3.34353704,14.7870115 3.34353704,14.5332167 C3.34353704,14.2794218 3.54626855,14.0721066 3.8,14.0664333 L12.2,14.0664333 L12.1997667,14.0664333 Z M12.6664333,1 C13.9542,1 15,1.97626666 15,3.177 L15,10.9556333 C14.9981333,12.1566 13.9523333,13.1326334 12.6664333,13.1326334 L3.33333334,13.1326334 C2.0479,13.1328667 1,12.1568333 1,10.9558667 L1,3.17723334 C1,1.97626666 2.04766666,1 3.33356666,1 L12.6666667,1 L12.6664333,1 Z M12.6664333,1.93356666 L3.33333334,1.93356666 C2.56076668,1.93356666 1.93333334,2.49123332 1.93333334,3.17723334 L1.93333334,10.9556333 C1.93333334,11.6414 2.56076668,12.1993 3.33333334,12.1993 L12.6659667,12.1993 C13.4387667,12.1993 14.0662003,11.6414 14.0662003,10.9556333 L14.0662003,3.17723334 C14.0666667,2.49146666 13.439,1.93333334 12.6666667,1.93333334 L12.6664333,1.93356666 Z M5.99986666,5.43333334 C6.80976666,5.43333334 7.3049,5.81226668 8.301,6.91266666 L8.48836666,7.1201 C9.239,7.944 9.59903332,8.21396666 9.99966666,8.21396666 C10.6758667,8.21396666 11.1943333,7.95193332 11.5998667,7.405 C11.6786616,7.29791477 11.7971268,7.22692098 11.9287139,7.20792857 C12.060301,7.18893616 12.1940066,7.22353331 12.2998667,7.30396666 C12.5208425,7.47300572 12.5653041,7.78808031 12.3997333,8.01166666 C11.8052,8.81293332 10.9904,9.225 9.99966666,9.225 C9.18976666,9.225 8.69463332,8.84606666 7.69853334,7.74566666 L7.51116666,7.53823334 C6.76053332,6.71433334 6.4005,6.44436668 5.99986666,6.44436666 C5.21866666,6.44436666 4.7408,6.80743332 4.47433334,7.61523334 C4.43346149,7.74196256 4.34362152,7.84709248 4.22481286,7.90721991 C4.10600421,7.96734735 3.96808822,7.9774816 3.84176666,7.93536666 C3.57875138,7.8450232 3.43759088,7.55968329 3.52536666,7.2958 C3.92553334,6.08153334 4.78046666,5.43333334 6.0001,5.43333334 L5.99986666,5.43333334 Z" id="形状" fill="#0D7DD9" fill-rule="nonzero"></path>
                    <path d="M5.99986666,5.43333334 C6.80976666,5.43333334 7.3049,5.81226668 8.301,6.91266666 L8.48836666,7.1201 C9.239,7.944 9.59903332,8.21396666 9.99966666,8.21396666 C10.6758667,8.21396666 11.1943333,7.95193332 11.5998667,7.405 C11.6786616,7.29791477 11.7971268,7.22692098 11.9287139,7.20792857 C12.060301,7.18893616 12.1940066,7.22353331 12.2998667,7.30396666 C12.5208425,7.47300572 12.5653041,7.78808031 12.3997333,8.01166666 C11.8052,8.81293332 10.9904,9.225 9.99966666,9.225 C9.18976666,9.225 8.69463332,8.84606666 7.69853334,7.74566666 L7.51116666,7.53823334 C6.76053332,6.71433334 6.4005,6.44436668 5.99986666,6.44436666 C5.21866666,6.44436666 4.7408,6.80743332 4.47433334,7.61523334 C4.43346149,7.74196256 4.34362152,7.84709248 4.22481286,7.90721991 C4.10600421,7.96734735 3.96808822,7.9774816 3.84176666,7.93536666 C3.57875138,7.8450232 3.43759088,7.55968329 3.52536666,7.2958 C3.92553334,6.08153334 4.78046666,5.43333334 6.0001,5.43333334 L5.99986666,5.43333334 Z" id="路径" fill="#3FD4A2"></path>
                </g>
            </g>
        </g>
    </g>
</svg>