<?xml version="1.0" encoding="UTF-8"?>
<svg width="13px" height="16px" viewBox="0 0 13 16" version="1.1" xmlns="http://www.w3.org/2000/svg" xmlns:xlink="http://www.w3.org/1999/xlink">
    <!-- Generator: Sketch 59 (86127) - https://sketch.com -->
    <title>河长公示牌</title>
    <desc>Created with Sketch.</desc>
    <g id="设计稿" stroke="none" stroke-width="1" fill="none" fill-rule="evenodd">
        <g id="首页" transform="translate(-24.000000, -501.000000)">
            <g id="编组" transform="translate(-1.000000, 0.000000)">
                <g id="河长公示牌" transform="translate(23.000000, 501.000000)">
                    <rect id="矩形" fill="#FFFFFF" opacity="0" x="0" y="0" width="16" height="16"></rect>
                    <path d="M4.63492046,4.50794765 L10.9206421,4.50794765 C11.1301661,4.50794765 11.2698483,4.36826501 11.2698483,4.15874144 C11.2698483,3.94921739 11.1301656,3.80953522 10.9206421,3.80953522 L4.63492046,3.80953522 C4.42539641,3.80953522 4.28571425,3.94921786 4.28571425,4.15874143 C4.28571425,4.36826548 4.4253969,4.50794765 4.63492046,4.50794765 L4.63492046,4.50794765 Z M7.77778126,5.55556792 C7.77778126,5.76509197 7.91746391,5.90477413 8.12698747,5.90477413 L12.3174685,5.90477413 C12.5269926,5.90477413 12.6666747,5.76509148 12.6666747,5.55556792 C12.6666747,5.34604387 12.5269921,5.20636169 12.3174685,5.20636169 L8.12698747,5.20636169 C7.91746342,5.20636169 7.77778126,5.34604434 7.77778126,5.5555679 L7.77778126,5.55556792 Z M12.3174636,6.60318819 L10.2222231,6.60318819 C10.012699,6.60318819 9.87301688,6.74287083 9.87301688,6.9523944 C9.87301688,7.16191845 10.0126995,7.30160061 10.2222231,7.30160061 L12.3174636,7.30160061 C12.5269877,7.30160061 12.6666698,7.16191796 12.6666698,6.9523944 C12.6666698,6.74287034 12.5269872,6.60318819 12.3174636,6.60318819 Z M4.63492046,8.69842872 L11.619061,8.69842872 C11.8285851,8.69842872 11.9682672,8.55874607 11.9682672,8.34922251 C11.9682672,8.13969846 11.8285846,8.00001628 11.619061,8.00001628 L4.63492046,8.00001628 C4.42539641,8.00001628 4.28571425,8.13969893 4.28571425,8.34922249 C4.28571425,8.55874655 4.4253969,8.69842872 4.63492046,8.69842872 L4.63492046,8.69842872 Z M4.63492046,5.90476922 L6.73016099,5.90476922 C6.93968505,5.90476922 7.0793672,5.76508657 7.0793672,5.55556301 C7.0793672,5.34603896 6.93968456,5.2063568 6.73016099,5.2063568 L4.63492046,5.2063568 C4.42539641,5.2063568 4.28571425,5.34603945 4.28571425,5.55556301 C4.28571425,5.76508706 4.4253969,5.90476922 4.63492046,5.90476922 Z M14.0635029,1.71428815 L9.5238205,1.71428815 L9.5238205,1.0158741 C9.5238205,0.631746119 9.20953442,0.317460039 8.82540644,0.317460039 L8.12699238,0.317460039 C7.7428644,0.317460039 7.42857832,0.631746119 7.42857832,1.0158741 L7.42857832,1.71428815 L2.88889596,1.71428815 C2.50476798,1.71428815 2.1904819,2.02857423 2.1904819,2.41270221 L2.1904819,10.0952454 C2.1904819,10.4793734 2.50476798,10.7936594 2.88889596,10.7936594 L7.42857832,10.7936594 L7.42857832,14.9841405 C7.42857832,15.3682685 7.7428644,15.6825546 8.12699238,15.6825546 L8.82540644,15.6825546 C9.20953442,15.6825546 9.5238205,15.3682685 9.5238205,14.9841405 L9.52382048,10.7936594 L14.0635028,10.7936594 C14.4476308,10.7936594 14.7619169,10.4793734 14.7619169,10.0952454 L14.7619169,2.41270221 C14.7619169,2.02857423 14.4476308,1.71428815 14.0635028,1.71428815 L14.0635029,1.71428815 Z M8.12698256,1.0158741 L8.82539662,1.0158741 L8.82539662,1.71428815 L8.12698256,1.71428815 L8.12698256,1.0158741 L8.12698256,1.0158741 Z M8.82539663,14.9841389 L8.12698256,14.9841389 L8.12698256,10.7936578 L8.82539663,10.7936578 L8.82539663,14.9841389 Z M14.063498,10.0952388 L2.88887632,10.0952388 L2.88887632,2.41269566 L14.063498,2.41269566 L14.063498,10.0952388 L14.063498,10.0952388 Z M4.63491555,7.30157933 L8.82539662,7.30157933 C9.03492067,7.30157933 9.17460283,7.16189668 9.17460283,6.95237312 C9.17460283,6.74284906 9.03492018,6.60316691 8.82539662,6.60316691 L4.63491555,6.60316691 C4.4253915,6.60316691 4.28570934,6.74284955 4.28570934,6.95237312 C4.28570934,7.16189717 4.42539199,7.30157933 4.63491555,7.30157933 Z" id="形状" fill="#7E90A5" fill-rule="nonzero"></path>
                </g>
            </g>
        </g>
    </g>
</svg>