<?xml version="1.0" encoding="UTF-8"?>
<svg width="16px" height="16px" viewBox="0 0 16 16" version="1.1" xmlns="http://www.w3.org/2000/svg" xmlns:xlink="http://www.w3.org/1999/xlink">
    <!-- Generator: Sketch 59 (86127) - https://sketch.com -->
    <title>抽查督导_选中</title>
    <desc>Created with Sketch.</desc>
    <g id="设计稿" stroke="none" stroke-width="1" fill="none" fill-rule="evenodd">
        <g id="首页" transform="translate(-42.000000, -341.000000)">
            <g id="编组" transform="translate(-1.000000, 0.000000)">
                <g id="抽查督导_选中" transform="translate(43.000000, 341.000000)">
                    <rect id="矩形" fill="#FFFFFF" x="0" y="0" width="16" height="16"></rect>
                    <path d="M13.6948333,8.26501041 L13.6948335,8.26500914 C13.6004529,8.84132172 13.423642,9.40105714 13.1698343,9.92700521 C12.9948341,10.1900059 12.8198339,10.2770056 12.557834,10.1900059 C12.2948333,10.0140063 12.2078336,9.8400055 12.2948333,9.5770048 C12.547833,9.08100364 12.7248334,8.55100322 12.8198339,8.00300102 C13.1698343,6.60299939 13.0818338,5.29200177 12.9948341,4.503995 L7.56982777,1.96799595 L2.14382341,4.503995 C2.05682329,5.2919963 1.96982262,6.51599148 2.31982303,8.00300102 C2.93182335,10.8880024 4.76982588,12.9010106 7.56982914,14.125014 C8.44483016,13.7750136 9.14483097,13.3370127 9.84483179,12.8130129 C10.019832,12.6380127 10.2828327,12.7250128 10.4578329,12.900013 C10.6318337,13.0750132 10.544833,13.3380139 10.3698328,13.5120133 C9.58283228,14.1250144 8.70783673,14.5620145 7.74482975,14.9990092 L7.39482935,14.9990092 C4.15783144,13.687008 2.14482324,11.414007 1.44482242,8.17699538 L1.44482256,8.17699608 C1.18227987,6.85270391 1.12293293,5.49615702 1.26882157,4.15398749 C1.35682166,3.9799867 1.44482119,3.89398777 1.53182227,3.80398708 L7.39483495,1.00597992 L7.74483536,1.00597992 L13.607848,3.80398708 C13.7828482,3.89198717 13.8708487,3.9799867 13.8708487,4.15398749 C13.9578489,4.9419888 14.0448495,6.42899014 13.6948491,8.26498837 L13.6948333,8.26501041 Z M7.74382835,10.8880174 C7.04382754,10.8880174 6.25683248,10.538017 5.73183187,10.0140158 C4.59283074,8.87701483 4.59283074,7.12801631 5.73183187,5.99100717 C6.8688328,4.85400624 8.61882937,4.85400624 9.75583851,5.99100717 C10.71884,6.9530079 10.8058397,8.52700622 10.0188392,9.66401536 L11.8568472,11.5010116 L11.8568472,11.5010116 C12.0258468,11.6623058 12.0320921,11.9300629 11.8707976,12.0990625 C11.8662566,12.1038205 11.8616052,12.1084719 11.8568472,12.1130129 C11.7688471,12.200013 11.681847,12.200013 11.5068468,12.200013 C11.3308472,12.200013 11.2438461,12.200013 11.1568464,12.1130129 L9.40684436,10.3630109 C8.88184374,10.7130113 8.35684313,10.8880115 7.74484828,10.8880115 L7.74384828,10.8880115 L7.74382835,10.8880174 Z M9.14382998,6.60301433 C8.79382957,6.16601421 8.26982838,5.99101401 7.7448264,5.99101401 C7.21982579,5.99101401 6.69482518,6.25301393 6.34482477,6.60301433 L6.34482483,6.60301428 C5.57162471,7.35585012 5.55511727,8.59294433 6.30795201,9.36614445 C6.32007838,9.37859883 6.33237042,9.39089084 6.34482483,9.40301726 C7.13182535,10.1020187 8.35682131,10.1020187 9.14482809,9.40301726 L9.14482818,9.40301717 C9.9180283,8.6509743 9.93517832,7.41452267 9.18313463,6.64132255 C9.17054347,6.62837719 9.15777341,6.61560709 9.14482804,6.60301596 L9.14382998,6.60301433 Z" id="形状" fill="#0D7DD9" fill-rule="nonzero"></path>
                    <path d="M9.75583851,5.99100717 C10.71884,6.9530079 10.8058397,8.52700622 10.0188392,9.66401536 L11.8568472,11.5010116 C12.0258468,11.6623058 12.0320921,11.9300629 11.8707976,12.0990625 L11.8568472,12.1130129 L11.8568472,12.1130129 C11.7864471,12.182613 11.716687,12.196533 11.6019989,12.199317 L11.5068468,12.200013 C11.3308472,12.200013 11.2438461,12.200013 11.1568464,12.1130129 L9.40684436,10.3630109 C8.88184374,10.7130113 8.35684313,10.8880115 7.74484828,10.8880115 L7.74384828,10.8880115 C7.04382754,10.8880174 6.25683248,10.538017 5.73183187,10.0140158 C4.59283074,8.87701483 4.59283074,7.12801631 5.73183187,5.99100717 C6.8688328,4.85400624 8.61882937,4.85400624 9.75583851,5.99100717 Z M7.7448264,5.99101401 C7.27815919,5.99101401 6.81149198,6.19802629 6.46773301,6.48984549 L6.34482483,6.60301428 C5.57162471,7.35585012 5.55511727,8.59294433 6.30795201,9.36614445 C6.32007838,9.37859883 6.33237042,9.39089084 6.34482483,9.40301726 C7.0881031,10.0631853 8.22206248,10.0998613 9.00959746,9.51304526 L9.14482818,9.40301717 C9.9180283,8.6509743 9.93517832,7.41452267 9.18313463,6.64132255 C9.17054347,6.62837719 9.15777341,6.61560709 9.14482804,6.60301596 L9.14382998,6.60301433 C8.79382957,6.16601421 8.26982838,5.99101401 7.7448264,5.99101401 Z" id="形状结合" fill="#3FD4A2"></path>
                </g>
            </g>
        </g>
    </g>
</svg>