<?xml version="1.0" encoding="UTF-8"?>
<svg width="16px" height="16px" viewBox="0 0 16 16" version="1.1" xmlns="http://www.w3.org/2000/svg" xmlns:xlink="http://www.w3.org/1999/xlink">
    <!-- Generator: Sketch 59 (86127) - https://sketch.com -->
    <title>事件处理</title>
    <desc>Created with Sketch.</desc>
    <g id="设计稿" stroke="none" stroke-width="1" fill="none" fill-rule="evenodd">
        <g id="首页" transform="translate(-22.000000, -301.000000)">
            <g id="编组" transform="translate(-1.000000, 0.000000)">
                <g id="事件处理" transform="translate(23.000000, 301.000000)">
                    <rect id="矩形" fill="#FFFFFF" x="0" y="0" width="16" height="16"></rect>
                    <path d="M9.44619915,4.59896935 C9.44619915,4.36151557 9.25405986,4.13816355 9.01658229,4.13816355 L3.8618292,4.13816355 C3.62437542,4.13816355 3.43225992,4.36151557 3.43225992,4.59896935 C3.43225992,4.83644692 3.62435024,5.05975137 3.8618292,5.05975137 L9.01658229,5.05975137 C9.25403608,5.05975137 9.44619915,4.83642313 9.44619915,4.59896935 Z M3.861832,6.81915725 C3.62437822,6.81915725 3.43226271,7.04948741 3.43226271,7.28694259 C3.43226271,7.52434881 3.62435304,7.75470275 3.861832,7.75470275 L7.29835271,7.75470275 C7.53575893,7.75470275 7.727922,7.52437259 7.727922,7.28694259 C7.727922,7.04948881 7.53575893,6.81915725 7.29830515,6.81915725 L3.8618264,6.81915725 L3.861832,6.81915725 Z M6.43919456,9.52806629 L3.861832,9.52806629 C3.62437822,9.52806629 3.43226271,9.75839645 3.43226271,9.99585163 C3.43226271,10.2333054 3.62435304,10.463637 3.861832,10.463637 L6.43919456,10.463637 C6.67667212,10.463637 6.86876384,10.2333068 6.86876384,9.99585163 C6.86876384,9.75839785 6.67667352,9.52806629 6.43919456,9.52806629 Z M5.7319339,12.358617 L2.96156749,12.358617 C2.5295206,12.358617 2.1779237,12.0226146 2.1779237,11.6094582 L2.1779237,2.79826406 C2.1779237,2.38510765 2.52944786,2.04905766 2.96156749,2.04905766 L10.8455848,2.04905766 C11.2768861,2.04905766 11.6284102,2.38510765 11.6284102,2.79826406 L11.6284102,4.62647058 C11.6284102,4.8638768 11.8205495,5.05603987 12.0579543,5.05603987 C12.2954319,5.05603987 12.4875236,4.8638768 12.4875236,4.62647058 L12.4875236,2.79826406 C12.4875236,1.91145078 11.7508801,1.18992189 10.8455778,1.18992189 L2.96156049,1.18992189 C2.05547201,1.18992189 1.31883129,1.91145358 1.31883129,2.79826406 L1.31883129,11.6094582 C1.31883129,12.4962715 2.05547481,13.2177724 2.96156049,13.2177724 L5.73195489,13.2177724 C5.96940867,13.2177724 6.16152417,13.0256331 6.16152417,12.7882283 C6.16150011,12.5507507 5.96941007,12.3586114 5.73193111,12.3586114 L5.7319339,12.358617 Z M11.1963801,10.9810611 L10.7328309,10.9810611 C10.6985135,10.9810611 10.6641962,10.9972571 10.6383498,11.0296493 C10.6121666,11.0619692 10.5991713,11.1046615 10.5991713,11.147137 L10.5991713,11.4238183 C10.5991713,11.4665104 10.6121666,11.5089859 10.6383498,11.5412819 C10.6641962,11.573674 10.6985135,11.5898702 10.7328309,11.5898702 L11.1963801,11.5898702 C11.2303606,11.5898702 11.2646058,11.5736741 11.2908612,11.5412819 C11.3167798,11.5089861 11.3300638,11.4665346 11.3300638,11.4238183 L11.3300638,11.147137 C11.3300638,11.1047336 11.3167797,11.0619694 11.2908612,11.0296493 C11.2646058,10.9972572 11.2303606,10.9810611 11.1963801,10.9810611 Z M10.6413094,10.5140228 C10.6671557,10.535393 10.7011361,10.5463908 10.7351888,10.5463908 L11.195705,10.5483476 C11.2300223,10.548677 11.2642916,10.537655 11.2905229,10.515924 C11.3167784,10.4943613 11.3300626,10.4658196 11.3297087,10.4369652 L11.3290517,9.64504217 L11.3290517,8.42655912 C11.3290517,8.39845059 11.3161286,8.36990894 11.2898732,8.34820202 C11.2639546,8.32656715 11.2297095,8.31554511 11.1953921,8.31554511 L10.732541,8.31554511 C10.6985364,8.31554511 10.6642191,8.32661523 10.6380358,8.34820202 C10.6121173,8.36990908 10.5991941,8.39845073 10.5991941,8.42655912 L10.5991941,9.65411459 L10.6020579,10.4357368 C10.6024189,10.4641822 10.6153902,10.4923628 10.6413087,10.5140219 L10.6413094,10.5140228 Z M14.8149129,11.3434637 L11.8566209,6.21843904 C11.4958313,5.5917263 10.4856598,5.5917263 10.1249443,6.21843904 L7.16578497,11.3434637 L7.16491861,11.3438728 C6.98454758,11.65682 6.98543873,12.0306048 7.16578497,12.343552 C7.34702198,12.6564991 7.67002924,12.8431516 8.03163727,12.8431516 L13.9490466,12.8431516 C14.3106546,12.8431516 14.6353463,12.6560668 14.8157649,12.3427098 C14.9961359,12.0297626 14.9961359,11.6560016 14.8149226,11.3434629 L14.8149129,11.3434637 Z M14.0715305,11.9135512 C14.0564655,11.9400232 14.0203672,11.984039 13.9490372,11.984039 L8.0316279,11.984039 C7.96111602,11.984039 7.92509007,11.9400233 7.90995293,11.9135512 C7.89488796,11.8871514 7.87469699,11.8338703 7.90995293,11.773033 L10.8682309,6.64807828 C10.9404032,6.52553691 11.0410698,6.52553691 11.113242,6.64807828 L14.071534,11.7734527 C14.1067899,11.8342661 14.0866711,11.8875471 14.071534,11.9135624 L14.0715305,11.9135512 Z" id="形状" fill="#7E90A5" fill-rule="nonzero"></path>
                </g>
            </g>
        </g>
    </g>
</svg>