<?xml version="1.0" encoding="UTF-8"?>
<svg width="14px" height="14px" viewBox="0 0 14 14" version="1.1" xmlns="http://www.w3.org/2000/svg" xmlns:xlink="http://www.w3.org/1999/xlink">
    <!-- Generator: Sketch 59 (86127) - https://sketch.com -->
    <title>首 页</title>
    <desc>Created with Sketch.</desc>
    <defs>
        <path d="M10.877235,13.9571529 L8.17427582,13.9571529 C7.89090052,13.9571529 7.67292078,13.7391718 7.67292078,13.4557979 L7.67292078,9.13977826 L6.12525724,9.13977826 L6.12525724,13.4557979 C6.12525724,13.7391732 5.90727613,13.9571529 5.62390219,13.9571529 L2.96453187,13.9571529 C2.13620585,13.9571529 1.46047082,13.2814125 1.46047082,12.4530919 L1.46047082,8.0498809 L1.17709552,8.0498809 C0.523153565,8.0498809 -7.10542736e-15,7.52672734 -7.10542736e-15,6.87278538 C-7.10542736e-15,6.56761292 0.108990417,6.28423762 0.326970978,6.06625651 L5.40591836,0.682132584 C6.23424438,-0.189790479 7.60752386,-0.233386156 8.50124544,0.594940278 C8.52304355,0.638536363 8.54484152,0.660334473 8.58843774,0.682132584 L13.6673851,6.06625651 C14.1251445,6.52401588 14.103346,7.26515055 13.645587,7.72290583 C13.4276059,7.94088694 13.1224334,8.04987681 12.8172596,8.04987681 L12.3812988,8.04987681 L12.3812988,12.4530878 C12.3812988,13.2814138 11.7055583,13.9571529 10.8772377,13.9571529 L10.877235,13.9571529 Z M8.69742394,12.9544415 L10.877235,12.9544415 C11.1606103,12.9544415 11.4003886,12.7146632 11.4003886,12.4312879 L11.4003886,7.54851768 C11.4003886,7.26514238 11.6183697,7.04716263 11.9017436,7.04716263 L12.8390609,7.04716263 C12.9044551,7.04716263 12.9698493,7.00356655 12.9916478,6.93817222 C13.0134459,6.87277802 13.0134459,6.80738382 12.9480517,6.74198963 L7.84730989,1.37966013 C7.38955052,0.900102241 6.64841585,0.878305085 6.1688525,1.33606405 C6.14705439,1.33606405 6.12525642,1.35786216 6.12525642,1.37966013 L1.04630904,6.74198963 C0.980914843,6.80738382 0.980914843,6.9163737 1.04630904,6.98176789 C1.08990512,7.02536398 1.13350135,7.02536398 1.17709743,7.02536398 L1.9836263,7.02536398 C2.2670016,7.02536398 2.48498134,7.24334508 2.48498134,7.52671902 L2.48498134,12.4312837 C2.48498134,12.714659 2.72475961,12.9544415 3.00813491,12.9544415 L5.16613791,12.9544415 L5.16613791,9.13977131 C5.16613791,8.57302206 5.62389728,8.13705985 6.16884937,8.13705985 L7.71651291,8.13705985 C8.28326215,8.13705985 8.71922436,8.59481922 8.71922436,9.13977131 L8.69742625,12.9544415 L8.69742394,12.9544415 Z" id="path-1"></path>
    </defs>
    <g id="设计稿" stroke="none" stroke-width="1" fill="none" fill-rule="evenodd">
        <g id="首页" transform="translate(-23.000000, -102.000000)">
            <g id="编组" transform="translate(-1.000000, 0.000000)">
                <g id="首-页" transform="translate(23.000000, 101.000000)">
                    <g id="矩形" transform="translate(0.000014, 0.000007)">
                        <g id="蒙版" transform="translate(0.999986, 0.999993)">
                            <mask id="mask-2" fill="white">
                                <use xlink:href="#path-1"></use>
                            </mask>
                            <use fill="#0A90FF" fill-rule="nonzero" xlink:href="#path-1"></use>
                        </g>
                    </g>
                    <path d="M6.16613767,14.9571529 L6.16613767,10.0677338 C6.18963622,9.79749044 6.2890981,9.58024089 6.46452332,9.41598511 C6.63994853,9.25172933 6.86019317,9.15670305 7.12525724,9.13090628 L8.75683594,9.13090628 C9.03512919,9.15190162 9.26421448,9.25572713 9.4440918,9.44238281 C9.62396911,9.62903849 9.71567997,9.86150364 9.71922436,10.1397783 L9.71362305,14.9571529 L9.17427582,14.9571529 C9.03598704,14.9592894 8.91220093,14.9061025 8.80291748,14.7975922 C8.72031657,14.7026011 8.67698433,14.5886697 8.67292078,14.4557979 L8.67292078,10.1397783 L7.12525724,10.1397783 L7.12525724,14.4557979 C7.12786285,14.5661884 7.09003703,14.6737213 7.01177979,14.7783966 C6.90539551,14.8965505 6.77610298,14.9561359 6.62390219,14.9571529 L6.16613767,14.9571529 Z" id="路径-3" fill="#06E6C0"></path>
                </g>
            </g>
        </g>
    </g>
</svg>