<?xml version="1.0" encoding="UTF-8"?>
<svg width="14px" height="14px" viewBox="0 0 14 14" version="1.1" xmlns="http://www.w3.org/2000/svg" xmlns:xlink="http://www.w3.org/1999/xlink">
    <!-- Generator: Sketch 59 (86127) - https://sketch.com -->
    <title>信息管理_选中</title>
    <desc>Created with Sketch.</desc>
    <g id="设计稿" stroke="none" stroke-width="1" fill="none" fill-rule="evenodd">
        <g id="首页" transform="translate(-43.000000, -142.000000)" fill-rule="nonzero">
            <g id="编组" transform="translate(-1.000000, 0.000000)">
                <g id="信息管理_选中" transform="translate(43.000000, 141.000000)">
                    <path d="M8.49167653,9.90178817 L3.57693685,9.90178817 C3.27047998,9.90178817 3.02113995,10.1511282 3.02113995,10.4576009 C3.02113995,10.7640419 3.27047998,11.0133661 3.57693685,11.0133661 L8.49167653,11.0133661 C8.79811758,11.0133661 9.04744178,10.7640419 9.04744178,10.4576009 C9.04744178,10.1511282 8.79811758,9.90178817 8.49167653,9.90178817 Z M8.49167653,6.95290953 L3.57693685,6.95290953 C3.27047998,6.95290953 3.02113995,7.20223373 3.02113995,7.50867477 C3.02113995,7.81513165 3.27047998,8.06447168 3.57693685,8.06447168 L8.49167653,8.06447168 C8.79811758,8.06447168 9.04744178,7.81513165 9.04744178,7.50867477 C9.04744178,7.20223373 8.79811758,6.95290953 8.49167653,6.95290953 Z M8.49167653,4.00404672 L3.57693685,4.00404672 C3.27047998,4.00404672 3.02113995,4.25337092 3.02113995,4.55981197 C3.02113995,4.86625301 3.27047998,5.11557721 3.57693685,5.11557721 L8.49167653,5.11557721 C8.79811758,5.11557721 9.04744178,4.86625301 9.04744178,4.55981197 C9.04744178,4.25337092 8.79811758,4.00404672 8.49167653,4.00404672 Z M14.638481,5.29375706 C14.4407155,5.09595992 14.1777342,4.98704215 13.8979962,4.98704215 L11.0133899,4.98704215 L11.0133899,2.49723539 C11.0174708,2.10160785 10.9008745,1.71884902 10.6926823,1.44601953 C10.4917681,1.19385215 10.2299441,1.05498762 9.95546027,1.05498762 C9.94937098,1.05498762 9.94324953,1.05505189 9.93862236,1.05518042 L2.1476982,1.05518042 C1.86493975,1.0470185 1.59297778,1.18660646 1.38539573,1.44653369 C1.17554832,1.71544352 1.0552246,2.09779867 1.0552246,2.49557917 L1.05524067,13.4699916 C1.0492317,13.7548065 1.10834129,14.0424977 1.22683341,14.3034226 C1.4215135,14.7052842 1.74766841,14.9451607 2.09930584,14.9451607 L13.8980023,14.9451607 C14.4754254,14.9451607 14.9452004,14.4753855 14.9452004,13.8979466 L14.9452004,6.03424913 C14.9452004,5.75449533 14.8362679,5.49149823 14.6384855,5.29374858 L14.638481,5.29375706 Z M13.8337303,7.01717231 L13.8337303,12.9149138 C13.8337303,13.4215297 13.4216184,13.8337066 12.9150499,13.8337066 L11.013382,13.8337066 L11.013382,6.09853781 L12.9150499,6.09853781 C13.1603895,6.09853781 13.3910922,6.19408679 13.5646764,6.3675917 C13.7381657,6.54111261 13.8337303,6.77181526 13.8337303,7.01718656 L13.8337303,7.01717231 Z M9.90192906,2.55161037 L9.90192906,13.4458091 L9.90192906,13.4458081 C9.90203596,13.5090755 9.89162887,13.571921 9.87114548,13.6317814 C9.82741184,13.7556882 9.74744763,13.8327697 9.66242205,13.8327697 L2.41209741,13.8327697 L2.40991233,13.8327697 L2.40991233,13.8327697 C2.37205469,13.8338518 2.33504257,13.8213642 2.30562312,13.7975099 C2.21997128,13.7294189 2.16675827,13.5938791 2.16675827,13.4437844 L2.1667422,2.56881981 L2.1667422,2.56881997 C2.16512903,2.50055189 2.17528711,2.43251604 2.19677097,2.36769681 C2.23803045,2.24555732 2.31915141,2.16663698 2.40343801,2.16663698 L9.65551985,2.16663698 L9.65857253,2.16657272 C9.71715196,2.16369677 9.7753456,2.19860976 9.82128112,2.26400142 C9.87605266,2.34966924 9.90392847,2.44865599 9.90193618,2.55161195 L9.90192906,2.55161037 Z" id="形状" fill="#0D7DD9"></path>
                    <path d="M14,5 C14.5522847,5 15,5.44771525 15,6 L15,13.89 C15,14.4422847 14.5522847,14.89 14,14.89 L11,14.89 L11,5 L14,5 Z M12.9150499,6.09853781 L11.013382,6.09853781 L11.013382,13.8337066 L12.9150499,13.8337066 C13.4216184,13.8337066 13.8337303,13.4215297 13.8337303,12.9149138 L13.8337303,12.9149138 L13.8337303,7.01718656 C13.8337303,6.77181526 13.7381657,6.54111261 13.5646764,6.3675917 C13.3910922,6.19408679 13.1603895,6.09853781 12.9150499,6.09853781 L12.9150499,6.09853781 Z" id="形状结合" fill="#3FD4A2"></path>
                </g>
            </g>
        </g>
    </g>
</svg>