<?xml version="1.0" encoding="UTF-8"?>
<svg width="14px" height="14px" viewBox="0 0 14 14" version="1.1" xmlns="http://www.w3.org/2000/svg" xmlns:xlink="http://www.w3.org/1999/xlink">
    <!-- Generator: Sketch 59 (86127) - https://sketch.com -->
    <title>信息服务_选中</title>
    <desc>Created with Sketch.</desc>
    <g id="设计稿" stroke="none" stroke-width="1" fill="none" fill-rule="evenodd">
        <g id="首页" transform="translate(-43.000000, -182.000000)">
            <g id="编组" transform="translate(-1.000000, 0.000000)">
                <g id="信息服务_选中" transform="translate(43.000000, 181.000000)">
                    <path d="M6.89254652,3.21483791 C6.89254652,2.70632956 6.48034448,2.29412751 5.97183613,2.29412751 L1.92071039,2.29412751 C1.41220204,2.29412751 1,2.70632956 1,3.21483791 L1,7.26596364 C1,7.77447199 1.41220204,8.18667403 1.92071039,8.18667403 L5.97183613,8.18667403 C6.48034448,8.18667403 6.89254652,7.77447199 6.89254652,7.26596364 C6.89254652,5.24040077 6.89254652,5.24040077 6.89254652,3.21483791 Z M5.84326331,7.13739082 C5.70198742,7.27866671 5.5103762,7.35803468 5.31058192,7.35803468 L2.67403564,7.35803468 C2.25798559,7.35803468 1.92071039,7.02075948 1.92071039,6.60470943 L1.92071039,3.96816315 C1.92071039,3.55211311 2.25798559,3.21483791 2.67403564,3.21483791 L5.31067399,3.21483791 C5.72668808,3.21488875 6.06390717,3.55214906 6.06390717,3.96816315 L6.06390717,6.60470943 C6.06390717,6.80450371 5.9845392,6.99611493 5.84326331,7.13739082 Z M6.89254652,10.0333429 C6.89254652,9.52474245 6.48034448,9.10738443 5.97183613,9.10738443 L1.92071039,9.10738443 C1.41220204,9.10738443 1,9.52474245 1,10.0333429 L1,14.0844686 C1,14.5927928 1.41220204,14.9999309 1.92071039,14.9999309 L5.97183613,14.9999309 C6.48034448,14.9999309 6.89254652,14.5927928 6.89254652,14.0844686 L6.89254652,10.0333429 L6.89254652,10.0333429 Z M6.06390717,13.4232144 C6.06390717,13.8391914 5.72665095,14.1712916 5.31058192,14.1712916 L2.67403564,14.1712916 C2.25796661,14.1712916 1.92071039,13.8391914 1.92071039,13.4232144 L1.92071039,10.786576 C1.92071039,10.3704149 2.25796661,10.0280948 2.67403564,10.0280948 L5.31067399,10.0280948 C5.72674302,10.0280948 6.06399924,10.370507 6.06399924,10.786576 L6.06399924,13.4232144 L6.06390717,13.4232144 Z M11.8658558,1.26965306 C11.5062263,0.910115648 10.9232325,0.910115648 10.5636951,1.26965306 L7.69908883,4.13416723 C7.33955142,4.49379671 7.33955142,5.07669846 7.69908883,5.43632794 L10.5636951,8.30093419 C10.9231404,8.66037953 11.5061342,8.66037953 11.8658558,8.30093419 L14.7302779,5.43632794 C15.0899074,5.07669846 15.0899074,4.49379671 14.7302779,4.13416723 L11.8658558,1.26965306 L11.8658558,1.26965306 Z M13.6768931,4.25257059 C13.8181607,4.39383041 13.8975247,4.5854245 13.8975247,4.78520155 C13.8975247,4.9849786 13.8181607,5.1765727 13.6768931,5.31783252 L11.8124546,7.18227106 C11.6711948,7.32353866 11.4796007,7.40290263 11.2798236,7.40290263 C11.0800466,7.40290263 10.8884525,7.32353866 10.7471927,7.18227106 L8.88293825,5.31783252 C8.74167065,5.1765727 8.66230668,4.9849786 8.66230668,4.78520155 C8.66230668,4.5854245 8.74167065,4.39383041 8.88293825,4.25257059 L10.7471927,2.38813204 C10.8884525,2.24686444 11.0800466,2.16750048 11.2798236,2.16750048 C11.4796007,2.16750048 11.6711948,2.24686444 11.8124546,2.38813204 L13.6768931,4.25257059 L13.6768931,4.25257059 Z M13.7058034,10.0333429 C13.7058034,9.52483452 13.2935093,9.10738443 12.785093,9.10738443 L8.73396731,9.10738443 C8.22555103,9.10738443 7.81325691,9.52474245 7.81325691,10.0333429 L7.81325691,14.0844686 C7.81325691,14.5927928 8.22555103,14.9999309 8.73396731,14.9999309 L12.785093,14.9999309 C13.2935093,14.9999309 13.7058034,14.5927928 13.7058034,14.0844686 L13.7058034,10.0333429 Z M12.8771641,13.4232144 C12.8771641,13.8391914 12.5347519,14.1713003 12.1186829,14.1713003 L9.4820445,14.1713003 C9.28334915,14.1722523 9.09251411,14.0937457 8.95201363,13.9532453 C8.81151316,13.8127448 8.73300664,13.6219098 8.73395859,13.4232144 L8.73395859,10.786576 C8.73395859,10.3704149 9.06606755,10.0280948 9.4820445,10.0280948 L12.1186829,10.0280948 C12.534844,10.0280948 12.8771641,10.370507 12.8771641,10.786576 L12.8771641,13.4232144 Z" id="形状" fill="#0D7DD9" fill-rule="nonzero"></path>
                    <path d="M10.5636951,1.26965306 C10.9232325,0.910115648 11.5062263,0.910115648 11.8658558,1.26965306 L11.8658558,1.26965306 L14.7302779,4.13416723 C15.0899074,4.49379671 15.0899074,5.07669846 14.7302779,5.43632794 L14.7302779,5.43632794 L11.8658558,8.30093419 C11.5061342,8.66037953 10.9231404,8.66037953 10.5636951,8.30093419 L10.5636951,8.30093419 L7.69908883,5.43632794 C7.33955142,5.07669846 7.33955142,4.49379671 7.69908883,4.13416723 L7.69908883,4.13416723 Z M11.2798236,2.16750048 C11.0800466,2.16750048 10.8884525,2.24686444 10.7471927,2.38813204 L10.7471927,2.38813204 L8.88293825,4.25257059 C8.74167065,4.39383041 8.66230668,4.5854245 8.66230668,4.78520155 C8.66230668,4.9849786 8.74167065,5.1765727 8.88293825,5.31783252 L8.88293825,5.31783252 L10.7471927,7.18227106 C10.8884525,7.32353866 11.0800466,7.40290263 11.2798236,7.40290263 C11.4796007,7.40290263 11.6711948,7.32353866 11.8124546,7.18227106 L11.8124546,7.18227106 L13.6768931,5.31783252 C13.8181607,5.1765727 13.8975247,4.9849786 13.8975247,4.78520155 C13.8975247,4.5854245 13.8181607,4.39383041 13.6768931,4.25257059 L13.6768931,4.25257059 L11.8124546,2.38813204 C11.6711948,2.24686444 11.4796007,2.16750048 11.2798236,2.16750048 Z" id="形状结合" fill="#3FD4A2"></path>
                </g>
            </g>
        </g>
    </g>
</svg>