<?xml version="1.0" encoding="UTF-8"?>
<svg width="16px" height="16px" viewBox="0 0 16 16" version="1.1" xmlns="http://www.w3.org/2000/svg" xmlns:xlink="http://www.w3.org/1999/xlink">
    <!-- Generator: Sketch 59 (86127) - https://sketch.com -->
    <title>考核评估_选中</title>
    <desc>Created with Sketch.</desc>
    <g id="设计稿" stroke="none" stroke-width="1" fill="none" fill-rule="evenodd">
        <g id="首页" transform="translate(-42.000000, -381.000000)">
            <g id="编组" transform="translate(-1.000000, 0.000000)">
                <g id="考核评估_选中" transform="translate(43.000000, 381.000000)">
                    <rect id="矩形" fill="#FFFFFF" x="0" y="0" width="16" height="16"></rect>
                    <path d="M4.34062976,2.22500224 C3.67650399,2.22500224 3.13750336,2.74186534 3.13750336,3.38000358 L3.13750336,12.6200143 C3.13750336,13.2581526 3.67650399,13.7750157 4.34062976,13.7750157 L11.5593882,13.7750157 C12.2235139,13.7750157 12.7625146,13.2581526 12.7625146,12.6200143 L12.7625146,3.38000358 C12.7625146,2.74186534 12.2235139,2.22500224 11.5593882,2.22500224 L4.34062976,2.22500224 Z M4.48500493,1.26250112 L11.415013,1.26250112 C12.690327,1.26250112 13.7250157,2.26831479 13.7250157,3.50801623 L13.7250157,12.4920017 C13.7250157,13.7317031 12.690327,14.7375168 11.415013,14.7375168 L4.48500493,14.7375168 C3.20969094,14.7375168 2.17500224,13.7317031 2.17500224,12.4920017 L2.17500224,3.50801623 C2.17500224,2.26831479 3.20969094,1.26250112 4.48500493,1.26250112 Z" id="形状" fill="#0D7DD9" fill-rule="nonzero"></path>
                    <path d="M6.02500672,2.22500224 L6.02500672,3.18750336 L9.8750112,3.18750336 L9.8750112,2.22500224 L6.02500672,2.22500224 Z M5.44750605,1.26250112 L10.4525119,1.26250112 C10.6642621,1.26250112 10.8375123,1.43575132 10.8375123,1.64750157 L10.8375123,3.76500403 L10.8375123,3.76500403 C10.8375123,3.97763406 10.6651419,4.15000448 10.4525119,4.15000448 C10.4525119,4.15000448 10.4525119,4.15000448 10.4525119,4.15000448 L5.44750605,4.15000448 L5.44750603,4.15000448 C5.234876,4.15000448 5.06250558,3.97763406 5.06250558,3.76500403 C5.06250558,3.76500403 5.06250558,3.76500403 5.06250558,3.76500403 L5.06250558,1.64750157 C5.06250558,1.43575132 5.23575578,1.26250112 5.44750603,1.26250112 L5.44750605,1.26250112 Z" id="形状" fill="#0D7DD9" fill-rule="nonzero"></path>
                    <path d="M7.58907104,9.34751053 L10.7200872,6.21553188 L10.7200872,6.2155319 C10.9082652,6.0276201 11.2131449,6.02783516 11.4010567,6.21601312 C11.5889685,6.40419111 11.5887535,6.70907086 11.4005755,6.89698266 L7.99813403,10.2994241 L7.99813404,10.2994241 C7.98077307,10.3168583 7.96211078,10.3329464 7.94230897,10.3475492 L7.94230897,10.3475492 C7.76387179,10.544534 7.45953194,10.5595701 7.26254707,10.381134 C7.25671878,10.3758545 7.25102077,10.370433 7.24545816,10.3648742 L5.20303078,8.32244682 L5.20303079,8.32244682 C5.01511899,8.13426883 5.01533405,7.82938908 5.20351202,7.64147728 C5.39169001,7.45356548 5.69656976,7.45378054 5.88448156,7.64195851 L7.58907104,9.34751049 L7.58907104,9.34751053 Z" id="路径" fill="#3FD4A2" fill-rule="nonzero"></path>
                </g>
            </g>
        </g>
    </g>
</svg>