<?xml version="1.0" encoding="UTF-8"?>
<svg width="14px" height="14px" viewBox="0 0 14 14" version="1.1" xmlns="http://www.w3.org/2000/svg" xmlns:xlink="http://www.w3.org/1999/xlink">
    <!-- Generator: Sketch 59 (86127) - https://sketch.com -->
    <title>水域岸线监管平台</title>
    <desc>Created with Sketch.</desc>
    <g id="设计稿" stroke="none" stroke-width="1" fill="none" fill-rule="evenodd">
        <g id="首页" transform="translate(-23.000000, -542.000000)">
            <g id="编组" transform="translate(-1.000000, 0.000000)">
                <g id="水域岸线监管平台" transform="translate(23.000000, 541.000000)">
                    <rect id="矩形" fill="#D8D8D8" opacity="0" x="0" y="0" width="16" height="16"></rect>
                    <path d="M1.89600331,4.55172771 C1.97532058,5.1693326 1.71669235,6.56744903 1.60529288,7.07810934 C1.53150112,7.31944814 0.947939702,9.36958054 1.87924977,11.0600066 C2.40844659,12.0198341 3.31319764,12.6682741 4.56890568,12.9873315 C6.13510889,13.3853441 7.63625972,14.7326669 7.66067316,14.7547743 L7.66067316,14.7547743 C7.82636589,14.9045744 8.08119758,14.8952503 8.23550021,14.7337418 C8.24797709,14.7207302 9.5106354,13.4142246 11.482872,12.9379587 C12.9989901,12.5718523 13.9538263,11.7610337 14.3215318,10.5279628 C14.627928,9.50147377 14.4796315,8.34771398 14.360923,7.42050457 C14.3418513,7.2711386 14.3236707,7.13015007 14.3079855,6.99415166 C14.2832099,6.78204549 14.2290248,6.5079098 14.1659275,6.19046323 C14.0552398,5.63042961 13.9030226,4.86345993 13.9609498,4.52836583 C14.1381219,3.50080732 14.7199003,2.50104772 14.7257823,2.4912556 L14.7257823,2.49125561 C14.8213428,2.32855131 14.7952062,2.12187408 14.6621503,1.98808142 L13.9320748,1.25568992 L13.9320748,1.2556899 C13.815633,1.13883893 13.6406508,1.1028459 13.4875413,1.1642523 C13.4714996,1.17084722 11.8381001,1.82427908 10.8789794,1.80609851 C9.5202487,1.77989709 8.11518087,1.17494675 8.10127808,1.1690648 L8.1012781,1.16906481 C7.98795746,1.11950419 7.85830672,1.12382809 7.74853982,1.1808287 C7.73606295,1.18706712 6.48267205,1.82641797 5.09542887,1.82641797 C3.94773485,1.82641797 2.3480229,1.17227313 2.33198121,1.16585646 L2.3319812,1.16585645 C2.18225947,1.10388358 2.0100864,1.13587371 1.89261782,1.24749075 L1.20567776,1.89860438 L1.20567778,1.89860436 C1.07900361,2.01869425 1.04115827,2.20528462 1.11103184,2.3652386 C1.38730475,3.00013342 1.84467158,4.15477215 1.89600497,4.55172032 L1.89600331,4.55172771 Z M2.26906105,2.0280197 C2.79968491,2.22622308 4.0653789,2.65382422 5.0954222,2.65382422 C6.37234035,2.65382422 7.52145974,2.1943185 7.94977274,2.00003698 C8.39822641,2.1759608 9.62292052,2.60944223 10.8632937,2.63332763 C11.7423781,2.65026046 13.0011156,2.22747299 13.5379774,2.02998146 L13.8620194,2.35491415 C13.6534775,2.76219416 13.2928955,3.55251453 13.1490551,4.38721187 C13.0651036,4.87380966 13.2203515,5.65913872 13.3579529,6.35178361 C13.4146335,6.63910857 13.4686405,6.9109249 13.4891383,7.08970113 C13.505893,7.23086796 13.5238953,7.37435248 13.5435017,7.52603497 C13.7805628,9.37315149 14.0489936,11.4671261 11.2899959,12.1333908 C9.62807725,12.5346117 8.43885365,13.4402534 7.92249519,13.894584 C7.37315603,13.4486252 6.12154865,12.528546 4.77048783,12.1852589 C3.74631479,11.9248489 3.01659691,11.4127632 2.60200289,10.6630818 C1.80366168,9.21986483 2.38971792,7.32980338 2.39559987,7.31108809 C2.39934293,7.29878946 2.40290775,7.28613441 2.40575961,7.27365749 C2.44889386,7.07687948 2.82587296,5.32601308 2.71251172,4.44550836 C2.64674081,3.9337786 2.20006844,2.82547694 1.98012022,2.30198829 L2.26904936,2.02803139 L2.26906105,2.0280197 Z" id="形状" fill="#7E90A5" fill-rule="nonzero"></path>
                    <path d="M3.85594634,10.3290571 C4.00869878,10.3290571 4.13311157,10.2048231 4.13311157,10.0518919 L4.13311157,9.56725421 C4.13311157,8.68567504 4.72362439,7.92761517 5.58827123,7.68431126 C5.68862083,7.67005199 5.76829403,7.60945006 5.8075076,7.51836888 L5.81160713,7.5080309 L5.82444048,7.44439888 L5.82444048,7.36579463 L5.82444048,7.36579467 C5.82454478,7.33998561 5.81771161,7.31462287 5.80465574,7.29235935 L5.79324833,7.27186158 L5.78112793,7.2597412 L5.78112793,7.25974121 C5.77510241,7.25038712 5.76836895,7.2415085 5.76098676,7.23318336 L5.76098676,7.23318336 C5.73807021,7.2009115 5.7049976,7.17725236 5.66705384,7.16598658 L5.66705382,7.16598657 C5.31366886,7.01226362 5.08515338,6.66354094 5.08527537,6.27816785 C5.08527537,5.82614825 5.39060211,5.43526585 5.82158872,5.3292136 L5.82158872,5.3292136 C5.89586757,5.31590106 5.96109541,5.27189817 6.0012556,5.20800981 C6.04171624,5.1441995 6.05348014,5.06523882 6.03494314,4.99893318 L6.03494314,4.9989332 C6.00787814,4.86901443 5.89297924,4.77618604 5.7602744,4.7770176 C5.73870719,4.7770176 5.72052661,4.781301 5.70591096,4.78540054 L5.69272114,4.78860888 C5.00381932,4.95383823 4.52274756,5.56627469 4.52274756,6.27816792 C4.52274756,6.65693049 4.66551855,7.02357157 4.92307617,7.30893477 L4.95302065,7.34297873 L4.91220341,7.36454594 C4.08997848,7.78893708 3.57913936,8.63290853 3.57913936,9.56742025 L3.57913936,10.0520579 C3.57913936,10.2048104 3.70337336,10.3290571 3.855947,10.3290571 L3.85594634,10.3290571 Z" id="路径" fill="#7E90A5" fill-rule="nonzero"></path>
                    <path d="M6.79922798,7.42460974 L6.84931363,7.46400094 L6.79156356,7.48770704 C5.60412292,7.96254093 4.83680065,9.09258909 4.83680065,10.366471 L4.83680065,10.9953051 C4.83680065,11.1480575 4.96103465,11.2724703 5.11396588,11.2724703 L10.7585002,11.2724703 C10.9108962,11.2724703 11.0353079,11.1482363 11.0353079,10.9953051 L11.0353079,10.366471 C11.0353079,9.09258241 10.2683365,7.96254093 9.0816144,7.48787414 L9.02279489,7.46398991 L9.07288054,7.42459872 C9.52614672,7.07168164 9.78584489,6.5419501 9.78584489,5.97193555 C9.78584489,4.95204028 8.95595504,4.12232923 7.93623857,4.12232923 C6.91616618,4.12232923 6.08663225,4.95204028 6.08663225,5.97193555 C6.08663225,6.5417713 6.34632876,7.07132571 6.79923901,7.42459872 L6.79922798,7.42460974 Z M10.4815133,10.366471 L10.4815133,10.7186746 L5.39113563,10.7186746 L5.39113563,10.366471 C5.39113563,8.96300236 6.5325901,7.8213741 7.93623256,7.8213741 C9.3395241,7.82119585 10.4815133,8.96300737 10.4815133,10.366471 Z M7.93623256,4.68450608 C8.64598857,4.68450608 9.22331044,5.26200675 9.22331044,5.97193989 C9.22331044,6.68151711 8.6461657,7.25901778 7.93623256,7.25901778 C7.22629942,7.25901778 6.64915467,6.6816959 6.64915467,5.97193989 C6.64933292,5.26200675 7.22647654,4.68450608 7.93623256,4.68450608 Z" id="形状" fill="#7E90A5" fill-rule="nonzero"></path>
                    <path d="M10.0754748,5.35220781 L10.0754749,5.35220782 C10.500257,5.46869736 10.7949946,5.85445962 10.7957465,6.29492419 C10.7957465,6.67297325 10.567064,7.02161254 10.2227025,7.17935578 C10.1729732,7.19611048 10.1419593,7.22748084 10.1221746,7.24744388 C10.1013204,7.26794164 10.0897348,7.29129115 10.0678111,7.334782 L10.0480264,7.37452978 L10.0480264,7.46828458 L10.0564037,7.49377298 L10.0564037,7.52728222 L10.0678111,7.54991888 C10.1130843,7.64010874 10.1993529,7.69839353 10.2898999,7.70766212 C11.1434964,7.92493839 11.7395335,8.68976918 11.7395335,9.56742817 L11.7395335,10.0520659 C11.7395335,10.2048183 11.8637675,10.3292311 12.0163412,10.3292311 C12.1719455,10.3292311 12.2935079,10.2037495 12.2935079,10.0436891 L12.2935079,9.5590514 L12.2935079,9.55900329 C12.2945142,8.63600148 11.7805351,7.78953856 10.9611125,7.36470126 L10.9325939,7.34955079 L10.9566564,7.32691413 C11.2156411,7.04030269 11.3584121,6.67366161 11.3584121,6.29489904 C11.3584121,5.61134445 10.8999758,5.00657291 10.2411972,4.81888519 C10.2087574,4.80213049 10.1754263,4.80213049 10.1549286,4.80213049 C10.0187525,4.80213049 9.90842133,4.88715142 9.88204111,5.00835471 C9.86225637,5.08089872 9.87081193,5.15611651 9.90646007,5.22010495 C9.9424648,5.28534114 10.0027102,5.33239675 10.0754325,5.3521815 L10.0754748,5.35220781 Z" id="路径" fill="#7E90A5" fill-rule="nonzero"></path>
                </g>
            </g>
        </g>
    </g>
</svg>