<?xml version="1.0" encoding="UTF-8"?>
<svg width="14px" height="13px" viewBox="0 0 14 13" version="1.1" xmlns="http://www.w3.org/2000/svg" xmlns:xlink="http://www.w3.org/1999/xlink">
    <!-- Generator: Sketch 59 (86127) - https://sketch.com -->
    <title>一张图</title>
    <desc>Created with Sketch.</desc>
    <g id="设计稿" stroke="none" stroke-width="1" fill="none" fill-rule="evenodd">
        <g id="首页" transform="translate(-23.000000, -223.000000)" fill="#7F91A5" fill-rule="nonzero">
            <g id="编组" transform="translate(-1.000000, 0.000000)">
                <g id="一张图" transform="translate(23.000000, 221.000000)">
                    <rect id="矩形" opacity="0" x="0" y="0" width="16" height="16"></rect>
                    <path d="M10.1104034,14.4840764 L5.81528662,12.9978769 L2.30042463,13.7038217 C1.58390826,13.699762 1.00405968,13.1199134 1,12.403397 L1,4.04352443 C1.00303603,3.34942042 1.54777377,2.77858745 2.24097664,2.74309979 L5.88959661,2 L10.1847134,3.48619959 L13.6995754,2.74309979 C14.4160918,2.74715947 14.9959403,3.32700804 15,4.04352443 L15,12.42569 C14.9853067,13.1111538 14.4437557,13.6689189 13.7590234,13.7038217 L10.1104034,14.4840764 Z M5.88959661,11.8460722 L10.1847134,13.3322718 L13.6995754,12.589172 C13.802176,12.589172 13.8853503,12.5059977 13.8853503,12.403397 L13.8853503,4.04352443 C13.8836264,3.95663083 13.8218886,3.88254552 13.7367304,3.86518048 L10.1104034,4.60828025 L5.81528662,3.12208069 L2.30042463,3.86518048 C2.20065726,3.86510063 2.11864035,3.94383686 2.11464968,4.04352443 L2.11464968,12.42569 C2.11637365,12.5125836 2.1781114,12.5866689 2.26326963,12.604034 L5.88959661,11.8460722 Z M5.25796178,2.66135882 L6.37261146,2.66135882 L6.37261146,12.2622081 L5.25796178,12.2622081 L5.25796178,2.66135882 Z M9.67197452,3.93949045 L10.7866242,3.93949045 L10.7866242,13.7038217 L9.67197452,13.7038217 L9.67197452,3.93949045 Z" id="形状"></path>
                </g>
            </g>
        </g>
    </g>
</svg>