<?xml version="1.0" encoding="UTF-8"?>
<svg width="14px" height="13px" viewBox="0 0 14 13" version="1.1" xmlns="http://www.w3.org/2000/svg" xmlns:xlink="http://www.w3.org/1999/xlink">
    <!-- Generator: Sketch 59 (86127) - https://sketch.com -->
    <title>协同办公</title>
    <desc>Created with Sketch.</desc>
    <g id="设计稿" stroke="none" stroke-width="1" fill="none" fill-rule="evenodd">
        <g id="首页" transform="translate(-23.000000, -422.000000)">
            <g id="编组" transform="translate(-1.000000, 0.000000)">
                <g id="协同办公" transform="translate(23.000000, 421.000000)">
                    <rect id="矩形" fill="#D8D8D8" opacity="0" x="0" y="0" width="16" height="16"></rect>
                    <path d="M13.8511105,1.00677944 L2.04945764,1.00677944 C1.47673037,1.00677944 1.00813534,1.47537448 1.00813534,2.04810175 L1.00813534,10.0315728 C1.00813534,10.6043001 1.47673038,11.0728952 2.04945764,11.0728951 L7.42962293,11.0728951 L7.42962293,12.8084323 L5.3469783,12.8084323 C5.05193698,12.8084323 4.82631714,13.0340522 4.82631716,13.3290935 L4.82631716,13.8497547 L11.074251,13.8497547 L11.074251,13.3290935 C11.074251,13.0340522 10.8486312,12.8084323 10.5535899,12.8084323 L8.47094525,12.8084323 L8.47094525,11.0728951 L13.8511105,11.0728951 C14.4238378,11.0728951 14.8924328,10.6043001 14.8924328,10.0315728 L14.8924328,2.04810175 C14.8924328,1.47537448 14.4238378,1.00677944 13.8511105,1.00677944 Z M2.04945764,10.0315728 L2.04945764,2.04810175 L13.8511105,2.04810175 L13.8511105,10.0315728 L2.04945764,10.0315728 L2.04945764,10.0315728 Z" id="形状" fill="#7E90A5" fill-rule="nonzero"></path>
                    <path d="M7.42962293,3.61008523 C7.42962293,3.89763844 7.66273087,4.13074639 7.95028409,4.13074639 C8.23783731,4.13074639 8.47094525,3.89763844 8.47094525,3.61008523 C8.47094525,3.32253201 8.23783731,3.08942407 7.95028409,3.08942407 C7.66273087,3.08942407 7.42962293,3.32253201 7.42962293,3.61008523 L7.42962293,3.61008523 Z" id="路径" fill="#7E90A5" fill-rule="nonzero"></path>
                    <path d="M9.51226757,7.2720687 C9.51226757,7.55962192 9.74537551,7.79272986 10.0329287,7.79272986 C10.3204819,7.79272986 10.5535899,7.55962192 10.5535899,7.2720687 C10.5535899,6.98451548 10.3204819,6.75140754 10.0329287,6.75140754 C9.74537551,6.75140754 9.51226757,6.98451548 9.51226757,7.2720687 L9.51226757,7.2720687 Z" id="路径" fill="#7E90A5" fill-rule="nonzero"></path>
                    <path d="M5.3469783,7.2720687 C5.3469783,7.55962192 5.58008624,7.79272986 5.86763946,7.79272986 C6.15519267,7.79272986 6.38830062,7.55962192 6.38830062,7.2720687 C6.38830062,6.98451548 6.15519267,6.75140754 5.86763946,6.75140754 C5.58008624,6.75140754 5.3469783,6.98451548 5.3469783,7.2720687 L5.3469783,7.2720687 Z" id="路径" fill="#7E90A5" fill-rule="nonzero"></path>
                    <path d="M9.39077996,7.53239927 C9.02631716,7.89686209 8.505656,8.12248193 7.95028409,8.12248193 C7.39491218,8.12248193 6.87425103,7.89686209 6.50978823,7.53239927 C6.405656,7.75801911 6.19739152,7.91421746 5.93706095,7.9489282 C6.44036675,8.48694473 7.15193698,8.8166968 7.95028409,8.8166968 C8.7486312,8.8166968 9.46020145,8.48694473 9.96350723,7.9489282 C9.70317666,7.93157284 9.49491218,7.75801911 9.39077996,7.53239927 Z M5.86763946,6.57785382 L5.93706095,6.57785382 C5.88499484,6.4043001 5.86763947,6.23074639 5.86763946,6.03983729 C5.86763946,5.08529184 6.52714359,4.26958936 7.39491218,4.02661416 C7.30813532,3.92248193 7.25606921,3.76628359 7.25606921,3.61008523 C7.25606921,3.505953 7.27342457,3.41917614 7.30813534,3.33239927 C6.09325931,3.62744059 5.17342459,4.72082902 5.17342459,6.03983729 C5.17342459,6.33487861 5.2254907,6.61256457 5.29491218,6.87289514 C5.41639979,6.68198605 5.62466425,6.57785382 5.86763946,6.57785382 L5.86763946,6.57785382 Z M8.59243284,3.33239927 C8.62714359,3.41917614 8.64449896,3.505953 8.64449897,3.61008523 C8.64449897,3.76628357 8.59243286,3.92248193 8.505656,4.02661416 C9.39077997,4.26958936 10.0329287,5.06793647 10.0329287,6.03983729 C10.0329287,6.23074639 9.99821798,6.40430011 9.96350723,6.57785382 L10.0329287,6.57785382 C10.2759039,6.57785382 10.4841684,6.69934143 10.605656,6.87289514 C10.6924329,6.61256457 10.7271436,6.33487861 10.7271436,6.03983729 C10.7271436,4.72082902 9.80730889,3.62744059 8.59243284,3.33239927 Z" id="形状" fill="#7E90A5" fill-rule="nonzero"></path>
                </g>
            </g>
        </g>
    </g>
</svg>