<?xml version="1.0" encoding="UTF-8"?>
<svg width="14px" height="14px" viewBox="0 0 14 14" version="1.1" xmlns="http://www.w3.org/2000/svg" xmlns:xlink="http://www.w3.org/1999/xlink">
    <!-- Generator: Sketch 59 (86127) - https://sketch.com -->
    <title>巡河管理</title>
    <desc>Created with Sketch.</desc>
    <g id="设计稿" stroke="none" stroke-width="1" fill="none" fill-rule="evenodd">
        <g id="首页" transform="translate(-24.000000, -262.000000)" fill="#7E90A5" fill-rule="nonzero">
            <g id="编组" transform="translate(-1.000000, 0.000000)">
                <g id="巡河管理" transform="translate(23.000000, 261.000000)">
                    <path d="M2.71741626,13.4868773 C3.69277996,14.4659506 3.89675445,14.4511161 4.84616011,13.4868773 C5.79556445,12.5226385 6.65224966,12.5634336 7.57940163,13.460917 C8.50655359,14.3584 8.79582537,14.3843607 9.74894326,13.460917 C10.7020559,12.5374734 11.5772826,12.5819768 12.4821848,13.460917 C13.4464236,14.4251559 13.5947671,14.4362807 14.6109286,13.460917 C15.0633784,13.0344266 15.148677,13.6685985 15.4268226,13.7093936 L15.4268226,13.7093938 C15.4327127,13.759907 15.4327127,13.8109335 15.4268226,13.8614469 C15.1523853,13.9578708 15.0262929,14.2323077 14.826028,14.4399905 L14.826028,14.4399904 C14.1808428,15.1433676 13.0876197,15.1905397 12.3842386,14.5453542 C12.3294144,14.4950657 12.2778946,14.4412896 12.2300012,14.3843618 C11.2768886,13.420123 10.9764919,13.4089981 10.0048418,14.3176069 C9.03318634,15.2262161 8.1134549,15.155752 7.20855269,14.2360175 C6.44457874,13.464627 5.98100276,13.464627 5.22815368,14.2360175 C4.21941271,15.3115143 3.01782739,15.2373419 2.13887667,14.0654216 C1.99424144,13.8280712 1.91265112,13.7205215 2.15000249,13.5276732 C2.38735293,13.3348249 2.46152534,13.2235669 2.71371157,13.4868786 L2.71741626,13.4868773 Z M6.78423428,1 C7.05811017,1 7.35382847,1.03528457 7.66970939,1.10333338 C7.98475019,1.17306242 8.28970969,1.25539308 8.58206756,1.35200559 L9.45914116,1.64436346 L10.3723394,1.89303567 C10.9805782,2.05853711 11.2754564,2.09382168 11.256974,1.99552895 C11.5367303,1.99552895 11.812286,1.97872677 12.0844812,1.94596253 C12.3566765,1.91235817 12.5885465,1.87119284 12.7800913,1.82162642 C12.9716361,1.77121989 13.1421782,1.72333369 13.2942379,1.67376727 C13.4454575,1.62336074 13.5588722,1.58303552 13.6336419,1.54943116 L13.742856,1.49902464 L13.742856,8.46688714 C13.7168126,8.48032888 13.6773275,8.49881128 13.6252408,8.519814 C13.5842435,8.53728826 13.5056093,8.56605359 13.3906286,8.60740038 L13.2975979,8.64078982 L13.0386669,8.72303353 L13.0386669,8.72303353 L12.7758907,8.79200933 C12.5492188,8.84312037 12.3201461,8.88293457 12.0895218,8.91130478 C11.8139661,8.94826957 11.5350499,8.96675196 11.257814,8.96675196 C10.9830985,8.96675196 10.6882203,8.93146739 10.3723394,8.86173836 C10.0631793,8.79536976 9.75905992,8.71219899 9.45914107,8.61306615 L8.58206747,8.3223885 L7.66970929,8.07203607 C7.06147051,7.90737475 6.76659232,7.87293028 6.7842346,7.96870269 C6.29025062,7.96870269 5.7929062,8.02583009 5.29388157,8.13672445 L5.29390186,10.9632296 C6.07055581,10.418973 6.80008558,10.5680825 7.57940163,11.3224607 C8.50655359,12.2199437 8.79582537,12.2459044 9.74894326,11.3224607 C10.7020559,10.399017 11.5772826,10.4435205 12.4821848,11.3224607 C13.4464236,12.2866995 13.5947671,12.2978244 14.6109286,11.3224607 C15.0332151,10.924403 15.1356721,11.4503 15.3735989,11.5553567 L15.4268226,11.5709375 C15.4327127,11.6214507 15.4327127,11.6724772 15.4268226,11.7229906 C15.1915906,11.8056397 15.0653467,12.0190738 14.9079633,12.2091539 L14.826028,12.3015341 C14.1808428,13.0049113 13.0876197,13.0520834 12.3842386,12.4068979 C12.3294144,12.3566094 12.2778946,12.3028333 12.2300012,12.2459055 C11.2768886,11.2816667 10.9764919,11.2705418 10.0048418,12.1791506 C9.03318634,13.0877598 8.1134549,13.0172957 7.20855269,12.0975612 C6.44457874,11.3261707 5.98100276,11.3261707 5.22815368,12.0975612 C4.21941271,13.173058 3.01782739,13.0988856 2.13887667,11.9269653 C1.99424144,11.6896149 1.91265112,11.5820652 2.15000249,11.3892169 C2.38735293,11.1963686 2.46152534,11.0851106 2.71371157,11.3484223 L2.71741626,11.348421 C3.5226955,12.156763 3.80215923,12.2876102 4.40944577,11.7660084 L4.4445316,11.8054802 C4.3492483,11.7134577 4.29658713,11.5859138 4.29910047,11.4534746 L4.29910047,1.49986536 C4.32439604,1.48642362 4.36388115,1.46794123 4.4159679,1.4460984 C4.46721454,1.42509568 4.57726879,1.38309024 4.74361034,1.32512273 L5.00257388,1.24321212 L5.00257388,1.24321212 L5.26531755,1.17390322 C5.76389456,1.06147803 6.27314621,1.00317342 6.78423428,1 Z M6.78423459,1.99552638 C6.28078888,1.99504878 5.77954715,2.06201279 5.29388107,2.19463473 L5.29388107,7.12103292 C5.78470284,7.02367835 6.28385086,6.97443918 6.78423411,6.97401387 C7.15136166,6.97401387 7.51932932,7.01517921 7.88729699,7.1000302 C8.25442454,7.18404108 8.67279873,7.30417664 9.14157945,7.45959677 C9.20122717,7.4814396 9.31296164,7.5192445 9.47762297,7.57469168 C9.64144419,7.63097897 9.76157975,7.67046408 9.83802965,7.69566735 C9.89599716,7.71456979 9.97286712,7.73772529 10.0700572,7.76619711 L10.1740729,7.79648031 C10.4075969,7.86546099 10.6464477,7.91491741 10.8881627,7.94433947 C11.0175395,7.96114164 11.1401954,7.96954273 11.2578106,7.96954273 C11.7652363,7.96954273 12.2625808,7.90485435 12.7490039,7.77211716 L12.7490039,2.84403883 C12.3808118,2.91810807 12.0077892,2.96464369 11.6330318,2.98333699 L11.2578105,2.99273809 C10.9795163,2.99223109 10.7019419,2.96800666 10.428089,2.9204126 L10.1555875,2.86504149 C9.8732663,2.79824391 9.59313581,2.72265051 9.31560363,2.63837813 L8.90130466,2.50547479 C8.66956983,2.42545783 8.43718392,2.34734137 8.20416924,2.27113562 C8.14620173,2.25223317 8.06885921,2.22907767 7.97178727,2.20060586 L7.86812548,2.17032249 L7.68389939,2.11889046 L7.68389939,2.11889046 L7.49764023,2.07539087 L7.32568945,2.04637548 L7.32568945,2.04637548 L7.15319556,2.02078379 L6.96919291,2.0023049 L6.96919291,2.0023049 L6.78423459,1.99552638 Z" id="形状"></path>
                </g>
            </g>
        </g>
    </g>
</svg>