<?xml version="1.0" encoding="UTF-8"?>
<svg width="32px" height="32px" viewBox="0 0 32 32" version="1.1" xmlns="http://www.w3.org/2000/svg" xmlns:xlink="http://www.w3.org/1999/xlink">
    <!-- Generator: Sketch 59 (86127) - https://sketch.com -->
    <title>切片</title>
    <desc>Created with Sketch.</desc>
    <g id="设计稿" stroke="none" stroke-width="1" fill="none" fill-rule="evenodd">
        <g id="水情" transform="translate(3.000000, 0.000000)" fill-rule="nonzero">
            <path d="M24.1175224,12.8054505 C24.1175224,6.12700466 19.2692995,1.28251685 12.5945888,1.28251685 C6.24110093,1.28251685 1.07165519,6.45196259 1.07165519,12.8054505 C1.07165519,17.4967972 7.4438188,25.4414584 10.8689501,29.7107333 L11.1229402,30.0244858 C11.4815145,30.4727036 12.0193759,30.7304289 12.5983239,30.7304289 C13.1735368,30.7304289 13.7113982,30.4727036 14.0737077,30.0244858 L14.3276978,29.7107333 C17.7453588,25.4414584 24.1175224,17.4967972 24.1175224,12.8054505 Z" id="形状" fill="#00A4FF"></path>
            <path d="M12.5945888,0.27776186 C5.68829893,0.27776186 0.0669001975,5.89542544 0.0669001975,12.8054505 C0.0669001975,17.8479012 6.58473461,25.9718495 10.0845689,30.3382383 L10.3348239,30.6519908 C10.8876259,31.3392581 11.7093586,31.7351839 12.5908537,31.7351839 C13.4723487,31.7351839 14.2940814,31.3392581 14.8468834,30.6519908 L15.1008735,30.3382383 C18.604443,25.9718495 25.1185423,17.8479012 25.1185423,12.8054505 C25.1185423,5.54805662 19.8519826,0.27776186 12.5945888,0.27776186 L12.5945888,0.27776186 Z M12.5945888,30.7304289 C12.0193759,30.7304289 11.4815145,30.4727036 11.1192051,30.0244858 L10.865215,29.7107333 C7.44008365,25.4414584 1.06792004,17.4967972 1.06792004,12.8054505 C1.06792004,6.45196259 6.23736578,1.28251685 12.5908537,1.28251685 C19.2692995,1.28251685 24.1137873,6.13073981 24.1137873,12.8054505 C24.1137873,17.4967972 17.7416237,25.4414584 14.3164923,29.7107333 L14.0625022,30.0244858 C13.7076631,30.4727036 13.1698017,30.7304289 12.5945888,30.7304289 Z" id="形状"></path>
            <g id="水位" transform="translate(7.000000, 8.000000)" fill="#FFFFFF">
                <path d="M0,10.1652325 C0.16203363,10.0099736 0.325197296,9.85584378 0.486101971,9.69889099 L0.486101779,9.69889118 C0.82556633,9.35636341 1.25696976,9.11948433 1.72817884,9.01688046 C2.395511,8.87460623 2.98040892,8.99712018 3.43151439,9.54645529 C3.96165316,10.192333 4.155304,10.1624108 4.64592504,9.54984276 L4.64592507,9.54984272 C5.176158,8.87755204 6.15099545,8.76239112 6.82329154,9.29262298 C6.92408995,9.37212214 7.01462386,9.46383329 7.09281396,9.56565024 C7.57778698,10.1793468 7.7974081,10.1550705 8.2688315,9.57242519 C8.7402549,8.98977977 9.34153078,8.85484537 10.0416037,9.03889848 C10.0941095,9.05244842 10.1471799,9.06373991 10.214929,9.07954809 L10.214929,7.91030644 L8.60474574,7.91030644 L8.60474574,6.86019058 L10.2092788,6.86019058 L10.2092788,5.2725972 L8.6053086,5.2725972 L8.6053086,4.2303851 L10.2047544,4.2303851 L10.2047544,2.64335459 L8.60982225,2.64335459 L8.60982225,1.59323872 L10.2149182,1.59323872 L10.2149182,0.548203697 L11.2836656,0.548203697 C11.3649649,0.649263294 11.326009,0.774034611 11.326009,0.893725418 C11.326009,3.70589327 11.3361714,6.51806113 11.3181049,9.33021816 C11.3181049,9.71356689 11.4310209,9.97440188 11.7426675,10.1652298 L11.7426675,10.2216877 L10.9037039,10.8653075 C10.6846478,10.661495 10.490432,10.470102 10.264036,10.3187951 C9.62719107,9.88858663 9.42168458,9.91004001 8.90905272,10.470667 L8.88985703,10.4915565 C8.15929261,11.2780144 7.2141879,11.2819663 6.48701359,10.4994606 C5.87218702,9.83833931 5.86597723,9.83438743 5.23816064,10.505671 C4.90844644,10.8574036 4.53243754,11.0702499 4.03165159,11.0736367 C3.42981069,11.0736367 3.04251009,10.7348898 2.68287048,10.3187949 C2.38420848,9.97270818 2.21991586,9.94052703 1.79027135,10.0980448 L1.79027134,10.0980448 C1.58695998,10.1732014 1.40378146,10.2943541 1.25505065,10.4520353 C1.11334145,10.5993904 0.972761199,10.7490034 0.833310985,10.8980524 C0.512630589,10.6857711 0.303736154,10.3967068 0.00225122901,10.2205586 L0,10.1652325 Z" id="路径"></path>
                <path d="M3.67710057,-7.11778457e-07 L3.67710058,-7.11778457e-07 C3.73433045,0.0374851881 3.78868089,0.07919177 3.83969923,0.12477165 C4.86102189,1.19747093 5.73386378,2.37010269 6.23351537,3.77646804 C6.74784661,5.22461445 6.0195401,6.7382467 4.58833775,7.22039571 C3.53539896,7.57551517 2.57052943,7.3705737 1.77165624,6.59653642 C0.986327249,5.8349198 0.744687726,4.89207516 1.09811429,3.85437888 C1.59268504,2.40340738 2.48753992,1.20085996 3.53935084,0.103317188 L3.53935079,0.103317226 C3.58250629,0.0653395493 3.62856579,0.0307949541 3.67710812,-7.11778457e-07 L3.67710057,-7.11778457e-07 Z" id="路径"></path>
            </g>
        </g>
    </g>
</svg>