<?xml version="1.0" encoding="UTF-8"?>
<svg width="32px" height="32px" viewBox="0 0 32 32" version="1.1" xmlns="http://www.w3.org/2000/svg" xmlns:xlink="http://www.w3.org/1999/xlink">
    <!-- Generator: Sketch 59 (86127) - https://sketch.com -->
    <title>切片</title>
    <desc>Created with Sketch.</desc>
    <g id="设计稿" stroke="none" stroke-width="1" fill="none" fill-rule="evenodd">
        <g id="黑臭水" transform="translate(3.000000, 0.000000)" fill-rule="nonzero">
            <path d="M24.1175224,12.8054505 C24.1175224,6.12700466 19.2692995,1.28251685 12.5945888,1.28251685 C6.24110093,1.28251685 1.07165519,6.45196259 1.07165519,12.8054505 C1.07165519,17.4967972 7.4438188,25.4414584 10.8689501,29.7107333 L11.1229402,30.0244858 C11.4815145,30.4727036 12.0193759,30.7304289 12.5983239,30.7304289 C13.1735368,30.7304289 13.7113982,30.4727036 14.0737077,30.0244858 L14.3276978,29.7107333 C17.7453588,25.4414584 24.1175224,17.4967972 24.1175224,12.8054505 Z" id="形状" fill="#122D5B"></path>
            <path d="M12.5945888,0.27776186 C5.68829893,0.27776186 0.0669001975,5.89542544 0.0669001975,12.8054505 C0.0669001975,17.8479012 6.58473461,25.9718495 10.0845689,30.3382383 L10.3348239,30.6519908 C10.8876259,31.3392581 11.7093586,31.7351839 12.5908537,31.7351839 C13.4723487,31.7351839 14.2940814,31.3392581 14.8468834,30.6519908 L15.1008735,30.3382383 C18.604443,25.9718495 25.1185423,17.8479012 25.1185423,12.8054505 C25.1185423,5.54805662 19.8519826,0.27776186 12.5945888,0.27776186 L12.5945888,0.27776186 Z M12.5945888,30.7304289 C12.0193759,30.7304289 11.4815145,30.4727036 11.1192051,30.0244858 L10.865215,29.7107333 C7.44008365,25.4414584 1.06792004,17.4967972 1.06792004,12.8054505 C1.06792004,6.45196259 6.23736578,1.28251685 12.5908537,1.28251685 C19.2692995,1.28251685 24.1137873,6.13073981 24.1137873,12.8054505 C24.1137873,17.4967972 17.7416237,25.4414584 14.3164923,29.7107333 L14.0625022,30.0244858 C13.7076631,30.4727036 13.1698017,30.7304289 12.5945888,30.7304289 Z" id="形状"></path>
            <g id="污水处理" transform="translate(6.500000, 9.000000)">
                <path d="M10.9693494,0.273752064 L10.6780209,1.49062848 C10.6754428,1.49836286 10.6715756,1.50609725 10.6638412,1.5112535 C9.24200364,2.42906707 8.0367288,2.72297366 7.08153238,2.38394983 C6.85465711,2.3027388 6.7154382,2.21379338 6.53883643,2.10035575 C6.44215663,2.03848068 6.33258619,1.96758216 6.20110166,1.89539458 C5.64809321,1.59117547 5.00356121,1.4184409 4.2842635,1.38105804 C3.44121564,1.33722986 2.47055045,1.47773784 1.39676014,1.80000384 C1.37871324,1.8051601 1.35937728,1.79484758 1.35551009,1.77680069 L0.995861232,0.276330192 C0.99199404,0.258283296 0.973947144,0.247970784 0.955900248,0.251837976 L0.246915048,0.42070536 C0.228868152,0.424572552 0.21855564,0.442619448 0.222422832,0.460666344 L2.70644916,10.8208737 C2.71031635,10.8389206 2.72836325,10.8492331 2.74641014,10.8453659 L2.76316798,10.8414987 L2.76316798,10.8453659 L9.21235517,10.8453659 C9.2149333,10.8453659 9.21751142,10.8453659 9.22008955,10.846655 C9.23813645,10.8505222 9.25489428,10.8402097 9.26005054,10.8221628 L11.7440769,0.461955408 C11.7479441,0.443908512 11.7376315,0.42715068 11.7195846,0.421994424 L11.0080213,0.251837976 C10.9912635,0.245392656 10.9732166,0.256994232 10.9693494,0.273752064 Z M10.1714188,3.60211531 C10.1688407,3.61113876 10.1636844,3.61758408 10.15595,3.62274034 C8.87977666,4.39875686 7.79180664,4.63207745 6.91911031,4.31625677 C6.69610224,4.2363348 6.55946146,4.14610032 6.38672688,4.03395175 C6.29133614,3.97207668 6.18305477,3.90117816 6.05414837,3.82899058 C5.5088743,3.52477147 4.87207668,3.35074783 4.16309148,3.31336498 C3.46699692,3.27598212 2.68324601,3.37008379 1.82601845,3.58922467 C1.80797155,3.59438093 1.78992466,3.58277935 1.78605746,3.56473246 L1.55273688,2.5927782 C1.54886969,2.57602037 1.5591822,2.55926254 1.57465097,2.55410628 C3.3780515,2.00496502 4.80762348,2.01141034 5.82856217,2.57215318 C5.93684354,2.63145012 6.02578896,2.689458 6.1211797,2.75004401 C6.31325023,2.87379415 6.51047702,3.00012242 6.82243051,3.11098193 C7.16274341,3.23215394 7.52368133,3.29273995 7.90266614,3.29273995 C8.65032326,3.29273995 9.4727461,3.05684124 10.3596221,2.58633288 C10.3841143,2.57344224 10.4137628,2.59535633 10.4073175,2.62242667 L10.1714188,3.60211531 L10.1714188,3.60211531 Z" id="形状" fill="#FFFFFF"></path>
                <path d="M3.83695829,5.16574994 C3.46957505,5.14770305 3.16793407,5.44934402 3.18727003,5.8154382 C3.2027388,6.12996982 3.45926254,6.38520449 3.77250509,6.40067326 C4.13988833,6.41872015 4.4415293,6.11707918 4.42219334,5.750985 C4.40672458,5.43645338 4.1514899,5.18121871 3.83695829,5.16574994 Z M8.06379914,7.56083086 C8.3125885,7.57629962 8.51754967,7.37133845 8.5020809,7.1225491 C8.48919026,6.91758792 8.32290101,6.75129866 8.11665077,6.73711896 C7.86786142,6.72165019 7.66290024,6.92661137 7.67836901,7.17540072 C7.69125965,7.38165096 7.8575489,7.54794022 8.06379914,7.56083086 Z" id="形状" fill="#122D5B"></path>
                <path d="M5.29875686,7.03231462 L5.29875686,7.0323147 C5.29875686,7.3455637 5.55269603,7.59950286 5.86594502,7.59950286 C6.17919402,7.59950286 6.43313318,7.3455637 6.43313318,7.0323147 L6.43313318,7.0323147 C6.43313318,6.7190657 6.17919402,6.46512654 5.86594502,6.46512654 C5.55269603,6.46512654 5.29875686,6.7190657 5.29875686,7.0323147 L5.29875686,7.03231462 Z" id="路径" fill="#122D5B"></path>
                <path d="M4.01613818,7.54794022 C3.76734883,7.53247145 3.56238766,7.73743262 3.57785642,7.98622198 C3.59074706,8.19118315 3.75703632,8.35747241 3.96328656,8.37165211 C4.21207591,8.38712088 4.41703709,8.1821597 4.40156832,7.93337035 C4.38867768,7.72712011 4.22238842,7.56083086 4.01613818,7.54794022 Z M7.29036074,8.38454275 C7.04157139,8.36907398 6.83661022,8.57403516 6.85207898,8.82282451 C6.86496962,9.02778569 7.03125888,9.19407494 7.23750912,9.20825465 C7.48629847,9.22372342 7.69125965,9.01876224 7.67579088,8.76997289 C7.66161118,8.56372265 7.49532192,8.39743339 7.29036074,8.38454275 Z" id="形状" fill="#122D5B"></path>
            </g>
        </g>
    </g>
</svg>