<?xml version="1.0" standalone="no"?><!DOCTYPE svg PUBLIC "-//W3C//DTD SVG 1.1//EN" "http://www.w3.org/Graphics/SVG/1.1/DTD/svg11.dtd"><svg t="1597298685984" class="icon" viewBox="0 0 1024 1024" version="1.1" xmlns="http://www.w3.org/2000/svg" p-id="1418" xmlns:xlink="http://www.w3.org/1999/xlink" width="200" height="200"><defs><style type="text/css"></style></defs><path d="M356.9 714.8s-97.4 1.8-228.9-38.4c0 0 65.7-113.3 228.9-579.9v618.3z" fill="#FDFDFB" p-id="1419"></path><path d="M362.8 259.5l7.7 494.7H355zM685.4 337.3L712.3 832h-15.6z" fill="#333041" p-id="1420"></path><path d="M692 659.8s147.8-3.7 193.7 0c0 0-76.7-258.1-232.9-400.3 0 0 96 252.3 39.2 400.3zM369.2 668.1s223-39.5 274-38.2c0 0-50.5-235.9-275.4-460.8-0.1 0.1 127.9 278 1.4 499z" fill="#FDFDFB" p-id="1421"></path><path d="M438.1 295.2s28.7 214.2-33.3 346.5c0 0 39.8-4.5 60.3-0.7-0.1 0 34.5-114.8-27-345.8zM314.6 295.2s-7.3 214.2-69.4 346.5c0 0 39.8-4.5 60.3-0.7-0.1 0-16.1-101.6 9.1-345.8zM714 384.6s42.9 106.1 13.6 244.4c0 0 27.3-4 39-4 0.1 0.1 4-132.3-52.6-240.4z" fill="#C1E0E0" p-id="1422"></path><path d="M793.3 776.2l-41.9-40.8c-2.8-2.8-6.5-4.5-10.3-4.7l-279.4-23c-3-0.2-6 0.4-8.7 1.7l-82.6 42 422.9 24.8z" fill="#333041" p-id="1423"></path><path d="M707.8 761.7l29 2.3 1.5-19.1-29-2.4zM659.325 757.752l1.48-18.943 29.012 2.265-1.479 18.943zM610.8 754.1l29 2.2 1.6-19-29-2.3zM562.4 750.2l28.9 2.2 1.6-19-29.1-2.2zM513.776 746.437l1.477-18.943 29.112 2.268-1.476 18.943zM465.366 742.644l1.477-18.943 29.112 2.27-1.476 18.942z" fill="#0CC2AC" p-id="1424"></path><path d="M999.9 776.2C722.3 760.3 349.7 744 72.1 728.1c7.1 58.8 90.2 111.4 157.3 157.8h656.5c40.2-26.9 109.6-63.6 114-109.7z" fill="#81D8DF" p-id="1425"></path><path d="M229.4 885.9h656.5c40.2-26.9 109.6-63.6 114-109.6" fill="#63B0B8" p-id="1426"></path></svg>