<?xml version="1.0" encoding="UTF-8"?>
<svg width="32px" height="32px" viewBox="0 0 32 32" version="1.1" xmlns="http://www.w3.org/2000/svg" xmlns:xlink="http://www.w3.org/1999/xlink">
    <!-- Generator: Sketch 59 (86127) - https://sketch.com -->
    <title>切片</title>
    <desc>Created with Sketch.</desc>
    <g id="设计稿" stroke="none" stroke-width="1" fill="none" fill-rule="evenodd">
        <g id="公众投诉" transform="translate(3.000000, 0.000000)" fill-rule="nonzero">
            <path d="M24.0458672,12.5229336 C24.0458672,5.84448781 19.1976443,1 12.5229336,1 C6.16944574,1 1,6.16944574 1,12.5229336 C1,17.2142803 7.37216361,25.1589415 10.7972949,29.4282164 L11.051285,29.7419689 C11.4098593,30.1901868 11.9477207,30.447912 12.5266688,30.447912 C13.1018817,30.447912 13.6397431,30.1901868 14.0020525,29.7419689 L14.2560426,29.4282164 C17.6737036,25.1589415 24.0458672,17.2142803 24.0458672,12.5229336 Z" id="形状" fill="#6D20C9"></path>
            <path d="M12.5276886,0 C5.62139873,0 0,5.61766358 0,12.5276886 C0,17.5701393 6.51783441,25.6940876 10.0176687,30.0604764 L10.2679237,30.3742289 C10.8207257,31.0614962 11.6424584,31.457422 12.5239535,31.457422 C13.4054485,31.457422 14.2271812,31.0614962 14.7799832,30.3742289 L15.0339734,30.0604764 C18.5375428,25.6940876 25.0516421,17.5701393 25.0516421,12.5276886 C25.0516421,5.27029476 19.7850824,0 12.5276886,0 L12.5276886,0 Z M12.5276886,30.452667 C11.9524757,30.452667 11.4146143,30.1949418 11.0523049,29.7467239 L10.7983148,29.4329714 C7.37318345,25.1636965 1.00101984,17.2190353 1.00101984,12.5276886 C1.00101984,6.17420073 6.17046558,1.00475499 12.5239535,1.00475499 C19.2023993,1.00475499 24.0468871,5.85297795 24.0468871,12.5276886 C24.0468871,17.2190353 17.6747235,25.1636965 14.2495921,29.4329714 L13.995602,29.7467239 C13.6407629,30.1949418 13.1029015,30.452667 12.5276886,30.452667 Z" id="形状"></path>
            <path d="M17.8571428,8 L8.14285721,8 C7.51428594,8 7,8.51428594 7,9.14285721 L7,16.5714364 C7,17.2000077 7.51428594,17.7142936 8.14285721,17.7142936 L9.57143374,17.7142936 L9.57143374,19.2857184 L11.8285731,17.7142936 L17.8571428,17.7142936 C18.4857141,17.7142936 19,17.2000077 19,16.5714364 L19,9.14285721 C19,8.51428594 18.4857141,8 17.8571428,8 L17.8571428,8 Z M16.9142852,15.0285746 C16.8571423,15.0857175 16.7714276,15.1142889 16.7142856,15.1142889 C16.6571427,15.1142889 16.5714279,15.0857175 16.5142859,15.0285746 C15.5142851,14.114288 14.1999992,13.6285784 12.800003,13.6285784 C11.4571408,13.6285784 10.171426,14.085721 9.20000143,14.9142933 C9.08571571,15.028579 8.88571513,15.0000076 8.8000008,14.8857219 C8.68571508,14.7714361 8.71428648,14.5714356 8.8285722,14.4857212 C9.91428742,13.5714347 11.3142876,13.0571447 12.7999981,13.0571447 C14.3428559,13.0571447 15.7999994,13.6000017 16.9142856,14.6285695 C17,14.7428552 17,14.9428558 16.9142856,15.0285701 L16.9142852,15.0285746 Z" id="形状" fill="#FFFFFF"></path>
        </g>
    </g>
</svg>