<?xml version="1.0" encoding="UTF-8"?>
<svg width="32px" height="32px" viewBox="0 0 32 32" version="1.1" xmlns="http://www.w3.org/2000/svg" xmlns:xlink="http://www.w3.org/1999/xlink">
    <title>切片</title>
    <g id="设计稿" stroke="none" stroke-width="1" fill="none" fill-rule="evenodd">
        <g id="生态监测站" transform="translate(3.000000, 0.000000)" fill-rule="nonzero">
            <path d="M24.1175224,12.8054505 C24.1175224,6.12700466 19.2692995,1.28251685 12.5945888,1.28251685 C6.24110093,1.28251685 1.07165519,6.45196259 1.07165519,12.8054505 C1.07165519,17.4967972 7.4438188,25.4414584 10.8689501,29.7107333 L11.1229402,30.0244858 C11.4815145,30.4727036 12.0193759,30.7304289 12.5983239,30.7304289 C13.1735368,30.7304289 13.7113982,30.4727036 14.0737077,30.0244858 L14.3276978,29.7107333 C17.7453588,25.4414584 24.1175224,17.4967972 24.1175224,12.8054505 Z" id="形状" fill="#3FD4B4"></path>
            <path d="M12.5945888,0.27776186 C5.68829893,0.27776186 0.0669001975,5.89542544 0.0669001975,12.8054505 C0.0669001975,17.8479012 6.58473461,25.9718495 10.0845689,30.3382383 L10.3348239,30.6519908 C10.8876259,31.3392581 11.7093586,31.7351839 12.5908537,31.7351839 C13.4723487,31.7351839 14.2940814,31.3392581 14.8468834,30.6519908 L15.1008735,30.3382383 C18.604443,25.9718495 25.1185423,17.8479012 25.1185423,12.8054505 C25.1185423,5.54805662 19.8519826,0.27776186 12.5945888,0.27776186 L12.5945888,0.27776186 Z M12.5945888,30.7304289 C12.0193759,30.7304289 11.4815145,30.4727036 11.1192051,30.0244858 L10.865215,29.7107333 C7.44008365,25.4414584 1.06792004,17.4967972 1.06792004,12.8054505 C1.06792004,6.45196259 6.23736578,1.28251685 12.5908537,1.28251685 C19.2692995,1.28251685 24.1137873,6.13073981 24.1137873,12.8054505 C24.1137873,17.4967972 17.7416237,25.4414584 14.3164923,29.7107333 L14.0625022,30.0244858 C13.7076631,30.4727036 13.1698017,30.7304289 12.5945888,30.7304289 Z" id="形状"></path>
            <g id="编组" transform="translate(6.000000, 7.000000)" fill="#FFFFFF">
                <path d="M6.8331403,10.2380931 C6.90164728,10.2465614 6.9616587,10.2880563 6.9937705,10.3491607 C7.00955602,10.3780101 7.39439591,11.0763829 8.20925491,11.1199292 C9.02901285,11.1645641 9.56953055,10.4215564 9.57497383,10.4139358 C9.61358387,10.3601295 9.67509244,10.3274243 9.74129032,10.3255024 C9.80748821,10.3235805 9.87079059,10.3526622 9.9124572,10.4041379 C9.9184448,10.4112141 10.4976098,11.1215622 11.2781761,11.1215622 L11.2781761,11.1215622 L11.3097471,11.1215622 C12.1175299,11.1008777 12.6928846,10.3932513 12.6988722,10.3856307 C12.7742009,10.3017396 12.9019686,10.2913692 12.9898404,10.362014 C13.0777121,10.4326589 13.0950302,10.5596716 13.0292793,10.6512628 C13.0004299,10.6866441 12.3221972,11.5200102 11.3200894,11.544505 L11.3200894,11.544505 L11.2781761,11.5455937 C10.5700054,11.5455937 10.0196898,11.1128529 9.7551464,10.8542971 C9.49604627,11.1264611 8.94790799,11.5804307 8.18693746,11.5423277 C7.45481632,11.5031361 6.99540349,11.0600531 6.77549498,10.7780912 C6.4744816,11.0551541 5.85666932,11.5401504 5.20565305,11.5423277 L5.20565305,11.5423277 C4.50782458,11.5423277 3.74141076,11.0246718 3.4311438,10.7916994 C3.12305417,11.03828 2.35065275,11.5858739 1.63486143,11.5390617 C0.724745029,11.481363 0.0835266592,10.6844668 0.0568545834,10.6501741 C0.00837761826,10.5911964 -0.0044969292,10.5106478 0.0231809528,10.4394978 C0.0508588347,10.3683478 0.114780084,10.3176734 0.19036823,10.3069579 C0.265956375,10.2962424 0.341443392,10.3271541 0.387805998,10.387808 C0.393249282,10.3943399 0.941387565,11.071484 1.6615335,11.1182962 C2.38821137,11.1629311 3.275466,10.3709339 3.28471957,10.3622246 C3.36316838,10.2919884 3.48118503,10.2896744 3.56232684,10.3567813 C3.57158043,10.3638576 4.48006385,11.1199292 5.20129843,11.1199292 L5.20129843,11.1199292 C5.90946914,11.1177519 6.64267895,10.3154124 6.65029954,10.3067031 C6.69632404,10.2552574 6.76463332,10.2296247 6.8331403,10.2380931 Z M6.8331403,8.93061723 C6.90164728,8.9390856 6.9616587,8.98058046 6.9937705,9.0416849 C7.00955602,9.07162294 7.39439591,9.76999575 8.20925491,9.81245334 C9.02901285,9.85708822 9.56953055,9.11408051 9.57497383,9.10645993 C9.61358387,9.05265362 9.67509244,9.01994844 9.74129032,9.01802657 C9.80748821,9.0161047 9.87079059,9.04518632 9.9124572,9.09666202 C9.9184448,9.10373829 10.4976098,9.81408632 11.2781761,9.81408632 L11.2781761,9.81408632 L11.3097471,9.81408632 C12.1175299,9.79449051 12.6928846,9.08577547 12.6988722,9.07924353 C12.771686,8.98808748 12.9044152,8.97277258 12.9960753,9.04495087 C13.0872335,9.11812992 13.1020771,9.25123528 13.0292793,9.34269828 C13.0004299,9.3780796 12.3221972,10.2114458 11.3200894,10.2359405 C11.3059368,10.2370292 11.2917843,10.2370292 11.2781761,10.2370292 C10.5700054,10.2370292 10.0196898,9.80428842 9.7551464,9.54573262 C9.49604627,9.81789662 8.94790799,10.2729548 8.18693746,10.2337632 C7.45481632,10.1945716 6.99540349,9.75257726 6.77549498,9.4695267 C6.4744816,9.74658964 5.85666932,10.2315859 5.20565305,10.2337632 L5.20565305,10.2337632 C4.50782458,10.2337632 3.74141076,9.71610728 3.4311438,9.48313491 C3.12305417,9.72971547 2.35065275,10.2773094 1.63486143,10.2315859 C0.724745029,10.1727985 0.0835266592,9.37535796 0.0568545834,9.34269828 C0.00837771345,9.28372054 -0.00449676879,9.20317205 0.0231811173,9.13202209 C0.0508590033,9.06087214 0.114780201,9.01019777 0.19036829,8.99948226 C0.265956379,8.98876675 0.341443359,9.01967835 0.387805998,9.08033218 C0.393249282,9.08795278 0.941387565,9.7650968 1.6615335,9.81082035 C2.38821137,9.85545525 3.275466,9.06345802 3.28471957,9.05474877 C3.36307735,8.98428164 3.48126693,8.98196419 3.56232684,9.04930549 C3.57158043,9.05747041 4.48006385,9.81245334 5.20129843,9.81245334 L5.20129843,9.81245334 C5.90946914,9.81027602 6.64267895,9.00793657 6.65029954,8.99922732 C6.69632404,8.94778157 6.76463332,8.92214885 6.8331403,8.93061723 Z M3.93736884,8.60676683 L3.93736884,4.94942706 L4.53612962,4.94942706 L4.53612962,4.36808477 L2.35283005,4.36808477 L2.35283005,4.94942706 L2.91620952,4.94942706 L2.91620952,8.60676683 L3.93736884,8.60676683 Z M7.20823574,8.60676683 L7.20823574,4.94942706 L7.80699652,4.94942706 L7.80699652,4.36808477 L5.62424128,4.36808477 L5.62424128,4.94942706 L6.18762075,4.94942706 L6.18762075,8.60676683 L7.20823574,8.60676683 Z M10.4791026,8.60676683 L10.4791026,4.94942706 L11.0778634,4.94942706 L11.0778634,4.36808477 L8.89456385,4.36808477 L8.89456385,4.94942706 L9.45848765,4.94942706 L9.45848765,8.60676683 L10.4791026,8.60676683 Z M11.7860341,3.84879586 L6.977985,0.0101948754 L6.45270848,0.0101948754 L1.64465934,3.84879586 L1.64465934,3.98106757 L11.7860341,3.98106757 L11.7860341,3.84879586 Z M6.66336341,3.17981697 C6.39460633,3.18001124 6.14616081,3.03681075 6.01161385,2.80415753 C5.8770669,2.57150431 5.8768594,2.28474392 6.01106953,2.05189624 C6.14527965,1.81904855 6.39351768,1.67548866 6.66227476,1.67529399 C7.07773719,1.67499357 7.41477974,2.01154872 7.41508057,2.42701116 C7.41538099,2.84247359 7.07882584,3.17951615 6.66336341,3.17981697 L6.66336341,3.17981697 Z" id="形状"></path>
            </g>
        </g>
    </g>
</svg>