<?xml version="1.0" encoding="UTF-8"?>
<svg width="32px" height="32px" viewBox="0 0 32 32" version="1.1" xmlns="http://www.w3.org/2000/svg" xmlns:xlink="http://www.w3.org/1999/xlink">
    <!-- Generator: Sketch 59 (86127) - https://sketch.com -->
    <title>切片</title>
    <desc>Created with Sketch.</desc>
    <g id="设计稿" stroke="none" stroke-width="1" fill="none" fill-rule="evenodd">
        <g id="事件告警" transform="translate(3.000000, 0.000000)" fill-rule="nonzero">
            <path d="M24.1175224,12.8054505 C24.1175224,6.12700466 19.2692995,1.28251685 12.5945888,1.28251685 C6.24110093,1.28251685 1.07165519,6.45196259 1.07165519,12.8054505 C1.07165519,17.4967972 7.4438188,25.4414584 10.8689501,29.7107333 L11.1229402,30.0244858 C11.4815145,30.4727036 12.0193759,30.7304289 12.5983239,30.7304289 C13.1735368,30.7304289 13.7113982,30.4727036 14.0737077,30.0244858 L14.3276978,29.7107333 C17.7453588,25.4414584 24.1175224,17.4967972 24.1175224,12.8054505 Z" id="形状" fill="#FF121E"></path>
            <path d="M12.5945888,0.27776186 C5.68829893,0.27776186 0.0669001975,5.89542544 0.0669001975,12.8054505 C0.0669001975,17.8479012 6.58473461,25.9718495 10.0845689,30.3382383 L10.3348239,30.6519908 C10.8876259,31.3392581 11.7093586,31.7351839 12.5908537,31.7351839 C13.4723487,31.7351839 14.2940814,31.3392581 14.8468834,30.6519908 L15.1008735,30.3382383 C18.604443,25.9718495 25.1185423,17.8479012 25.1185423,12.8054505 C25.1185423,5.54805662 19.8519826,0.27776186 12.5945888,0.27776186 L12.5945888,0.27776186 Z M12.5945888,30.7304289 C12.0193759,30.7304289 11.4815145,30.4727036 11.1192051,30.0244858 L10.865215,29.7107333 C7.44008365,25.4414584 1.06792004,17.4967972 1.06792004,12.8054505 C1.06792004,6.45196259 6.23736578,1.28251685 12.5908537,1.28251685 C19.2692995,1.28251685 24.1137873,6.13073981 24.1137873,12.8054505 C24.1137873,17.4967972 17.7416237,25.4414584 14.3164923,29.7107333 L14.0625022,30.0244858 C13.7076631,30.4727036 13.1698017,30.7304289 12.5945888,30.7304289 Z" id="形状"></path>
            <path d="M12.3086102,6.19921968 L13.5378778,6.19921968 L13.5378778,7.77971249 L12.3086102,7.77971249 L12.3086102,6.19921968 Z M9.18217128,7.36175529 L10.2463656,6.74712083 L11.0366093,8.11570704 L9.97241502,8.7303415 L9.18217128,7.36175529 Z M7.05202533,9.91278111 L7.66665979,8.8485868 L9.03583267,9.63883053 L8.4211982,10.7030248 L7.05202533,9.91278111 Z M16.7328088,9.67687852 L18.101395,8.88663478 L18.7160294,9.9508291 L17.3474432,10.7410728 L16.7328088,9.67687852 Z M14.7571961,8.14731903 L15.5474398,6.77931949 L16.6128048,7.39395395 L15.8219757,8.76254016 L14.7571961,8.14731903 Z M18.2793416,17.0284894 L16.8744621,17.0284894 L16.8744621,12.6382509 C16.8744621,10.4138649 15.0598227,8.65775886 12.89397,8.65775886 C10.6695841,8.65775886 8.91347804,10.4723983 8.91347804,12.6382509 L8.91347804,17.0284894 L7.50859851,17.0284894 C7.39152535,17.0284894 7.33298923,17.1455626 7.33298923,17.2040987 L7.33298923,18.0236104 C7.33298923,18.1406836 7.45006239,18.1992197 7.50859851,18.1992197 L18.3378616,18.1992197 C18.4549347,18.1992197 18.5134708,18.0821465 18.5134708,18.0236104 L18.5134708,17.2040987 C18.5134708,17.0870255 18.3963977,17.0284894 18.2793243,17.0284894 L18.2793416,17.0284894 Z M14.5329962,12.5797042 L12.5427568,14.9797034 C12.5427568,14.9797034 12.4842203,15.0382399 12.4256837,15.0382399 C12.3671472,15.0382399 12.3086105,14.9797034 12.3671472,14.9211668 L12.6012937,13.2236073 L11.3134888,13.2236073 L11.2549523,13.2236073 C11.1964158,13.1650708 11.1964158,13.1065342 11.2549523,13.1065342 L13.3037383,10.706535 C13.3037383,10.706535 13.3622748,10.6479985 13.4208115,10.6479985 C13.479348,10.6479985 13.5378846,10.706535 13.479348,10.7650716 L13.2452014,12.4040977 L14.5915476,12.4040977 C14.5915476,12.4626343 14.5915476,12.5211709 14.5330111,12.579707 L14.5329962,12.5797042 Z" id="形状" fill="#FFFFFF"></path>
        </g>
    </g>
</svg>