<?xml version="1.0" encoding="UTF-8"?>
<svg width="32px" height="32px" viewBox="0 0 32 32" version="1.1" xmlns="http://www.w3.org/2000/svg" xmlns:xlink="http://www.w3.org/1999/xlink">
    <!-- Generator: Sketch 59 (86127) - https://sketch.com -->
    <title> </title>
    <desc>Created with Sketch.</desc>
    <g id="设计稿" stroke="none" stroke-width="1" fill="none" fill-rule="evenodd">
        <g id="取水口" transform="translate(3.000000, 0.000000)" fill-rule="nonzero">
            <path d="M24.1175224,12.8054505 C24.1175224,6.12700466 19.2692995,1.28251685 12.5945888,1.28251685 C6.24110093,1.28251685 1.07165519,6.45196259 1.07165519,12.8054505 C1.07165519,17.4967972 7.4438188,25.4414584 10.8689501,29.7107333 L11.1229402,30.0244858 C11.4815145,30.4727036 12.0193759,30.7304289 12.5983239,30.7304289 C13.1735368,30.7304289 13.7113982,30.4727036 14.0737077,30.0244858 L14.3276978,29.7107333 C17.7453588,25.4414584 24.1175224,17.4967972 24.1175224,12.8054505 Z" id="形状" fill="#3365FE"></path>
            <path d="M12.5945888,0.27776186 C5.68829893,0.27776186 0.0669001975,5.89542544 0.0669001975,12.8054505 C0.0669001975,17.8479012 6.58473461,25.9718495 10.0845689,30.3382383 L10.3348239,30.6519908 C10.8876259,31.3392581 11.7093586,31.7351839 12.5908537,31.7351839 C13.4723487,31.7351839 14.2940814,31.3392581 14.8468834,30.6519908 L15.1008735,30.3382383 C18.604443,25.9718495 25.1185423,17.8479012 25.1185423,12.8054505 C25.1185423,5.54805662 19.8519826,0.27776186 12.5945888,0.27776186 L12.5945888,0.27776186 Z M12.5945888,30.7304289 C12.0193759,30.7304289 11.4815145,30.4727036 11.1192051,30.0244858 L10.865215,29.7107333 C7.44008365,25.4414584 1.06792004,17.4967972 1.06792004,12.8054505 C1.06792004,6.45196259 6.23736578,1.28251685 12.5908537,1.28251685 C19.2692995,1.28251685 24.1137873,6.13073981 24.1137873,12.8054505 C24.1137873,17.4967972 17.7416237,25.4414584 14.3164923,29.7107333 L14.0625022,30.0244858 C13.7076631,30.4727036 13.1698017,30.7304289 12.5945888,30.7304289 Z" id="形状"></path>
            <path d="M12.8076243,19.1275256 C12.8076243,19.1275256 12.0134177,19.8135941 12.0101234,20.418738 C12.0065427,21.023882 12.4717515,21.2705229 12.8076243,21.2705229 C13.0804762,21.2705229 13.6364925,21.054533 13.6225992,20.4532563 C13.6084195,19.8521228 12.8076243,19.1275256 12.8076243,19.1275256 L12.8076243,19.1275256 Z M9.81670939,16.5993846 C9.81670939,16.5993846 9.02293243,17.2851667 9.0193517,17.8905971 C9.01562773,18.495741 9.48112307,18.7423819 9.81670939,18.7423819 C10.0895613,18.7423819 10.6455775,18.5265353 10.6316843,17.9254018 C10.6176478,17.324125 9.81670939,16.5993846 9.81670939,16.5993846 L9.81670939,16.5993846 Z M9.81670939,19.1275256 C9.81670939,19.1275256 9.02293243,19.8135941 9.0193517,20.418738 C9.01562773,21.023882 9.48112307,21.2705229 9.81670939,21.2705229 C10.0895613,21.2705229 10.6455775,21.054533 10.6316843,20.4532563 C10.6176478,19.8521228 9.81670939,19.1275256 9.81670939,19.1275256 L9.81670939,19.1275256 Z M19.9546248,13.3692767 L19.9546248,10.0770072 L11.0556431,10.0770072 C10.0125039,10.0770072 9.41953445,11.0356412 9.41953445,12.052283 L9.41953445,14.6861272 C8.34416862,14.8019997 8.10268396,14.6861272 8.10268396,14.6861272 L8.10268396,16.0029777 L14.0286544,16.0029777 L14.0286544,14.6861272 L12.7116607,14.6861272 L12.7116607,13.3692767 L19.9546248,13.3692767 Z M12.8076243,16.5993846 C12.8076243,16.5993846 12.0134177,17.2851667 12.0101234,17.8905971 C12.0065427,18.495741 12.4717515,18.7423819 12.8076243,18.7423819 C13.0804762,18.7423819 13.6364925,18.5265353 13.6225992,17.9254018 C13.6084195,17.324125 12.8076243,16.5993846 12.8076243,16.5993846 Z" id="形状" fill="#FFFFFF"></path>
        </g>
    </g>
</svg>