<?xml version="1.0" encoding="UTF-8"?>
<svg width="32px" height="32px" viewBox="0 0 32 32" version="1.1" xmlns="http://www.w3.org/2000/svg" xmlns:xlink="http://www.w3.org/1999/xlink">
    <!-- Generator: Sketch 59 (86127) - https://sketch.com -->
    <title>切片</title>
    <desc>Created with Sketch.</desc>
    <g id="设计稿" stroke="none" stroke-width="1" fill="none" fill-rule="evenodd">
        <g id="排污口" transform="translate(3.000000, 0.000000)" fill-rule="nonzero">
            <path d="M24.1175224,12.8054505 C24.1175224,6.12700466 19.2692995,1.28251685 12.5945888,1.28251685 C6.24110093,1.28251685 1.07165519,6.45196259 1.07165519,12.8054505 C1.07165519,17.4967972 7.4438188,25.4414584 10.8689501,29.7107333 L11.1229402,30.0244858 C11.4815145,30.4727036 12.0193759,30.7304289 12.5983239,30.7304289 C13.1735368,30.7304289 13.7113982,30.4727036 14.0737077,30.0244858 L14.3276978,29.7107333 C17.7453588,25.4414584 24.1175224,17.4967972 24.1175224,12.8054505 Z" id="形状" fill="#506485"></path>
            <path d="M12.5945888,0.27776186 C5.68829893,0.27776186 0.0669001975,5.89542544 0.0669001975,12.8054505 C0.0669001975,17.8479012 6.58473461,25.9718495 10.0845689,30.3382383 L10.3348239,30.6519908 C10.8876259,31.3392581 11.7093586,31.7351839 12.5908537,31.7351839 C13.4723487,31.7351839 14.2940814,31.3392581 14.8468834,30.6519908 L15.1008735,30.3382383 C18.604443,25.9718495 25.1185423,17.8479012 25.1185423,12.8054505 C25.1185423,5.54805662 19.8519826,0.27776186 12.5945888,0.27776186 L12.5945888,0.27776186 Z M12.5945888,30.7304289 C12.0193759,30.7304289 11.4815145,30.4727036 11.1192051,30.0244858 L10.865215,29.7107333 C7.44008365,25.4414584 1.06792004,17.4967972 1.06792004,12.8054505 C1.06792004,6.45196259 6.23736578,1.28251685 12.5908537,1.28251685 C19.2692995,1.28251685 24.1137873,6.13073981 24.1137873,12.8054505 C24.1137873,17.4967972 17.7416237,25.4414584 14.3164923,29.7107333 L14.0625022,30.0244858 C13.7076631,30.4727036 13.1698017,30.7304289 12.5945888,30.7304289 Z" id="形状"></path>
            <path d="M16.5372591,9.13525801 C15.5195519,7.90341181 13.920387,7.22785805 12.3193464,7.22332518 C11.119074,7.22613868 9.92817993,7.59783393 8.97221352,8.31559027 C8.05469833,9.00396112 7.38055132,9.9750892 7.11279944,11.0811092 C6.70265296,12.7782778 7.45088894,14.9645274 9.65464474,15.8900142 L9.65464474,21.2233252 L14.9881121,21.2233252 L14.9881121,15.8900142 C16.4400368,15.228059 17.5923234,13.6168586 17.6512507,12.3118613 C17.6992366,11.1526973 17.2750226,10.0274517 16.5372591,9.13525801 Z M16.5603923,12.9583421 C16.3772019,13.1376249 16.2122993,13.3045595 15.9465794,13.2381296 C15.8165329,13.2057743 15.7340034,13.1144917 15.641783,13.0218023 C15.4359282,12.8101642 15.1722403,12.6801178 14.8924529,12.6522953 C14.6489284,12.6293184 14.4043098,12.6818371 14.1864195,12.8037557 C13.9865043,12.9089495 13.8731826,13.1252768 13.6565427,13.1871739 C13.5189936,13.2284386 13.3719098,13.1970211 13.2581192,13.1021435 C13.058204,12.9305197 12.9015856,12.7712441 12.6499332,12.68637 C12.1800779,12.5302205 11.7131924,12.7373257 11.3705701,13.0929215 C11.2517776,13.2104634 11.1034434,13.2335967 10.9538587,13.2243747 C10.8084943,13.2089004 10.7022064,13.0790102 10.5987319,12.9800687 C10.1946814,12.5843023 9.62557186,12.5472578 9.15587286,12.8037557 C8.98393645,12.8995712 8.87342824,13.1068327 8.70289858,13.1871739 C8.51830141,13.2690781 8.29884803,13.2536038 8.15192056,13.1021435 L7.65142931,12.5843023 C7.64173835,11.752599 7.91996271,10.9101106 8.31557275,10.2206456 C8.75948129,9.46865833 9.37548254,8.86015976 10.1008979,8.45673443 C11.6347269,7.58486055 13.5404075,7.72240967 14.9818598,8.74121103 C15.5745715,9.16323675 16.0709988,9.73828588 16.4247189,10.4107135 C16.6050958,10.743176 16.7351422,11.1017416 16.8315829,11.4742184 C16.8847269,11.6705385 16.9238034,11.8699847 16.9489686,12.0647418 C16.9685068,12.2022909 16.9950788,12.3893889 16.9950788,12.5424124 L16.5603923,12.9583421 L16.5603923,12.9583421 Z" id="形状" fill="#FFFFFF"></path>
        </g>
    </g>
</svg>