<?xml version="1.0" encoding="UTF-8"?>
<svg width="32px" height="32px" viewBox="0 0 32 32" version="1.1" xmlns="http://www.w3.org/2000/svg" xmlns:xlink="http://www.w3.org/1999/xlink">
    <!-- Generator: Sketch 59 (86127) - https://sketch.com -->
    <title>切片</title>
    <desc>Created with Sketch.</desc>
    <g id="设计稿" stroke="none" stroke-width="1" fill="none" fill-rule="evenodd">
        <g id="污染源" transform="translate(3.000000, 0.000000)" fill-rule="nonzero">
            <path d="M24.1175224,12.8054505 C24.1175224,6.12700466 19.2692995,1.28251685 12.5945888,1.28251685 C6.24110093,1.28251685 1.07165519,6.45196259 1.07165519,12.8054505 C1.07165519,17.4967972 7.4438188,25.4414584 10.8689501,29.7107333 L11.1229402,30.0244858 C11.4815145,30.4727036 12.0193759,30.7304289 12.5983239,30.7304289 C13.1735368,30.7304289 13.7113982,30.4727036 14.0737077,30.0244858 L14.3276978,29.7107333 C17.7453588,25.4414584 24.1175224,17.4967972 24.1175224,12.8054505 Z" id="形状" fill="#506485"></path>
            <path d="M12.5945888,0.27776186 C5.68829893,0.27776186 0.0669001975,5.89542544 0.0669001975,12.8054505 C0.0669001975,17.8479012 6.58473461,25.9718495 10.0845689,30.3382383 L10.3348239,30.6519908 C10.8876259,31.3392581 11.7093586,31.7351839 12.5908537,31.7351839 C13.4723487,31.7351839 14.2940814,31.3392581 14.8468834,30.6519908 L15.1008735,30.3382383 C18.604443,25.9718495 25.1185423,17.8479012 25.1185423,12.8054505 C25.1185423,5.54805662 19.8519826,0.27776186 12.5945888,0.27776186 L12.5945888,0.27776186 Z M12.5945888,30.7304289 C12.0193759,30.7304289 11.4815145,30.4727036 11.1192051,30.0244858 L10.865215,29.7107333 C7.44008365,25.4414584 1.06792004,17.4967972 1.06792004,12.8054505 C1.06792004,6.45196259 6.23736578,1.28251685 12.5908537,1.28251685 C19.2692995,1.28251685 24.1137873,6.13073981 24.1137873,12.8054505 C24.1137873,17.4967972 17.7416237,25.4414584 14.3164923,29.7107333 L14.0625022,30.0244858 C13.7076631,30.4727036 13.1698017,30.7304289 12.5945888,30.7304289 Z" id="形状"></path>
            <path d="M9.29727688,9.92000456 L15.8072845,9.92000456 L15.8072845,10.6200054 L9.29727688,10.6200054 L9.29727688,9.92000456 Z M17.7672867,18.7400148 L15.8072845,13.2800085 L15.8072845,10.7600055 L9.29727688,10.7600055 L9.29727688,13.2100084 L7.3372746,18.6700147 C7.26727452,18.880015 7.3372746,19.0200152 7.54727485,19.0900152 C8.31727574,19.4400156 10.277278,20.0000163 12.5172806,20.0000163 C14.7572832,20.0000163 16.7872856,19.4400156 17.4872864,19.1600153 C17.6972867,19.0900152 17.8372868,18.880015 17.7672867,18.7400148 Z M12.5172806,17.6200135 C11.8172798,17.6200135 11.2572792,17.0600129 11.2572792,16.3600121 C11.2572792,16.1500118 11.3972793,15.8700115 11.6072796,15.450011 C11.6772797,15.3100108 11.8172798,15.1000106 11.95728,14.9600104 C12.0972801,14.7500102 12.2372803,14.5400099 12.4472805,14.3300097 L12.5872807,14.1900095 L12.7272809,14.3300097 C12.867281,14.5400099 13.0772813,14.7500102 13.2172814,14.9600104 C13.3572816,15.1000106 13.4272817,15.3100108 13.5672819,15.450011 C13.7772821,15.8000114 13.9172823,16.1500118 13.9172823,16.3600121 C13.7772821,17.0600129 13.2172814,17.6200135 12.5172806,17.6200135 L12.5172806,17.6200135 Z M10.2072779,9.0100035 C10.277278,8.94000342 10.3472781,8.80000326 10.4172782,8.73000318 C10.5572783,8.59000301 10.8372787,8.45000285 11.0472789,8.31000269 L11.1872791,8.24000261 C11.2572792,8.24000261 11.2572792,8.17000253 11.3272792,8.17000253 C11.3272792,8.10000244 11.3972793,8.10000244 11.3972793,8.10000244 C11.5372795,7.96000228 11.6772797,7.8900022 11.7472797,7.68000195 C11.8172798,7.61000187 11.8172798,7.47000171 11.7472797,7.33000155 C11.7472797,7.26000147 11.6772797,7.19000138 11.5372795,7.1200013 C11.3972793,7.05000122 11.2572792,7.05000122 11.117279,7.05000122 C11.2572792,7.1200013 11.3972793,7.19000138 11.4672794,7.33000155 L11.4672794,7.40000163 L11.3972793,7.47000171 C11.3972793,7.54000179 11.2572792,7.61000187 11.1872791,7.68000195 L11.0472789,7.75000204 L10.9772788,7.82000212 C10.9072788,7.82000212 10.8372787,7.8900022 10.7672786,7.8900022 C10.5572783,8.03000236 10.277278,8.24000261 10.1372779,8.52000293 C10.0672778,8.6600031 9.9972777,8.87000334 9.9972777,9.0100035 C9.9972777,9.15000367 10.1372779,9.36000391 10.277278,9.43000399 C10.2072779,9.29000383 10.2072779,9.15000367 10.2072779,9.0100035 L10.2072779,9.0100035 Z M13.5672819,9.0100035 C13.6372819,8.80000326 13.7772821,8.6600031 13.9872823,8.52000293 C14.3372827,8.24000261 14.7572832,8.10000244 15.2472838,7.96000228 C15.387284,7.96000228 15.457284,7.8900022 15.5972842,7.8900022 C15.6672843,7.8900022 15.7372844,7.82000212 15.8072845,7.82000212 C15.8772845,7.82000212 15.9472846,7.75000204 16.0172847,7.75000204 C16.2272849,7.61000187 16.5072853,7.47000171 16.7172855,7.26000147 C16.7872856,7.1200013 16.9272858,6.98000114 16.8572857,6.7700009 C16.8572857,6.56000065 16.7172855,6.42000049 16.5772854,6.35000041 C16.3672851,6.14000016 16.0872848,6.07000008 15.8772845,6.07000008 C16.0872848,6.21000024 16.297285,6.42000049 16.3672851,6.56000065 C16.4372852,6.63000073 16.4372852,6.7700009 16.4372852,6.7700009 C16.4372852,6.84000098 16.3672851,6.91000106 16.297285,6.91000106 C16.1572849,7.05000122 15.9472846,7.1200013 15.7372844,7.19000138 L15.5972842,7.26000147 C15.5272841,7.26000147 15.457284,7.33000155 15.457284,7.33000155 C15.3172839,7.33000155 15.1772837,7.40000163 15.0372836,7.40000163 C14.547283,7.54000179 14.0572824,7.75000204 13.6372819,8.17000253 C13.4272817,8.38000277 13.2872815,8.6600031 13.2172814,8.94000342 C13.1472814,9.22000375 13.2872815,9.50000407 13.4272817,9.71000432 C13.4272817,9.43000399 13.4272817,9.22000375 13.5672819,9.0100035 Z" id="形状" fill="#FFFFFF"></path>
        </g>
    </g>
</svg>