<?xml version="1.0" encoding="UTF-8"?>
<svg width="32px" height="32px" viewBox="0 0 32 32" version="1.1" xmlns="http://www.w3.org/2000/svg" xmlns:xlink="http://www.w3.org/1999/xlink">
    <!-- Generator: Sketch 59 (86127) - https://sketch.com -->
    <title>切片</title>
    <desc>Created with Sketch.</desc>
    <g id="设计稿" stroke="none" stroke-width="1" fill="none" fill-rule="evenodd">
        <g id="重点工程" transform="translate(3.000000, 0.000000)" fill-rule="nonzero">
            <path d="M24.1175224,12.8054505 C24.1175224,6.12700466 19.2692995,1.28251685 12.5945888,1.28251685 C6.24110093,1.28251685 1.07165519,6.45196259 1.07165519,12.8054505 C1.07165519,17.4967972 7.4438188,25.4414584 10.8689501,29.7107333 L11.1229402,30.0244858 C11.4815145,30.4727036 12.0193759,30.7304289 12.5983239,30.7304289 C13.1735368,30.7304289 13.7113982,30.4727036 14.0737077,30.0244858 L14.3276978,29.7107333 C17.7453588,25.4414584 24.1175224,17.4967972 24.1175224,12.8054505 Z" id="形状" fill="#FFA010"></path>
            <path d="M12.5945888,0.27776186 C5.68829893,0.27776186 0.0669001975,5.89542544 0.0669001975,12.8054505 C0.0669001975,17.8479012 6.58473461,25.9718495 10.0845689,30.3382383 L10.3348239,30.6519908 C10.8876259,31.3392581 11.7093586,31.7351839 12.5908537,31.7351839 C13.4723487,31.7351839 14.2940814,31.3392581 14.8468834,30.6519908 L15.1008735,30.3382383 C18.604443,25.9718495 25.1185423,17.8479012 25.1185423,12.8054505 C25.1185423,5.54805662 19.8519826,0.27776186 12.5945888,0.27776186 L12.5945888,0.27776186 Z M12.5945888,30.7304289 C12.0193759,30.7304289 11.4815145,30.4727036 11.1192051,30.0244858 L10.865215,29.7107333 C7.44008365,25.4414584 1.06792004,17.4967972 1.06792004,12.8054505 C1.06792004,6.45196259 6.23736578,1.28251685 12.5908537,1.28251685 C19.2692995,1.28251685 24.1137873,6.13073981 24.1137873,12.8054505 C24.1137873,17.4967972 17.7416237,25.4414584 14.3164923,29.7107333 L14.0625022,30.0244858 C13.7076631,30.4727036 13.1698017,30.7304289 12.5945888,30.7304289 Z" id="形状"></path>
            <path d="M19.7028992,18.2116036 L19.7028992,18.2116036 C19.8728969,18.2324732 20.0004821,18.3770917 19.9999986,18.5483644 C19.9999986,18.7361934 19.8483326,18.8882408 19.6605037,18.8882408 L12.4079077,18.8882408 L12.4079077,8.07967631 C12.4079077,8.04235296 12.4390211,8.0108461 12.4763551,8.0108461 L16.1022703,8.0108461 C16.1395936,8.0108461 16.1711005,8.04195952 16.1711005,8.07967631 L16.1711005,14.4794711 C16.1726529,14.6875248 16.2445988,17.8277261 19.7029098,18.2115505 L19.7028992,18.2116036 Z M6.07573088,15.6648116 L12.4871905,15.6648116 L12.4871905,16.2710768 L6.07573088,16.2710768 L6.07573088,15.6648116 Z M6.68160256,15.6718084 L6.68160256,18.8886342 L6.074944,18.8886342 L6.074944,15.6718084 L6.68160256,15.6718084 L6.68160256,15.6718084 Z M12.4875733,18.8878474 L6.18694594,18.8878474 L6.18694594,18.8878474 C6.12575745,18.887639 6.07614558,18.8382024 6.07572024,18.7770151 L6.07572024,18.3931908 C6.07572024,18.3321336 6.12588878,18.2819651 6.18694594,18.2819651 L12.4867971,18.2819651 L12.4867971,18.8886342 L12.4875733,18.8878474 Z M6.21921841,14.4200089 C7.31431302,14.4250704 7.07476307,13.1110441 7.59118632,13.1110441 C8.17606761,13.1110441 7.97268196,14.4530683 8.86749588,14.431291 C9.78252396,14.4091309 9.62270348,13.1110441 10.1329062,13.1168819 C10.6804535,13.1110441 10.4533446,14.4764087 11.4733779,14.4157343 C12.4945808,14.3558468 12.4070783,13.2864319 12.4070783,13.2864319 L12.4070783,14.7552279 C12.4070783,14.7552279 12.0240301,15.0433939 11.482714,15.0904468 C10.9413979,15.1374997 10.3187892,14.6175675 10.1749082,14.3780175 C9.88713567,14.6972863 9.46792325,15.0951306 8.86127533,15.0951306 C8.32461665,15.0982198 7.76619134,14.6393447 7.62229974,14.3671289 C7.31897047,14.7019544 7.03276101,15.0593334 6.21921841,15.0262847 C5.82994973,14.8240581 6.04267154,14.4985687 6.21921841,14.4200196 L6.21921841,14.4200089 Z M6.21921841,11.8642955 C7.31431302,11.8689742 7.07476307,10.5549372 7.59118632,10.5549372 C8.17606761,10.5549372 7.97268196,11.8969614 8.86749588,11.8751841 C9.78252396,11.8534068 9.62270348,10.5549372 10.1329062,10.560775 C10.6804535,10.5549372 10.4533446,11.9206846 11.4733779,11.8596274 C12.4930176,11.7985809 12.4070783,10.730325 12.4070783,10.730325 L12.4070783,12.1995144 C12.4070783,12.1995144 12.0240301,12.487287 11.482714,12.5343399 C10.9398348,12.5829453 10.3187892,12.0614606 10.1749082,11.8219106 C9.88713567,12.1415728 9.46792325,12.5394066 8.86127533,12.5394066 C8.32461665,12.5425064 7.76619134,12.0836313 7.62229974,11.811022 C7.31897047,12.1462409 7.03276101,12.5032265 6.21921841,12.4701778 C5.82994973,12.2698971 6.04267154,11.9440143 6.21921841,11.8642955 L6.21921841,11.8642955 Z M6.21921841,9.30935827 C7.31469583,9.31440915 7.07514587,8 7.59156913,8 C8.17645041,8 7.97307539,9.34241761 8.86787869,9.3202469 C9.7829174,9.29886307 9.62308629,8 10.1332996,8.00622056 C10.6808363,8 10.4537381,9.36575799 11.4737713,9.30469019 C12.4934111,9.24363303 12.4074717,8.17499439 12.4074717,8.17499439 L12.4074717,9.64496001 C12.4074717,9.64496001 12.0244236,9.93273258 11.4831075,9.98017895 C10.9402282,10.0287844 10.319172,9.50690617 10.1753017,9.26735621 C9.8875291,9.58701844 9.46831668,9.9848627 8.86165813,9.9848627 C8.32501009,9.98795199 7.76657415,9.52907687 7.62269318,9.25646758 C7.3193639,9.59168652 7.03314382,9.94867209 6.21961184,9.91600619 C5.83034317,9.71379022 6.04306497,9.38790743 6.21961184,9.30935827 L6.21921841,9.30935827 Z" id="形状" fill="#FFFFFF"></path>
        </g>
    </g>
</svg>