<?xml version="1.0" encoding="UTF-8"?>
<svg width="32px" height="32px" viewBox="0 0 32 32" version="1.1" xmlns="http://www.w3.org/2000/svg" xmlns:xlink="http://www.w3.org/1999/xlink">
    <!-- Generator: Sketch 59 (86127) - https://sketch.com -->
    <title>切片</title>
    <desc>Created with Sketch.</desc>
    <g id="设计稿" stroke="none" stroke-width="1" fill="none" fill-rule="evenodd">
        <g id="雨情" transform="translate(3.000000, 0.000000)" fill-rule="nonzero">
            <path d="M24.1175224,12.8054505 C24.1175224,6.12700466 19.2692995,1.28251685 12.5945888,1.28251685 C6.24110093,1.28251685 1.07165519,6.45196259 1.07165519,12.8054505 C1.07165519,17.4967972 7.4438188,25.4414584 10.8689501,29.7107333 L11.1229402,30.0244858 C11.4815145,30.4727036 12.0193759,30.7304289 12.5983239,30.7304289 C13.1735368,30.7304289 13.7113982,30.4727036 14.0737077,30.0244858 L14.3276978,29.7107333 C17.7453588,25.4414584 24.1175224,17.4967972 24.1175224,12.8054505 Z" id="形状" fill="#00BFFF"></path>
            <path d="M12.5945888,0.27776186 C5.68829893,0.27776186 0.0669001975,5.89542544 0.0669001975,12.8054505 C0.0669001975,17.8479012 6.58473461,25.9718495 10.0845689,30.3382383 L10.3348239,30.6519908 C10.8876259,31.3392581 11.7093586,31.7351839 12.5908537,31.7351839 C13.4723487,31.7351839 14.2940814,31.3392581 14.8468834,30.6519908 L15.1008735,30.3382383 C18.604443,25.9718495 25.1185423,17.8479012 25.1185423,12.8054505 C25.1185423,5.54805662 19.8519826,0.27776186 12.5945888,0.27776186 L12.5945888,0.27776186 Z M12.5945888,30.7304289 C12.0193759,30.7304289 11.4815145,30.4727036 11.1192051,30.0244858 L10.865215,29.7107333 C7.44008365,25.4414584 1.06792004,17.4967972 1.06792004,12.8054505 C1.06792004,6.45196259 6.23736578,1.28251685 12.5908537,1.28251685 C19.2692995,1.28251685 24.1137873,6.13073981 24.1137873,12.8054505 C24.1137873,17.4967972 17.7416237,25.4414584 14.3164923,29.7107333 L14.0625022,30.0244858 C13.7076631,30.4727036 13.1698017,30.7304289 12.5945888,30.7304289 Z" id="形状"></path>
            <path d="M15.9551862,15.9701186 C15.4298153,15.9701186 14.9104139,15.8328052 14.4566845,15.5701197 C13.9253428,15.8626564 13.4596731,15.9701186 12.7790848,15.9701186 C12.0566992,15.9701186 11.3880442,15.773104 10.7432661,15.361166 C10.3372976,15.6835527 9.8298365,15.8566869 9.31043628,15.8507162 C8.03283323,15.8507162 7,14.8298244 7,13.5701276 C7.00597012,12.4955052 7.75223564,11.5701331 8.80297866,11.3432695 C9.07163483,9.42088837 10.7313247,8 12.7790848,8 C14.2537038,8 15.6089202,8.79999663 16.3193702,10.0895493 C17.7939891,10.268653 18.94026,11.5164142 18.94026,13.0208808 C18.94026,14.6447499 17.6029498,15.9701186 15.9551979,15.9701186 L15.9551862,15.9701186 Z M10.5701331,19.0327941 C10.5641629,19.5701053 10.1223732,20.0059249 9.58506199,19.9999542 C9.05372036,19.9939841 8.62387142,19.5641346 8.61790188,19.0327941 C8.61790188,18.286528 9.52536075,17.2536983 9.59700224,16.7283227 C9.65670348,17.2656338 10.5701331,18.2566721 10.5701331,19.0327941 Z M13.9372854,19.0327941 C13.9313153,19.5701053 13.4895255,20.0059249 12.9522143,19.9999542 C12.4208727,19.9939841 11.9910238,19.5641346 11.9850542,19.0327941 C11.9850542,18.286528 12.8925131,17.2536983 12.9641546,16.7283227 C13.0238558,17.2656338 13.9372854,18.2566721 13.9372854,19.0327941 Z M17.2984612,19.0327941 C17.2924911,19.5701053 16.8507013,20.0059249 16.3074206,19.9939847 C15.776079,19.9880145 15.3522007,19.558165 15.34623,19.0327941 C15.34623,18.286528 16.2536889,17.2536983 16.3253304,16.7283227 C16.3850316,17.2656338 17.2984612,18.2566721 17.2984612,19.0327941 L17.2984612,19.0327941 Z" id="形状" fill="#FFFFFF"></path>
        </g>
    </g>
</svg>