<?xml version="1.0" encoding="UTF-8"?>
<svg width="32px" height="32px" viewBox="0 0 32 32" version="1.1" xmlns="http://www.w3.org/2000/svg" xmlns:xlink="http://www.w3.org/1999/xlink">
    <!-- Generator: Sketch 59 (86127) - https://sketch.com -->
    <title>切片</title>
    <desc>Created with Sketch.</desc>
    <g id="设计稿" stroke="none" stroke-width="1" fill="none" fill-rule="evenodd">
        <g id="选中">
            <rect id="矩形" fill="#D8D8D8" opacity="0" x="0" y="0" width="32" height="32"></rect>
            <path d="M27.0458672,12.5229336 C27.0458672,5.84448781 22.1976443,1 15.5229336,1 C9.16944574,1 4,6.16944574 4,12.5229336 C4,17.2142803 10.3721636,25.1589415 13.7972949,29.4282164 L14.051285,29.7419689 C14.4098593,30.1901868 14.9477207,30.447912 15.5266688,30.447912 C16.1018817,30.447912 16.6397431,30.1901868 17.0020525,29.7419689 L17.2560426,29.4282164 C20.6737036,25.1589415 27.0458672,17.2142803 27.0458672,12.5229336 Z" id="形状" fill="#FF121E" fill-rule="nonzero"></path>
            <path d="M15.5276886,0 C8.62139873,0 3,5.61766358 3,12.5276886 C3,17.5701393 9.51783441,25.6940876 13.0176687,30.0604764 L13.2679237,30.3742289 C13.8207257,31.0614962 14.6424584,31.457422 15.5239535,31.457422 C16.4054485,31.457422 17.2271812,31.0614962 17.7799832,30.3742289 L18.0339734,30.0604764 C21.5375428,25.6940876 28.0516421,17.5701393 28.0516421,12.5276886 C28.0516421,5.27029476 22.7850824,0 15.5276886,0 L15.5276886,0 Z M15.5276886,30.452667 C14.9524757,30.452667 14.4146143,30.1949418 14.0523049,29.7467239 L13.7983148,29.4329714 C10.3731835,25.1636965 4.00101984,17.2190353 4.00101984,12.5276886 C4.00101984,6.17420073 9.17046558,1.00475499 15.5239535,1.00475499 C22.2023993,1.00475499 27.0468871,5.85297795 27.0468871,12.5276886 C27.0468871,17.2190353 20.6747235,25.1636965 17.2495921,29.4329714 L16.995602,29.7467239 C16.6407629,30.1949418 16.1029015,30.452667 15.5276886,30.452667 Z" id="形状" fill-rule="nonzero"></path>
            <circle id="椭圆形" fill="#FFFFFF" cx="15.5" cy="12.5" r="3.5"></circle>
        </g>
    </g>
</svg>