<?xml version="1.0" encoding="UTF-8"?>
<svg width="32px" height="32px" viewBox="0 0 32 32" version="1.1" xmlns="http://www.w3.org/2000/svg" xmlns:xlink="http://www.w3.org/1999/xlink">
    <!-- Generator: Sketch 59 (86127) - https://sketch.com -->
    <title>切片</title>
    <desc>Created with Sketch.</desc>
    <g id="设计稿" stroke="none" stroke-width="1" fill="none" fill-rule="evenodd">
        <g id="视频监控" transform="translate(3.000000, 0.000000)" fill-rule="nonzero">
            <path d="M24.1175224,12.8054505 C24.1175224,6.12700466 19.2692995,1.28251685 12.5945888,1.28251685 C6.24110093,1.28251685 1.07165519,6.45196259 1.07165519,12.8054505 C1.07165519,17.4967972 7.4438188,25.4414584 10.8689501,29.7107333 L11.1229402,30.0244858 C11.4815145,30.4727036 12.0193759,30.7304289 12.5983239,30.7304289 C13.1735368,30.7304289 13.7113982,30.4727036 14.0737077,30.0244858 L14.3276978,29.7107333 C17.7453588,25.4414584 24.1175224,17.4967972 24.1175224,12.8054505 Z" id="形状" fill="#3365FE"></path>
            <path d="M12.5945888,0.27776186 C5.68829893,0.27776186 0.0669001975,5.89542544 0.0669001975,12.8054505 C0.0669001975,17.8479012 6.58473461,25.9718495 10.0845689,30.3382383 L10.3348239,30.6519908 C10.8876259,31.3392581 11.7093586,31.7351839 12.5908537,31.7351839 C13.4723487,31.7351839 14.2940814,31.3392581 14.8468834,30.6519908 L15.1008735,30.3382383 C18.604443,25.9718495 25.1185423,17.8479012 25.1185423,12.8054505 C25.1185423,5.54805662 19.8519826,0.27776186 12.5945888,0.27776186 L12.5945888,0.27776186 Z M12.5945888,30.7304289 C12.0193759,30.7304289 11.4815145,30.4727036 11.1192051,30.0244858 L10.865215,29.7107333 C7.44008365,25.4414584 1.06792004,17.4967972 1.06792004,12.8054505 C1.06792004,6.45196259 6.23736578,1.28251685 12.5908537,1.28251685 C19.2692995,1.28251685 24.1137873,6.13073981 24.1137873,12.8054505 C24.1137873,17.4967972 17.7416237,25.4414584 14.3164923,29.7107333 L14.0625022,30.0244858 C13.7076631,30.4727036 13.1698017,30.7304289 12.5945888,30.7304289 Z" id="形状"></path>
            <path d="M12.5490156,17.0997776 L12.5490155,17.0997776 C9.54219196,17.0997776 7.10468676,14.6622724 7.10468676,11.6554489 C7.10468676,8.64862538 9.54219196,6.21112018 12.5490155,6.21112018 C15.5558389,6.21112018 17.9933441,8.64862538 17.9933441,11.6554489 C17.9933441,11.6556822 17.9933441,11.6559155 17.9933441,11.6561488 L17.9933441,11.6554488 C17.9933441,14.6619934 15.5562655,17.0994002 12.5497045,17.0997776 L12.5490156,17.0997776 Z M12.5490156,9.32315182 L12.5490155,9.32315182 C10.8310533,9.32315182 9.43836191,10.7158366 9.43836191,12.4338054 C9.43836191,14.1517676 10.8310467,15.544459 12.5490155,15.544459 C14.2669777,15.544459 15.6596691,14.1517742 15.6596691,12.4338054 L15.6596691,12.4338054 C15.6596691,10.7158432 14.2669843,9.32315182 12.5490155,9.32315182 C12.5490155,9.32315182 12.5490155,9.32315182 12.5490155,9.32315182 L12.5490156,9.32315182 Z M12.5490156,13.9891244 L12.5490156,13.9891244 C11.6900344,13.9891244 10.993692,13.2927816 10.993692,12.4338005 C10.993692,11.5748194 11.6900344,10.878477 12.5490156,10.878477 C13.4079967,10.878477 14.1043391,11.5748194 14.1043391,12.4338005 C14.1043391,12.4340337 14.1043391,12.434267 14.1043391,12.4345003 L14.1043391,12.4343373 C14.1040425,13.2930461 13.4078866,13.9890341 12.5491779,13.9891244 L12.5490156,13.9891244 Z M12.5490156,17.1004659 L12.5490157,17.1004659 C14.6500123,17.1014901 16.562576,18.3124044 17.4620704,20.2111202 L7.63665011,20.2111202 L7.63665011,20.2111202 C8.53617763,18.3127629 10.4483147,17.1019424 12.5490161,17.1004659 L12.5490156,17.1004659 Z" id="形状" fill="#FFFFFF"></path>
        </g>
        <g id="视频监控" transform="translate(2.000000, -4.000000)"></g>
    </g>
</svg>