<?xml version="1.0" encoding="UTF-8"?>
<svg width="32px" height="32px" viewBox="0 0 32 32" version="1.1" xmlns="http://www.w3.org/2000/svg" xmlns:xlink="http://www.w3.org/1999/xlink">
    <!-- Generator: Sketch 59 (86127) - https://sketch.com -->
    <title>切片</title>
    <desc>Created with Sketch.</desc>
    <g id="设计稿" stroke="none" stroke-width="1" fill="none" fill-rule="evenodd">
        <g id="告警" transform="translate(3.000000, 0.000000)" fill-rule="nonzero">
            <path d="M24.1175224,12.8054505 C24.1175224,6.12700466 19.2692995,1.28251685 12.5945888,1.28251685 C6.24110093,1.28251685 1.07165519,6.45196259 1.07165519,12.8054505 C1.07165519,17.4967972 7.4438188,25.4414584 10.8689501,29.7107333 L11.1229402,30.0244858 C11.4815145,30.4727036 12.0193759,30.7304289 12.5983239,30.7304289 C13.1735368,30.7304289 13.7113982,30.4727036 14.0737077,30.0244858 L14.3276978,29.7107333 C17.7453588,25.4414584 24.1175224,17.4967972 24.1175224,12.8054505 Z" id="形状" fill="#FF121E"></path>
            <path d="M12.5945888,0.27776186 C5.68829893,0.27776186 0.0669001975,5.89542544 0.0669001975,12.8054505 C0.0669001975,17.8479012 6.58473461,25.9718495 10.0845689,30.3382383 L10.3348239,30.6519908 C10.8876259,31.3392581 11.7093586,31.7351839 12.5908537,31.7351839 C13.4723487,31.7351839 14.2940814,31.3392581 14.8468834,30.6519908 L15.1008735,30.3382383 C18.604443,25.9718495 25.1185423,17.8479012 25.1185423,12.8054505 C25.1185423,5.54805662 19.8519826,0.27776186 12.5945888,0.27776186 L12.5945888,0.27776186 Z M12.5945888,30.7304289 C12.0193759,30.7304289 11.4815145,30.4727036 11.1192051,30.0244858 L10.865215,29.7107333 C7.44008365,25.4414584 1.06792004,17.4967972 1.06792004,12.8054505 C1.06792004,6.45196259 6.23736578,1.28251685 12.5908537,1.28251685 C19.2692995,1.28251685 24.1137873,6.13073981 24.1137873,12.8054505 C24.1137873,17.4967972 17.7416237,25.4414584 14.3164923,29.7107333 L14.0625022,30.0244858 C13.7076631,30.4727036 13.1698017,30.7304289 12.5945888,30.7304289 Z" id="形状"></path>
            <path d="M18.4969869,17.718441 C18.6436824,17.979233 18.6377553,18.3007778 18.4836509,18.5630516 C18.3295465,18.8238437 18.0480096,18.9853569 17.7472097,18.9853569 L7.4592593,18.9853569 C7.15845937,18.9853569 6.87692248,18.8253254 6.72281808,18.5630516 C6.56871369,18.3022595 6.56278659,17.9807148 6.70948213,17.718441 L11.8527164,8.28843716 C11.999412,8.01430914 12.2883577,7.83945992 12.6024936,7.83945992 C12.9166295,7.83945992 13.2055753,8.01430914 13.3522708,8.28843716 L18.4969869,17.718441 Z M13.5671279,11.4698039 C13.5671279,11.4297961 13.5463831,11.3764522 13.5004481,11.3423714 C13.4604402,11.3082907 13.3996875,11.2682828 13.3404166,11.2682828 L11.8675342,11.2682828 C11.8067815,11.2682828 11.7475106,11.3082907 11.7075027,11.3423714 C11.6600859,11.3764522 11.6408229,11.443132 11.6408229,11.4831399 L11.7549194,14.544483 C11.7549194,14.6319077 11.85568,14.6985874 11.9831125,14.6985874 L13.2218748,14.6985874 C13.3418984,14.6985874 13.4426589,14.6319077 13.4500678,14.544483 L13.5671279,11.4698039 L13.5671279,11.4698039 Z M13.4604402,15.7773182 C13.4604402,15.6572946 13.3670885,15.5565341 13.2455831,15.5565341 L11.9594041,15.5565341 C11.8393805,15.5565341 11.744547,15.6572946 11.744547,15.7773182 L11.744547,17.0501613 C11.744547,17.1701849 11.8378987,17.2709455 11.9594041,17.2709455 L13.2455831,17.2709455 C13.3656067,17.2709455 13.4604402,17.1701849 13.4604402,17.0501613 L13.4604402,15.7773182 Z" id="形状" fill="#FFFFFF"></path>
        </g>
        <g id="闪电" transform="translate(5.000000, -8.000000)"></g>
        <g id="叹号" transform="translate(12.000000, -8.000000)"></g>
    </g>
</svg>