<?xml version="1.0" encoding="UTF-8"?>
<svg width="32px" height="32px" viewBox="0 0 32 32" version="1.1" xmlns="http://www.w3.org/2000/svg" xmlns:xlink="http://www.w3.org/1999/xlink">
    <!-- Generator: Sketch 59 (86127) - https://sketch.com -->
    <title>切片</title>
    <desc>Created with Sketch.</desc>
    <g id="设计稿" stroke="none" stroke-width="1" fill="none" fill-rule="evenodd">
        <g id="水功能" transform="translate(3.000000, 0.000000)" fill-rule="nonzero">
            <path d="M24.1175224,12.8054505 C24.1175224,6.12700466 19.2692995,1.28251685 12.5945888,1.28251685 C6.24110093,1.28251685 1.07165519,6.45196259 1.07165519,12.8054505 C1.07165519,17.4967972 7.4438188,25.4414584 10.8689501,29.7107333 L11.1229402,30.0244858 C11.4815145,30.4727036 12.0193759,30.7304289 12.5983239,30.7304289 C13.1735368,30.7304289 13.7113982,30.4727036 14.0737077,30.0244858 L14.3276978,29.7107333 C17.7453588,25.4414584 24.1175224,17.4967972 24.1175224,12.8054505 Z" id="形状" fill="#0D7DD9"></path>
            <path d="M12.5945888,0.27776186 C5.68829893,0.27776186 0.0669001975,5.89542544 0.0669001975,12.8054505 C0.0669001975,17.8479012 6.58473461,25.9718495 10.0845689,30.3382383 L10.3348239,30.6519908 C10.8876259,31.3392581 11.7093586,31.7351839 12.5908537,31.7351839 C13.4723487,31.7351839 14.2940814,31.3392581 14.8468834,30.6519908 L15.1008735,30.3382383 C18.604443,25.9718495 25.1185423,17.8479012 25.1185423,12.8054505 C25.1185423,5.54805662 19.8519826,0.27776186 12.5945888,0.27776186 L12.5945888,0.27776186 Z M12.5945888,30.7304289 C12.0193759,30.7304289 11.4815145,30.4727036 11.1192051,30.0244858 L10.865215,29.7107333 C7.44008365,25.4414584 1.06792004,17.4967972 1.06792004,12.8054505 C1.06792004,6.45196259 6.23736578,1.28251685 12.5908537,1.28251685 C19.2692995,1.28251685 24.1137873,6.13073981 24.1137873,12.8054505 C24.1137873,17.4967972 17.7416237,25.4414584 14.3164923,29.7107333 L14.0625022,30.0244858 C13.7076631,30.4727036 13.1698017,30.7304289 12.5945888,30.7304289 Z" id="形状"></path>
            <path d="M9.13523132,17.0284698 C9.13523132,18.480427 10.5871886,19.6761566 12.4234875,19.6761566 C14.2597865,19.6761566 15.7117438,18.480427 15.7117438,17.0284698 C15.7117438,15.5765125 14.430605,14.0391459 12.4234875,11.6476868 C10.4590747,14.0818505 9.13523132,15.5338078 9.13523132,17.0284698 M16.7793594,10.3238434 C15.8398577,11.4341637 15.1992883,12.2455516 14.8576512,13.0142349 C15.6263345,13.9964413 16.1814947,14.8505338 16.5231317,15.6619217 C17.6761566,15.7900356 18.7864769,15.1494662 18.9572954,14.1672598 C18.9572954,14.0818505 19,13.9964413 19,13.911032 C18.9572954,12.9288256 18.1032028,11.9466192 16.7793594,10.3238434 M9.17793594,9 C7.85409253,10.6227758 7,11.6049822 7,12.5871886 C7,13.5266904 7.93950178,14.2953737 9.09252669,14.3380783 C9.60498221,13.569395 10.3309609,12.6725979 11.1423488,11.6476868 C10.8007117,10.9217082 10.1174377,10.1103203 9.17793594,9" id="形状" fill="#FFFFFF"></path>
        </g>
    </g>
</svg>