<?xml version="1.0" encoding="UTF-8"?>
<svg width="32px" height="32px" viewBox="0 0 32 32" version="1.1" xmlns="http://www.w3.org/2000/svg" xmlns:xlink="http://www.w3.org/1999/xlink">
    <title> 切片</title>
    <g id="设计稿" stroke="none" stroke-width="1" fill="none" fill-rule="evenodd">
        <g id="水源地" transform="translate(3.000000, 0.000000)" fill-rule="nonzero">
            <path d="M24.1175224,12.8054505 C24.1175224,6.12700466 19.2692995,1.28251685 12.5945888,1.28251685 C6.24110093,1.28251685 1.07165519,6.45196259 1.07165519,12.8054505 C1.07165519,17.4967972 7.4438188,25.4414584 10.8689501,29.7107333 L11.1229402,30.0244858 C11.4815145,30.4727036 12.0193759,30.7304289 12.5983239,30.7304289 C13.1735368,30.7304289 13.7113982,30.4727036 14.0737077,30.0244858 L14.3276978,29.7107333 C17.7453588,25.4414584 24.1175224,17.4967972 24.1175224,12.8054505 Z" id="形状" fill="#00A4FF"></path>
            <path d="M12.5945888,0.27776186 C5.68829893,0.27776186 0.0669001975,5.89542544 0.0669001975,12.8054505 C0.0669001975,17.8479012 6.58473461,25.9718495 10.0845689,30.3382383 L10.3348239,30.6519908 C10.8876259,31.3392581 11.7093586,31.7351839 12.5908537,31.7351839 C13.4723487,31.7351839 14.2940814,31.3392581 14.8468834,30.6519908 L15.1008735,30.3382383 C18.604443,25.9718495 25.1185423,17.8479012 25.1185423,12.8054505 C25.1185423,5.54805662 19.8519826,0.27776186 12.5945888,0.27776186 L12.5945888,0.27776186 Z M12.5945888,30.7304289 C12.0193759,30.7304289 11.4815145,30.4727036 11.1192051,30.0244858 L10.865215,29.7107333 C7.44008365,25.4414584 1.06792004,17.4967972 1.06792004,12.8054505 C1.06792004,6.45196259 6.23736578,1.28251685 12.5908537,1.28251685 C19.2692995,1.28251685 24.1137873,6.13073981 24.1137873,12.8054505 C24.1137873,17.4967972 17.7416237,25.4414584 14.3164923,29.7107333 L14.0625022,30.0244858 C13.7076631,30.4727036 13.1698017,30.7304289 12.5945888,30.7304289 Z" id="形状"></path>
            <g id="GIS-图例、图层icon_水源井" transform="translate(5.000000, 6.000000)">
                <rect id="矩形" fill="#000000" opacity="0" x="0" y="0" width="15" height="15"></rect>
                <path d="M7.49067808,9.36286504 C8.14847854,9.36634312 8.78056548,9.107599 9.24709021,8.64384426 C9.71361494,8.18008952 9.97611864,7.54955464 9.97652258,6.89174492 C9.97652258,5.52530728 9.00315909,4.12158196 7.49067808,1.875 C5.97431294,4.12158196 5.00483359,5.5260841 5.00483359,6.89174492 C5.00523753,7.54955464 5.26774123,8.18008952 5.73426596,8.64384426 C6.20079069,9.107599 6.83287763,9.36634312 7.49067808,9.36286504 Z M7.47203425,3.4667173 C7.67167163,3.77360631 7.78195307,4.13000364 7.79053308,4.49601229 C7.79053308,5.71252244 6.53673526,5.91838144 6.53673526,5.16952078 C6.55460226,4.68322745 7.17217926,3.91727662 7.47203425,3.46594048 L7.47203425,3.4667173 Z M7.49067808,11.2349814 C6.38603093,11.2349814 4.81373429,10.954547 4.08351747,10.1303342 C4.38590861,9.95892616 4.70602654,9.82087693 5.03823712,9.71861621 C5.44995512,9.99905055 6.29203494,10.2989055 7.49067808,10.2989055 C8.68932123,10.2989055 9.53140105,9.99905055 9.96176288,9.71861621 C10.2945719,9.82126699 10.6152182,9.95984038 10.9180362,10.1318879 C10.1691755,10.9553239 8.59687888,11.236535 7.49223174,11.236535 L7.49067808,11.2349814 Z M13.1063562,10.3027897 C13.1063562,11.8564425 10.5979837,13.1102403 7.49067808,13.1102403 C4.38337246,13.1102403 1.875,11.8564425 1.875,10.3027897 L1.875,10.2468582 C1.89208195,9.77105352 2.16395634,9.34127827 2.58657299,9.12201353 C3.00531144,8.89966593 3.51010866,8.9138274 3.91572297,9.1593012 L3.9343668,9.1593012 C3.20414998,9.5150877 2.81107582,9.94544952 2.81107582,10.301236 C2.81107582,11.0687405 4.62651913,12.1733877 7.49067808,12.1733877 C10.354837,12.1733877 12.1702803,11.0687405 12.1702803,10.301236 C12.1702803,9.94544952 11.7772062,9.5150877 11.0656332,9.1593012 L11.084277,9.1593012 C11.4972133,8.91016188 12.0124013,8.90303536 12.4320708,9.14065737 C12.8451632,9.37567434 13.1072907,9.80765574 13.125,10.2825922 C13.1147033,10.2825922 13.1063562,10.2909393 13.1063562,10.301236 L13.1063562,10.3027897 Z M10.7626709,8.40811007 C11.4361794,7.75324541 12.2036839,8.3148909 12.8220377,7.71518091 C12.997818,7.54214305 13.0985378,7.30694422 13.102472,7.06031625 C13.102472,6.4613831 12.4095429,5.9937336 11.6801029,6.38680776 C11.1223415,6.70452976 10.7851989,7.50932192 10.7626709,8.40811007 L10.7626709,8.40811007 Z M10.8403535,6.0496651 C11.1402085,5.56259495 11.6637895,5.7878746 11.9279105,5.33809211 C12.2464093,4.81373429 11.5907678,4.27150946 11.0671869,4.73915896 C10.7851989,5.00483359 10.7292674,5.50666344 10.8403535,6.0496651 Z M3.29736915,6.40312112 C2.56715233,6.01004695 1.875,6.48080376 1.875,7.07662961 C1.87893421,7.32325757 1.97965399,7.5584564 2.15543433,7.73149427 C2.77689546,8.33042743 3.54051581,7.76878194 4.21480113,8.42442342 C4.1961573,7.50932192 3.85901464,6.70452976 3.29736915,6.40312112 Z M3.89630231,4.73682848 C3.39058832,4.24975832 2.71707982,4.79275998 3.03557865,5.33576164 C3.31601298,5.7847673 3.82172697,5.56026447 4.12313562,6.04733462 C4.2520888,5.50666344 4.1961573,5.00483359 3.89630231,4.73915896 L3.89630231,4.73682848 Z" id="形状" fill="#FFFFFF"></path>
            </g>
        </g>
    </g>
</svg>