<?xml version="1.0" encoding="UTF-8"?>
<svg width="32px" height="32px" viewBox="0 0 32 32" version="1.1" xmlns="http://www.w3.org/2000/svg" xmlns:xlink="http://www.w3.org/1999/xlink">
    <!-- Generator: Sketch 59 (86127) - https://sketch.com -->
    <title>切片</title>
    <desc>Created with Sketch.</desc>
    <g id="设计稿" stroke="none" stroke-width="1" fill="none" fill-rule="evenodd">
        <g id="水环境" transform="translate(3.000000, 0.000000)" fill-rule="nonzero">
            <path d="M24.1175224,12.8054505 C24.1175224,6.12700466 19.2692995,1.28251685 12.5945888,1.28251685 C6.24110093,1.28251685 1.07165519,6.45196259 1.07165519,12.8054505 C1.07165519,17.4967972 7.4438188,25.4414584 10.8689501,29.7107333 L11.1229402,30.0244858 C11.4815145,30.4727036 12.0193759,30.7304289 12.5983239,30.7304289 C13.1735368,30.7304289 13.7113982,30.4727036 14.0737077,30.0244858 L14.3276978,29.7107333 C17.7453588,25.4414584 24.1175224,17.4967972 24.1175224,12.8054505 Z" id="形状" fill="#3FD4B4"></path>
            <path d="M12.5945888,0.27776186 C5.68829893,0.27776186 0.0669001975,5.89542544 0.0669001975,12.8054505 C0.0669001975,17.8479012 6.58473461,25.9718495 10.0845689,30.3382383 L10.3348239,30.6519908 C10.8876259,31.3392581 11.7093586,31.7351839 12.5908537,31.7351839 C13.4723487,31.7351839 14.2940814,31.3392581 14.8468834,30.6519908 L15.1008735,30.3382383 C18.604443,25.9718495 25.1185423,17.8479012 25.1185423,12.8054505 C25.1185423,5.54805662 19.8519826,0.27776186 12.5945888,0.27776186 L12.5945888,0.27776186 Z M12.5945888,30.7304289 C12.0193759,30.7304289 11.4815145,30.4727036 11.1192051,30.0244858 L10.865215,29.7107333 C7.44008365,25.4414584 1.06792004,17.4967972 1.06792004,12.8054505 C1.06792004,6.45196259 6.23736578,1.28251685 12.5908537,1.28251685 C19.2692995,1.28251685 24.1137873,6.13073981 24.1137873,12.8054505 C24.1137873,17.4967972 17.7416237,25.4414584 14.3164923,29.7107333 L14.0625022,30.0244858 C13.7076631,30.4727036 13.1698017,30.7304289 12.5945888,30.7304289 Z" id="形状"></path>
            <path d="M16.7220639,11.7402501 C17.1464919,11.9331714 17.6095035,12.1260945 17.9567643,12.4347683 C18.0725175,12.511937 18.1496857,12.5891057 18.188271,12.7434438 C18.2268554,12.859197 18.188271,13.013534 18.1496865,13.1292882 C18.0339334,13.3607949 17.686675,13.4765473 17.4551683,13.3222096 C17.3008309,13.2064564 17.1464928,13.1292882 16.9921568,13.013534 C16.8378193,12.8977809 16.6448977,12.8206127 16.4519763,12.7434438 C16.4133919,12.7434438 16.4133919,12.7048594 16.3748076,12.7048594 C16.3362232,12.6662749 16.2976389,12.6662749 16.2204702,12.6662749 L15.8732111,12.5505218 C15.6802898,12.5119373 15.4873667,12.4347686 15.2944453,12.4347686 C15.1786922,12.0875095 15.0243551,11.7402504 14.8700174,11.3929913 C15.525952,11.3544069 16.1433013,11.5087445 16.7220741,11.7402504 L16.7220639,11.7402501 Z M12.2462792,8.19048493 C12.4777858,8.19048493 15.217282,11.6244976 15.217282,13.7466376 C15.217282,15.5215201 13.8668292,16.9491454 12.2462792,16.9491454 C10.5871525,16.9491454 9.27527626,15.5215236 9.27527626,13.7466376 C9.23669182,11.6244976 12.0147742,8.19048493 12.2462792,8.19048493 Z M9.31387205,15.98453 L9.66113116,15.98453 C9.96980669,16.3703744 10.3170658,16.6790482 10.7414938,16.9105548 C10.7029093,16.9105548 10.6257406,16.9491393 10.5871564,16.9491393 C9.66113151,17.1034767 8.69652133,16.9491393 7.80908005,16.5632948 C7.38465206,16.3703735 6.96022407,16.1774504 6.57437965,15.9073602 C6.342873,15.7530228 6.22712055,15.4829322 6.38145832,15.212842 C6.49721147,14.9813353 6.84446987,14.8655829 7.07597652,15.0199207 C7.23031394,15.1356738 7.38465206,15.212842 7.53898808,15.2900109 C7.6933255,15.3671796 7.88624718,15.4829322 8.04058495,15.5601011 C8.07916939,15.5601011 8.07916939,15.5601011 8.11775366,15.5986855 C8.1563381,15.63727 8.23350681,15.63727 8.27209108,15.63727 L8.61935018,15.7530231 C8.81227152,15.8301918 9.04377817,15.8687763 9.2366995,15.9073605 C9.2366995,15.9845293 9.27528394,15.9845293 9.31386821,15.9845293 L9.31387205,15.98453 Z M6.30429083,12.589113 C6.42004398,12.3576064 6.76730239,12.2418539 6.99880904,12.3961917 C7.15314646,12.5119449 7.30748457,12.589113 7.46182059,12.6662819 C7.61615801,12.7434506 7.8090797,12.8592033 7.96341746,12.9363721 C8.00200191,12.9363721 8.00200191,12.9363721 8.04058617,12.9749566 C8.07917061,13.013541 8.15633932,13.013541 8.19492359,13.013541 L8.54218269,13.1292942 C8.65793584,13.1678786 8.81227291,13.2064629 8.92802711,13.2450473 C8.88944267,13.4379687 8.88944267,13.6308918 8.88944267,13.7852278 C8.88944267,13.9395652 8.88944267,14.0939033 8.92802711,14.2482393 C8.54218269,14.1710706 8.11775471,14.055318 7.7704956,13.9009802 C7.34606762,13.7080589 6.92163963,13.5151358 6.53579521,13.2450456 C6.26570499,13.1292924 6.18853611,12.8592012 6.30428856,12.5891109 L6.30429083,12.589113 Z M18.1882675,18.5696972 C18.0725143,18.8012038 17.7252559,18.9169563 17.4937493,18.7626185 C17.3394119,18.6468653 17.1850737,18.5696972 17.0307377,18.453943 C16.8764003,18.3381898 16.6834786,18.2610216 16.4905573,18.1838527 L16.4133886,18.1452683 C16.3748041,18.1066839 16.3362199,18.1066839 16.2590511,18.1066839 L15.911792,17.9909307 C15.7188707,17.913762 15.4873641,17.8751776 15.2944427,17.8365933 L15.2558583,17.8365933 L14.7156778,17.8365933 C14.5999247,17.8365933 14.5227565,17.8365933 14.4070023,17.8751777 C14.3684179,17.8751777 14.2912492,17.8751777 14.2912492,17.9137622 C14.2140804,17.9137622 14.175496,17.9523466 14.1369117,17.9523466 C14.0211586,17.9909311 13.8668215,18.0295153 13.7510673,18.0680998 C13.7124829,18.0680998 13.6738986,18.1066842 13.6738986,18.1066842 C13.6353142,18.1452686 13.5581455,18.1452686 13.5195612,18.1838529 C13.403808,18.2610216 13.249471,18.3381903 13.1337168,18.4153596 C13.0951323,18.453944 13.0179636,18.4925283 12.9793794,18.5311127 L12.9407949,18.5696972 L12.8636262,18.6468659 C12.593536,18.8783725 12.3620293,19.1098774 12.0919391,19.2642152 C11.6289276,19.5728907 11.0887454,19.7658121 10.5485649,19.8815645 C9.62254008,20.0359019 8.65792991,19.8815645 7.77048862,19.4957201 C7.34606063,19.3027988 6.92163264,19.1098757 6.53578823,18.8397855 C6.30428158,18.685448 6.18852912,18.4153575 6.34286689,18.1452673 C6.45862004,17.9137606 6.80587845,17.7980081 7.0373851,17.9523459 C7.19172251,18.0680991 7.34606063,18.1452673 7.50039665,18.2224361 C7.65473407,18.2996048 7.84765576,18.4153575 8.00199352,18.4925264 C8.04057796,18.4925264 8.04057796,18.4925264 8.07916223,18.5311108 C8.11774667,18.5696952 8.19491538,18.5696952 8.23349965,18.5696952 L8.58075875,18.6854484 C8.77368009,18.7626171 9.00518674,18.8012015 9.19810808,18.8397858 C9.23669252,18.8397858 9.27527678,18.8397858 9.31386123,18.8783702 L9.42961438,18.8783702 C9.54536753,18.8783702 9.66112103,18.8783702 9.77687348,18.9169547 L10.3556392,18.9169547 C10.4713924,18.8783702 10.5871459,18.8783702 10.7414837,18.839786 C10.7800681,18.839786 10.8572368,18.8012015 10.8958211,18.8012015 C10.9344055,18.8012015 11.0501585,18.7626171 11.0501585,18.7626171 C11.2816651,18.6468639 11.51317,18.5311104 11.7060931,18.3767727 C11.7060931,18.3767727 11.7446776,18.3767727 11.7446776,18.3381882 L11.8218463,18.2610195 L11.9761837,18.1066821 C12.0919368,17.990929 12.2462739,17.8751755 12.4006117,17.759423 C12.8636232,17.4121639 13.4038054,17.1420737 13.9439859,17.0263195 C14.8700107,16.8333982 15.8731992,16.987735 16.7606405,17.334995 C17.1850685,17.5279164 17.6480801,17.7208394 17.9953409,18.0295132 C18.1110941,18.1066819 18.1882622,18.1838506 18.2268476,18.3381888 C18.265432,18.3381888 18.2268476,18.4539419 18.1882631,18.5696954 L18.1882675,18.5696972 Z M18.1882675,15.7916208 C18.0725143,16.0231275 17.7252559,16.1388799 17.4937493,15.9845422 C17.3394119,15.868789 17.1850737,15.7916208 17.0307377,15.6758666 C16.8764003,15.5601135 16.6834786,15.4829453 16.4905573,15.4057764 L16.4519728,15.367192 C16.4133884,15.3286075 16.3748041,15.3286075 16.2976354,15.3286075 L15.9503763,15.2128544 C15.757455,15.1742699 15.5645319,15.0971012 15.3716106,15.058517 C15.4873637,14.7498414 15.5645319,14.4025823 15.6031172,14.0939085 C15.9889616,14.1710773 16.3748043,14.2868299 16.7606487,14.4411676 C17.1850767,14.634089 17.6480883,14.8270121 17.9953491,15.1356859 C18.1111023,15.2128546 18.1882704,15.2900233 18.2268558,15.4443614 C18.2654402,15.5215301 18.2654402,15.6372827 18.1882713,15.7916205 L18.1882675,15.7916208 Z" id="形状" fill="#FFFFFF"></path>
            <path d="M12.7864631,16.1774565 C13.5195666,16.0231191 14.1754995,15.4829383 14.4455897,14.6726659 C14.4841742,14.5954972 14.4841742,14.5569128 14.4841742,14.4797446 C14.4841742,14.4025759 14.4455897,14.3639914 14.4070055,14.3254072 C14.3298367,14.2482385 14.1754988,14.2868227 14.1369152,14.4025759 C14.0597465,14.5569133 13.9825778,14.749835 13.9054086,14.8655874 L13.9054086,14.9041719 C13.8668241,14.9427563 13.8282399,15.019925 13.7896554,15.0585093 C13.751071,15.135678 13.6739023,15.2128467 13.5967341,15.2514306 L13.5581497,15.2900151 L13.5195652,15.3285995 C13.4423965,15.3671839 13.4038121,15.3671839 13.4038121,15.4057682 C13.3266434,15.4443527 13.2494746,15.5215214 13.1723054,15.5601056 C13.133721,15.5986901 13.0951367,15.5986901 13.0565523,15.6372743 C13.0179678,15.6372743 13.0179678,15.6372743 12.9793835,15.6758588 L12.9407991,15.6758588 C12.8636304,15.7144432 12.7478778,15.7530275 12.6707089,15.7530275 C12.5549557,15.7916119 12.5163715,15.9073649 12.5163715,16.0231177 C12.5549559,16.1388709 12.6707089,16.216039 12.7864617,16.1774551 L12.7864631,16.1774565 Z" id="路径" fill="#3FD4B4"></path>
        </g>
    </g>
</svg>