<?xml version="1.0" encoding="UTF-8"?>
<svg width="20px" height="24px" viewBox="0 0 20 24" version="1.1" xmlns="http://www.w3.org/2000/svg" xmlns:xlink="http://www.w3.org/1999/xlink">
    <!-- Generator: Sketch 59 (86127) - https://sketch.com -->
    <title>河长_选中</title>
    <desc>Created with Sketch.</desc>
    <g id="设计稿" stroke="none" stroke-width="1" fill="none" fill-rule="evenodd">
        <g id="一张图" transform="translate(-965.000000, -745.000000)">
            <g id="编组-3" transform="translate(428.000000, 745.000000)">
                <g id="河长_选中" transform="translate(535.000000, 0.000000)">
                    <rect id="矩形" fill="#D8D8D8" opacity="0" x="0" y="0" width="24" height="24"></rect>
                    <path d="M12.3101964,20.8560243 C11.3021952,20.8560243 10.5581943,20.5680239 9.71819334,20.2560236 C9.33419289,20.1120234 8.95019244,19.9680232 8.51819194,19.8480231 L8.51819205,19.8480231 C7.11267635,19.4092726 5.60101678,19.4514977 4.22218705,19.9680233 L4.22218706,19.9680233 C3.88966011,20.1038714 3.50996514,19.9444313 3.37411889,19.6119041 C3.24797202,19.3031241 3.37586249,18.9489666 3.67018876,18.7920219 C3.76618888,18.7440218 5.95019142,17.7360207 8.90219485,18.6000217 C9.38219541,18.7440218 9.81419591,18.912022 10.1981964,19.0560222 C11.614198,19.5840228 12.5501991,19.9440232 15.022202,18.912022 C17.7822052,17.7600207 19.9422077,18.6720218 20.0382078,18.7200218 L20.0382078,18.7200218 C20.3695793,18.8658253 20.5200107,19.2526513 20.3742082,19.5840228 C20.2284047,19.9153943 19.8415787,20.0658257 19.5102072,19.9200232 C19.4382071,19.8960232 17.7342051,19.2000224 15.5262026,20.1360235 C14.158201,20.6640241 13.1501998,20.8560243 12.3101988,20.8560243 L12.3101964,20.8560243 Z M11.974196,24.000028 C10.9421948,24.000028 10.1741939,23.7120276 9.31019286,23.4000272 C9.04619256,23.3040271 8.78219225,23.208027 8.47019189,23.0880269 L8.47019188,23.0880269 C8.12493836,22.9683652 7.93470532,22.5984685 8.03819138,22.2480259 L8.03819135,22.248026 C8.16173032,21.9061592 8.52824895,21.7176628 8.87819233,21.8160255 C9.19019269,21.9120256 9.47819303,22.0320257 9.76619336,22.1280258 C11.2301951,22.6560264 12.1661962,23.0160269 14.7101991,21.9840257 L14.7101992,21.9840256 C15.0548246,21.8382224 15.4523977,21.9994 15.5982002,22.3440261 C15.7440034,22.6886515 15.5828258,23.0862246 15.2381998,23.2320271 C15.2381998,23.2320271 15.2381998,23.2320271 15.2381998,23.2320271 C13.8701982,23.8080278 12.838197,24.000028 11.974196,24.000028 L11.974196,24.000028 Z M11.8061958,9.88801151 C10.9421948,9.88801151 10.318194,10.296012 10.318194,10.6800124 C10.318194,11.0640129 10.9661948,11.4720133 11.8061958,11.4720133 C12.6461967,11.4720133 13.2941975,11.0640129 13.2941975,10.6800124 C13.2941975,10.296012 12.6701968,9.88801151 11.8061958,9.88801151 L11.8061958,9.88801151 Z" id="形状" fill="#0D7DD9" fill-rule="nonzero"></path>
                    <path d="M11.8061958,7.99200369 L11.8061957,7.99200369 C6.58433803,7.9933342 2.3515206,12.2261627 2.35018466,17.4480203 L21.2862067,17.4480203 L21.2862067,17.4480203 C21.2729465,12.2216805 17.0324594,7.99200369 11.8061487,7.99200369 L11.8061958,7.99200369 Z M12.838197,12.1440141 L13.6061979,15.5280181 L11.9021959,16.3920191 L10.0301937,15.456018 L10.7021945,12.0960141 C9.95819362,11.8320138 9.47819306,11.2800131 9.47819306,10.6560124 C9.47819306,9.74401134 10.5101943,9.0240105 11.8061958,9.0240105 C13.1021973,9.0240105 14.1341985,9.74401134 14.1341985,10.6560124 C14.1341985,11.3280132 13.6061979,11.8800138 12.838197,12.1440141 Z" id="形状" fill="#0D7DD9" fill-rule="nonzero"></path>
                    <path d="M6.69418982,5.11200595 L6.69418982,5.11200525 C6.69418982,7.93528979 8.98291123,10.2240112 11.8061958,10.2240112 C14.6294803,10.2240112 16.9182017,7.93528979 16.9182017,5.11200525 C16.9182017,5.1120052 16.9182017,5.11200515 16.9182017,5.1120051 L16.9182017,5.1120051 C16.9182017,2.28872056 14.629478,-8.5003785e-07 11.8061958,-8.5003785e-07 C8.98291123,-8.5003785e-07 6.69418982,2.28872291 6.69418982,5.1120051 L6.69418982,5.11200595 Z" id="路径" fill="#0D7DD9" fill-rule="nonzero"></path>
                </g>
            </g>
        </g>
    </g>
</svg>