<?xml version="1.0" encoding="UTF-8"?>
<svg width="24px" height="24px" viewBox="0 0 24 24" version="1.1" xmlns="http://www.w3.org/2000/svg" xmlns:xlink="http://www.w3.org/1999/xlink">
    <!-- Generator: Sketch 59 (86127) - https://sketch.com -->
    <title>信息</title>
    <desc>Created with Sketch.</desc>
    <g id="设计稿" stroke="none" stroke-width="1" fill="none" fill-rule="evenodd">
        <g id="一张图" transform="translate(-527.000000, -795.000000)">
            <g id="编组-3" transform="translate(428.000000, 745.000000)">
                <g id="信息" transform="translate(99.000000, 50.000000)">
                    <rect id="矩形" fill="#D8D8D8" opacity="0" x="0" y="0" width="24" height="24"></rect>
                    <path d="M12.0575592,0.475267574 C5.69071739,0.475267574 0.528583261,5.63740171 0.528583261,12.0042693 C0.528583261,18.3711368 5.69071739,23.5332194 12.0575592,23.5332194 C18.424401,23.5332194 23.5865609,18.3711111 23.5865609,12.0042693 C23.5865609,5.63742749 18.4243752,0.475267574 12.0575592,0.475267574 Z M13.4986812,16.3275579 C13.4986812,17.1241479 12.8541492,17.7686799 12.0575592,17.7686799 C11.2609692,17.7686799 10.6164372,17.1241479 10.6164372,16.3275579 L10.6164372,12.0042693 C10.6164372,11.2076793 11.2609692,10.5631473 12.0575592,10.5631473 C12.8541492,10.5631473 13.4986812,11.2076793 13.4986812,12.0042693 L13.4986812,16.3275579 Z M12.0575592,9.12202529 C11.260995,9.12202529 10.6164372,8.47602376 10.6164372,7.68087752 C10.6164372,6.88431331 11.2609692,6.23975553 12.0575592,6.23975553 C12.8541492,6.23975553 13.4986812,6.88428753 13.4986812,7.68087752 C13.4986812,8.47602376 12.8541492,9.12202529 12.0575592,9.12202529 Z" id="形状" fill="#7E90A5" fill-rule="nonzero"></path>
                </g>
            </g>
        </g>
    </g>
</svg>