<?xml version="1.0" encoding="UTF-8"?>
<svg width="24px" height="19px" viewBox="0 0 24 19" version="1.1" xmlns="http://www.w3.org/2000/svg" xmlns:xlink="http://www.w3.org/1999/xlink">
    <!-- Generator: Sketch 59 (86127) - https://sketch.com -->
    <title>岸线_选中</title>
    <desc>Created with Sketch.</desc>
    <g id="设计稿" stroke="none" stroke-width="1" fill="none" fill-rule="evenodd">
        <g id="一张图" transform="translate(-672.000000, -747.000000)">
            <g id="编组-3" transform="translate(428.000000, 745.000000)">
                <g id="岸线_选中" transform="translate(244.000000, 0.000000)">
                    <rect id="矩形" fill="#D8D8D8" opacity="0" x="0" y="0" width="24" height="24"></rect>
                    <path d="M12.5532946,12.2687758 C12.5532946,12.2687758 9.53208635,11.1352671 7.08387821,10.4790124 C6.64336736,10.3608678 1.0249848,8.57398666 5.02455322,7.49140415 C5.80636721,7.27979219 7.58214599,6.89458866 10.860362,6.56143167 C11.8921152,6.45658212 13.907601,5.34834222 11.7719398,4.51313515 C11.3485267,4.34757204 10.6780566,3.55857882 13.4648355,3.31995185 C14.1420118,3.261954 15.3140128,1.94781622 13.0741524,2.42507015 C10.834315,2.90237255 12.0844337,2.90237255 10.8603389,3.02167334 C9.63624406,3.14097505 6.6671689,3.85690349 7.99545376,4.21483356 C9.32371323,4.57283285 11.7458468,4.87111137 9.81858409,5.40799377 C9.35318478,5.5376861 5.97754493,5.79385846 3.69957529,6.34266702 C1.94259035,6.76596248 -1.30246408,8.72902899 0.57274395,11.9704604 C1.38405256,13.3728937 4.87984473,15.5325225 5.53723716,16.0595072 C8.64099157,18.5474769 9.58721482,20.4186927 9.57161482,20.4220619 L23.622302,20.4220619 C23.622302,20.4220619 20.6792553,15.1323917 12.5533384,12.2687758 L12.5532946,12.2687758 Z" id="路径" fill="#0D7DD9" fill-rule="nonzero"></path>
                </g>
            </g>
        </g>
    </g>
</svg>