<?xml version="1.0" encoding="UTF-8"?>
<svg width="24px" height="21px" viewBox="0 0 24 21" version="1.1" xmlns="http://www.w3.org/2000/svg" xmlns:xlink="http://www.w3.org/1999/xlink">
    <!-- Generator: Sketch 59 (86127) - https://sketch.com -->
    <title>监控_选中</title>
    <desc>Created with Sketch.</desc>
    <g id="设计稿" stroke="none" stroke-width="1" fill="none" fill-rule="evenodd">
        <g id="一张图" transform="translate(-454.000000, -797.000000)">
            <g id="编组-3" transform="translate(428.000000, 745.000000)">
                <g id="监控_选中" transform="translate(26.000000, 50.000000)">
                    <rect id="矩形" fill="#D8D8D8" opacity="0" x="0" y="0" width="24" height="24"></rect>
                    <path d="M19.2387021,15.6469982 L21.5582415,15.6469982 L21.5582415,12.5122102 L23.7917978,12.0509819 L23.7917978,22.1019658 L21.5582415,21.2722021 L21.5582415,17.7688846 L17.9499383,17.7688846 L15.9743703,14.9099293 L18.5541163,13.4346687 L19.2387002,15.6470041 L19.2387021,15.6469982 Z M5.72570394,16.428741 L0.0971529673,12.9778966 L17.632763,1.9999843 L19.6652996,1.9999843 L22.4326771,6.15997267 L22.4326771,7.57827839 L7.02116191,16.5180789 L5.73351898,16.5180789 L5.72570153,16.4287368 L5.72570394,16.428741 Z M8.4707415,16.6900665 L21.4677826,8.70065331 L22.8213145,10.0754041 L7.75265171,18.7516411 L6.39576888,18.7516411 L5.67433203,18.0637062 L4.95289518,16.0892376 C4.95289518,16.0892376 6.93741483,17.4628714 7.02675473,17.4628714 C7.48463201,17.1680419 7.96931323,16.9089503 8.47521341,16.6889456 L8.47074629,16.6889456 L8.4707415,16.6900665 Z" id="形状" fill="#0D7DD9" fill-rule="nonzero"></path>
                </g>
            </g>
        </g>
    </g>
</svg>