<?xml version="1.0" encoding="UTF-8"?>
<svg width="24px" height="23px" viewBox="0 0 24 23" version="1.1" xmlns="http://www.w3.org/2000/svg" xmlns:xlink="http://www.w3.org/1999/xlink">
    <!-- Generator: Sketch 59 (86127) - https://sketch.com -->
    <title>保护_选中</title>
    <desc>Created with Sketch.</desc>
    <g id="设计稿" stroke="none" stroke-width="1" fill="none" fill-rule="evenodd">
        <g id="一张图" transform="translate(-599.000000, -745.000000)">
            <g id="编组-3" transform="translate(428.000000, 745.000000)">
                <g id="保护_选中" transform="translate(171.000000, 0.000000)">
                    <rect id="矩形" fill="#D8D8D8" opacity="0" x="0" y="0" width="24" height="24"></rect>
                    <path d="M22.2067741,14.6362986 C20.7464861,19.1718224 16.3697888,22.2181296 11.4791345,22.1034732 C6.58852345,21.9874135 2.36793243,18.7394267 1.13561881,14.1403033 L2.28781758,13.8322357 C2.39973226,14.2218214 2.53925861,14.605902 2.70365488,14.9789078 L2.70365515,14.9789084 C3.20118541,16.1052182 3.91568207,17.1225041 4.80635151,17.9726908 C8.65391518,21.654455 14.8307463,21.654455 18.6769499,17.9726908 L18.6769502,17.9726906 C19.5681982,17.1227003 20.2831827,16.1053886 20.7810282,14.9789081 C20.9122861,14.7813304 21.0297059,14.5755058 21.1291424,14.3613481 L21.1291425,14.3613481 C20.7657069,14.1018373 20.5492802,13.6833554 20.5475488,13.2367826 C20.5378556,12.4700246 21.1554156,11.8345245 21.942877,11.7958379 C22.7303816,11.7571514 23.4086917,12.3291381 23.4805165,13.091708 L23.4805166,13.0917088 C23.5435414,13.8663272 22.9791975,14.5506496 22.2067531,14.6362781 L22.2067741,14.6362986 Z M15.92906,12.4230476 C15.92906,14.5036158 13.9783465,16.3742144 11.5951942,16.3742144 C9.21204189,16.3742144 7.26271009,14.7108436 7.26271009,12.4230476 C7.26271009,10.1352516 10.2924374,8.26739477 11.5938125,3.69035636 C13.5431659,9.30493712 15.9276999,10.1366117 15.9276999,12.421666 L15.92906,12.4230476 Z M20.7824093,7.12903422 L20.7824097,7.12903502 C20.2848729,6.00272516 19.5703698,4.98543712 18.6796939,4.13525255 C14.830727,0.453466821 8.65391743,0.453466821 4.80773542,4.13525255 L4.80773587,4.13525213 C3.91641877,4.98572598 3.20143854,6.00351055 2.70365784,7.13043784 L2.70365767,7.13043809 C2.57049669,7.33075458 2.4527175,7.54088043 2.35133368,7.75900828 C2.72023763,8.02288427 2.93854034,8.44286656 2.93854034,8.88771878 C2.94819039,9.65309516 2.3347969,10.2899769 1.54731392,10.3314268 C0.759852522,10.3728767 0.0801392294,9.80231473 0.0069111052,9.03968009 L0.00691110271,9.03968006 C-0.0579460883,8.26691826 0.502118451,7.58212088 1.27238462,7.49236893 C2.72576212,2.94713035 7.10246159,-0.108805346 11.9958576,0.00308774617 C16.8906137,0.113620764 21.1153497,3.36434932 22.3490449,7.96625766 L21.1968678,8.27432527 L21.1968678,8.27432556 C21.0843638,7.88313151 20.9454311,7.50002666 20.7810305,7.12765344 L20.7824093,7.12903422 Z" id="形状" fill="#0D7DD9" fill-rule="nonzero"></path>
                </g>
            </g>
        </g>
    </g>
</svg>