<?xml version="1.0" encoding="UTF-8"?>
<svg width="17px" height="24px" viewBox="0 0 17 24" version="1.1" xmlns="http://www.w3.org/2000/svg" xmlns:xlink="http://www.w3.org/1999/xlink">
    <!-- Generator: Sketch 59 (86127) - https://sketch.com -->
    <title>水污染</title>
    <desc>Created with Sketch.</desc>
    <g id="设计稿" stroke="none" stroke-width="1" fill="none" fill-rule="evenodd">
        <g id="一张图" transform="translate(-747.000000, -795.000000)">
            <g id="编组-3" transform="translate(428.000000, 745.000000)">
                <g id="水污染" transform="translate(315.000000, 50.000000)">
                    <rect id="矩形" fill="#D8D8D8" opacity="0" x="0" y="0" width="24" height="24"></rect>
                    <path d="M6.89233824,9.51796065 C6.89233824,8.50257485 7.3436217,7.26154732 8.24618465,5.79487807 C8.58464645,5.23077573 9.03592872,4.55385054 9.48721218,3.9897482 C10.0513145,3.20000414 10.6154169,2.41026007 11.1795232,1.73333488 C11.4051645,1.39487308 11.6308066,1.16923254 11.8564483,0.830767966 L11.9692692,0.717947498 L12.307731,0.26666404 L12.6461928,0.717947498 L12.7590133,0.830767966 C12.7590133,0.830767966 12.8718337,0.943588433 12.8718337,1.0564093 C13.0974751,1.28205063 13.2102955,1.50769276 13.4359361,1.73333448 C14.0000384,2.52307855 14.5641408,3.20000374 15.1282471,3.98974781 C15.5795305,4.66667299 16.030814,5.23077533 16.3692746,5.79487767 C17.2718415,7.26154693 17.723121,8.50257445 17.723121,9.51796025 C17.723121,12.5641176 15.3538888,15.0461806 12.3077433,15.0461806 C9.26158592,15.0461806 6.89233824,12.5641256 6.89233824,9.51796025 L6.89233824,9.51796065 Z M10.9538814,20.0102673 C10.0513145,20.0102673 9.14875157,19.784626 8.3590075,19.2205233 C7.23080282,18.4307792 5.87695245,18.7692398 5.87695245,18.7692398 C5.31285011,18.8820603 4.63592492,18.430778 4.52310604,17.8666729 C4.41028517,17.3025705 4.74874737,16.6256454 5.42567295,16.5128265 C5.53849342,16.5128265 7.68208628,16.061543 9.60001916,17.3025705 C11.0666884,18.2051375 13.09746,17.1897501 13.5487435,16.7384682 C15.5795151,14.7076966 17.1590032,15.4974407 18.1743811,16.061543 C18.5128429,16.2871844 18.8513062,16.4000048 19.1897669,16.5128265 C19.7538692,16.6256469 20.2051527,17.1897517 20.0923338,17.8666729 C19.9795133,18.4307752 19.4154086,18.8820587 18.7384874,18.7692398 C18.174385,18.6564193 17.6102827,18.430778 17.1589992,18.2051375 C16.1436134,17.753854 15.9179717,17.6410351 15.0154088,18.4307788 C14.3384836,19.107704 12.7589954,20.0102673 10.9538656,20.0102673 L10.9538814,20.0102673 Z" id="形状" fill="#7E90A5" fill-rule="nonzero"></path>
                    <path d="M10.9538814,23.6205588 C10.0513145,23.6205588 9.14875157,23.3949175 8.3590075,22.8308147 C7.23080282,22.0410707 5.87695245,22.3795313 5.87695245,22.3795313 C5.31285011,22.4923517 4.63592492,22.1538899 4.52310604,21.4769643 C4.41028557,20.912862 4.74874737,20.2359368 5.42567295,20.1231179 C5.53849342,20.1231179 7.68208628,19.6718345 9.60001916,20.912862 C11.0666884,21.8154289 13.09746,20.8000415 13.5487435,20.3487597 C15.5795151,18.3179881 17.1590032,19.1077321 18.1743811,19.6718345 C18.5128429,19.8974758 18.8513062,20.0102963 19.1897669,20.1231179 C19.7538692,20.2359384 20.2051527,20.8000431 20.0923338,21.4769643 C19.9795133,22.0410667 19.4154086,22.4923501 18.7384874,22.3795313 C18.174385,22.2667108 17.6102827,22.0410695 17.1589992,21.8154289 C16.1436134,21.3641455 15.9179717,21.2513266 15.0154088,22.0410703 C14.3384836,22.8308143 12.7589954,23.6205588 10.9538656,23.6205588 L10.9538814,23.6205588 Z" id="路径" fill="#7E90A5" fill-rule="nonzero"></path>
                </g>
            </g>
        </g>
    </g>
</svg>