<?xml version="1.0" encoding="UTF-8"?>
<svg width="24px" height="19px" viewBox="0 0 24 19" version="1.1" xmlns="http://www.w3.org/2000/svg" xmlns:xlink="http://www.w3.org/1999/xlink">
    <!-- Generator: Sketch 59 (86127) - https://sketch.com -->
    <title>水利工程_选中</title>
    <desc>Created with Sketch.</desc>
    <g id="设计稿" stroke="none" stroke-width="1" fill="none" fill-rule="evenodd">
        <g id="一张图" transform="translate(-891.000000, -748.000000)">
            <g id="编组-3" transform="translate(428.000000, 745.000000)">
                <g id="水利工程_选中" transform="translate(463.000000, 0.000000)">
                    <rect id="矩形" fill="#D8D8D8" opacity="0" x="0" y="0" width="24" height="24"></rect>
                    <path d="M22.9809621,20.1244509 L22.9809621,20.1244509 C23.2660415,20.1594484 23.4799969,20.4019678 23.479186,20.6891853 C23.479186,21.0041669 23.2248482,21.2591444 22.9098666,21.2591444 L10.7475531,21.2591444 L10.7475531,3.13361398 C10.7475531,3.07102422 10.7997291,3.01818848 10.8623367,3.01818848 L16.9428514,3.01818848 C17.0054412,3.01818848 17.0582769,3.07036444 17.0582769,3.13361398 L17.0582769,13.8658139 C17.0608804,14.2147117 17.1815306,19.4807037 22.98098,20.1243617 L22.9809621,20.1244509 Z M0.128745885,15.8535826 L10.8805073,15.8535826 L10.8805073,16.8702649 L0.128745885,16.8702649 L0.128745885,15.8535826 Z M1.14476846,15.8653159 L1.14476846,21.2598042 L0.127426329,21.2598042 L0.127426329,15.8653159 L1.14476846,15.8653159 L1.14476846,15.8653159 Z M10.8811493,21.2584846 L0.315249099,21.2584846 L0.3152491,21.2584846 C0.212638452,21.2581351 0.129441327,21.175232 0.128728054,21.0726233 L0.128728054,20.4289652 C0.128728054,20.3265748 0.212858675,20.2424442 0.3152491,20.2424442 L10.8798475,20.2424442 L10.8798475,21.2598042 L10.8811493,21.2584846 Z M0.369368734,13.7660982 C2.20579861,13.7745862 1.80408292,11.5710166 2.67010406,11.5710166 C3.65092659,11.5710166 3.30985698,13.8215374 4.81042415,13.7850178 C6.34488965,13.7478563 6.07687709,11.5710166 6.9324666,11.5808062 C7.85068154,11.5710166 7.4698291,13.8606783 9.18038402,13.7589298 C10.8929004,13.6585009 10.7461622,11.8651349 10.7461622,11.8651349 L10.7461622,14.328247 C10.7461622,14.328247 10.1038059,14.8114898 9.19604037,14.8903957 C8.2882749,14.9693016 7.244185,14.097396 7.00290237,13.6956803 C6.52031929,14.2310813 5.81731683,14.8982502 4.79999252,14.8982502 C3.90003739,14.9034308 2.96358048,14.1339156 2.72228002,13.6774205 C2.21360895,14.2389095 1.73364715,14.8382198 0.369368734,14.7827984 C-0.283419265,14.4436725 0.0733066942,13.8978399 0.369368734,13.7661161 L0.369368734,13.7660982 Z M0.369368734,9.48026897 C2.20579861,9.48811498 1.80408292,7.28452752 2.67010406,7.28452752 C3.65092659,7.28452752 3.30985698,9.53504839 4.81042415,9.49852878 C6.34488965,9.46200917 6.07687709,7.28452752 6.9324666,7.2943172 C7.85068154,7.28452752 7.4698291,9.57483122 9.18038402,9.4724408 C10.8902792,9.3700682 10.7461622,7.57864589 10.7461622,7.57864589 L10.7461622,10.0424177 C10.7461622,10.0424177 10.1038059,10.5250008 9.19604037,10.6039067 C8.28565362,10.685416 7.244185,9.81090695 7.00290237,9.40919126 C6.52031929,9.94525203 5.81731683,10.6124033 4.79999252,10.6124033 C3.90003739,10.6176016 2.96358048,9.84808634 2.72228002,9.39093146 C2.21360895,9.95308021 1.73364715,10.5517307 0.369368734,10.4963094 C-0.283419265,10.1604467 0.0733066942,9.61395428 0.369368734,9.48026897 L0.369368734,9.48026897 Z M0.369368734,5.19574145 C2.20644055,5.20421157 1.80472486,3 2.670746,3 C3.65156853,3 3.31051676,5.25118064 4.8110661,5.21400125 C6.34554942,5.17814142 6.07751904,3 6.93312638,3.01043163 C7.85132349,3 7.47048888,5.29032153 9.1810438,5.18791327 C10.8909389,5.08552285 10.746822,3.29345859 10.746822,3.29345859 L10.746822,5.75853215 C10.746822,5.75853215 10.1044656,6.24111524 9.19670015,6.32068091 C8.28631339,6.40219025 7.24482695,5.52702137 7.00356215,5.12530568 C6.52097907,5.66136646 5.8179766,6.32853537 4.80063447,6.32853537 C3.90069717,6.33371598 2.96422243,5.56420076 2.7229398,5.10704588 C2.21426873,5.66919463 1.73428909,6.26784517 0.370028512,6.21306575 C-0.282759487,5.87395765 0.0739664723,5.32746525 0.370028512,5.19574145 L0.369368734,5.19574145 Z" id="形状" fill="#0D7DD9" fill-rule="nonzero"></path>
                </g>
            </g>
        </g>
    </g>
</svg>