<?xml version="1.0" encoding="UTF-8"?>
<svg width="24px" height="24px" viewBox="0 0 24 24" version="1.1" xmlns="http://www.w3.org/2000/svg" xmlns:xlink="http://www.w3.org/1999/xlink">
    <!-- Generator: Sketch 59 (86127) - https://sketch.com -->
    <title>水环境_选中</title>
    <desc>Created with Sketch.</desc>
    <g id="设计稿" stroke="none" stroke-width="1" fill="none" fill-rule="evenodd">
        <g id="一张图" transform="translate(-816.000000, -745.000000)">
            <g id="编组-3" transform="translate(428.000000, 745.000000)">
                <g id="水环境_选中" transform="translate(388.000000, 0.000000)">
                    <rect id="矩形" fill="#D8D8D8" opacity="0" x="0" y="0" width="24" height="24"></rect>
                    <path d="M17.6747633,2.0455784 C17.6747633,2.0455784 15.9903863,4.18542464 14.4549678,6.47422939 C16.3284075,9.38178485 18.1044513,12.7218929 18.1044513,14.9648643 C18.1044513,16.3541888 17.7950759,17.6661695 17.2622628,18.8205979 C17.3940338,18.8349209 17.5429923,18.8349209 17.6919508,18.8349209 C20.9117462,18.8349209 23.5099263,16.0304905 23.5099263,12.5729344 C23.5070617,9.12110747 17.6747633,2.0455784 17.6747633,2.0455784 L17.6747633,2.0455784 Z M8.4908984,0.424222347 C8.4908984,0.424222347 1.80208853,8.90053429 0.796618613,12.4612155 C0.573180853,13.2718935 0.4557328,14.114082 0.4557328,14.9534059 C0.4557328,19.7229427 4.04505989,23.5929993 8.48803381,23.5929993 C12.9338723,23.5929993 16.5203356,19.7258073 16.5203356,14.9534059 C16.5231994,10.1838691 8.4908984,0.424222347 8.4908984,0.424222347 Z M8.51667968,21.8341431 L8.47371088,21.8341431 C8.13568965,21.848466 7.85209557,21.5534136 7.85209557,21.1982049 C7.83777264,20.8429961 8.1041792,20.5479437 8.44220043,20.5336207 C13.5096542,20.1955995 13.303404,15.2771042 13.2890811,15.070854 C13.2747581,14.7156452 13.5239772,14.4062699 13.864863,14.377624 C14.2028842,14.3633011 14.5008012,14.6297076 14.5122596,14.9992393 C14.5294471,15.056531 14.7958537,21.4216426 8.51667968,21.8341431 L8.51667968,21.8341431 Z" id="形状" fill="#0D7DD9" fill-rule="nonzero"></path>
                </g>
            </g>
        </g>
    </g>
</svg>