<?xml version="1.0" encoding="UTF-8"?>
<svg width="1440px" height="900px" viewBox="0 0 1440 900" version="1.1" xmlns="http://www.w3.org/2000/svg" xmlns:xlink="http://www.w3.org/1999/xlink">
    <!-- Generator: Sketch 59 (86127) - https://sketch.com -->
    <title>登录</title>
    <desc>Created with Sketch.</desc>
    <defs>
        <linearGradient x1="50%" y1="0%" x2="50%" y2="100%" id="linearGradient-1">
            <stop stop-color="#1081EB" offset="0%"></stop>
            <stop stop-color="#1D66F4" offset="100%"></stop>
        </linearGradient>
        <linearGradient x1="50%" y1="0%" x2="50%" y2="100%" id="linearGradient-2">
            <stop stop-color="#2A82F5" offset="0%"></stop>
            <stop stop-color="#106DE1" offset="100%"></stop>
        </linearGradient>
        <linearGradient x1="50%" y1="0%" x2="50%" y2="100%" id="linearGradient-3">
            <stop stop-color="#1456E8" offset="0%"></stop>
            <stop stop-color="#106EE0" offset="100%"></stop>
        </linearGradient>
        <linearGradient x1="0%" y1="60.8253205%" x2="100%" y2="60.8253205%" id="linearGradient-4">
            <stop stop-color="#3DBCFF" offset="0%"></stop>
            <stop stop-color="#1353E8" offset="100%"></stop>
        </linearGradient>
        <linearGradient x1="50%" y1="0%" x2="50%" y2="100%" id="linearGradient-5">
            <stop stop-color="#2A82F5" offset="0%"></stop>
            <stop stop-color="#106CE1" offset="100%"></stop>
        </linearGradient>
        <linearGradient x1="50%" y1="0%" x2="50%" y2="100%" id="linearGradient-6">
            <stop stop-color="#1456E8" offset="0%"></stop>
            <stop stop-color="#106DE0" offset="100%"></stop>
        </linearGradient>
        <linearGradient x1="50%" y1="0%" x2="50%" y2="100%" id="linearGradient-7">
            <stop stop-color="#1456E8" offset="0%"></stop>
            <stop stop-color="#1167E3" offset="100%"></stop>
        </linearGradient>
        <linearGradient x1="50%" y1="0%" x2="50%" y2="100%" id="linearGradient-8">
            <stop stop-color="#2A82F5" offset="0%"></stop>
            <stop stop-color="#1167E3" offset="100%"></stop>
        </linearGradient>
        <linearGradient x1="50%" y1="0%" x2="50%" y2="100%" id="linearGradient-9">
            <stop stop-color="#2A82F5" offset="0%"></stop>
            <stop stop-color="#1263E5" offset="100%"></stop>
        </linearGradient>
        <linearGradient x1="50%" y1="0%" x2="50%" y2="100%" id="linearGradient-10">
            <stop stop-color="#1456E8" offset="0%"></stop>
            <stop stop-color="#1264E5" offset="100%"></stop>
        </linearGradient>
        <polygon id="path-11" points="0.0356668008 0.0014765625 8.24153619 0.0014765625 8.24153619 7.04162109 0.0356668008 7.04162109"></polygon>
    </defs>
    <g id="登录" stroke="none" stroke-width="1" fill="none" fill-rule="evenodd">
        <path d="M584.800781,-1.42108547e-14 C481.865885,79.8723958 396.964844,126.71875 330.097656,140.539063 C229.796875,161.269531 160.886719,148.347656 109.46875,164.109375 C75.1901042,174.617187 38.7005208,204.072917 1.11022302e-16,252.476562 L-0.8359375,-1.42108547e-14 L584.800781,-1.42108547e-14 Z" id="路径-15" fill="#127FE7"></path>
        <path d="M441.976562,-7.10542736e-15 C386.252604,20.4713542 328.854167,34.7773438 269.78125,42.9179688 C206.430119,51.648159 167.214844,38.890625 113.34375,52.8828125 C85.2916791,60.1689062 47.2317833,83.6480728 -0.8359375,123.320312 L-0.8359375,-7.10542736e-15 L441.976562,-7.10542736e-15 Z" id="路径-14" fill="#278BEE"></path>
        <path d="M1439,108.804687 C1433.65365,223.541667 1404.48047,294.24349 1351.48047,320.910156 C1271.98047,360.910156 1185.71484,352.773438 1141.70703,382.773437 C1097.69922,412.773437 1148.32812,449 1045.66406,512 C943,575 987.042969,634.129184 880,678.5 C772.957031,722.870816 746,678.5 680.105469,711.890625 C605.733073,751.296875 557.393229,813.257998 535.085938,897.773994 L1139.08594,897.773994 L1438,897.773994 L1439,108.804687 Z" id="路径-16" fill="url(#linearGradient-1)"></path>
        <path d="M1328.92969,787.09375 C1280,799.808594 1262.38672,771 1171.5,771 C1099.16667,771 1010,813.257998 904,897.773994 L1439,897.773994 L1438,586.112844 C1421.35417,689.999894 1384.9974,756.993529 1328.92969,787.09375 Z" id="路径-17" fill="#336FF6"></path>
        <g id="编组-5" transform="translate(159.000000, 113.000000)">
            <polygon id="矩形" fill="url(#linearGradient-2)" points="0 26.75 52 48.75 52 336.75 0 314.75"></polygon>
            <polygon id="矩形" fill="url(#linearGradient-3)" transform="translate(78.000000, 181.750000) scale(-1, 1) translate(-78.000000, -181.750000) " points="52 26.75 104 48.75 104 336.75 52 314.75"></polygon>
            <polygon id="路径-18" fill="url(#linearGradient-4)" points="52 0 0 26.9882813 52 48.75 104 26.75"></polygon>
        </g>
        <g id="编组-5" transform="translate(506.000000, 200.000000)">
            <polygon id="矩形" fill="url(#linearGradient-5)" points="0 26.75 52 44.066129 52 270.75 0 253.433871"></polygon>
            <polygon id="矩形" fill="url(#linearGradient-6)" transform="translate(78.000000, 148.750000) scale(-1, 1) translate(-78.000000, -148.750000) " points="52 26.75 104 44.066129 104 270.75 52 253.433871"></polygon>
            <polygon id="路径-18" fill="url(#linearGradient-4)" points="52 0 0 26.9882813 52 48.75 104 26.75"></polygon>
        </g>
        <g id="编组-5" transform="translate(319.000000, 405.000000)">
            <polygon id="矩形" fill="url(#linearGradient-7)" transform="translate(78.000000, 120.250000) scale(-1, 1) translate(-78.000000, -120.250000) " points="52 26.75 104 40.0209677 104 213.75 52 200.479032"></polygon>
            <polygon id="矩形" fill="url(#linearGradient-8)" points="0 26.75 52 40.0209677 52 213.75 0 200.479032"></polygon>
            <polygon id="路径-18" fill="url(#linearGradient-4)" points="52 0 0 26.9882813 52 48.75 104 26.75"></polygon>
        </g>
        <g id="编组-5" transform="translate(105.000000, 575.000000)">
            <polygon id="矩形" fill="url(#linearGradient-9)" points="0 26.75 52 35.0532258 52 143.75 0 135.446774"></polygon>
            <polygon id="矩形" fill="url(#linearGradient-10)" transform="translate(78.000000, 85.250000) scale(-1, 1) translate(-78.000000, -85.250000) " points="52 26.75 104 35.0532258 104 143.75 52 135.446774"></polygon>
            <polygon id="路径-18" fill="url(#linearGradient-4)" points="52 0 0 26.9882813 52 48.75 104 26.75"></polygon>
        </g>
        <g id="定位" transform="translate(247.000000, 361.000000)">
            <polyline id="路径-19" stroke-opacity="0.5" stroke="#15E3FF" points="454.011719 36.453125 398.34375 69 229.738281 9.484375 133.414062 63.3632813 204.789062 90 17.8242188 194 297.511719 295.539063 0 536.773994"></polyline>
            <path d="M453.5,0 C461.899201,0 468,6.08692701 468,14.4780705 C468,20.3725568 459.981484,30.3546472 455.680843,35.7188 L455.680843,35.7188 L455.361233,36.1130157 C454.905318,36.67618 454.228498,37 453.504672,37 C452.77615,37 452.099325,36.6761826 451.64811,36.1130157 L451.64811,36.1130157 L451.3285,35.7188 C447.018442,30.3546472 439,20.3725568 439,14.4780705 C439,6.49519617 445.505034,0 453.5,0 Z M453.424811,7.97354065 C450.46843,7.97354065 448.066651,10.3716708 448.066651,13.3235968 C448.066651,16.2755068 450.468414,18.673653 453.424811,18.673653 C456.381192,18.673653 458.782971,16.2755228 458.782971,13.3235968 C458.782971,10.3716868 456.381208,7.97354065 453.424811,7.97354065 Z" id="形状结合" fill="#15E3FF" fill-rule="nonzero"></path>
        </g>
        <ellipse id="椭圆形" fill="#0C58D8" cx="570" cy="593" rx="36" ry="12"></ellipse>
        <g id="2.人物组件/8.程序员/走路/看电脑" transform="translate(538.000000, 475.000000)">
            <path d="M23.2470984,110.908744 C23.2470984,110.908744 22.9317469,113.136455 26.0905359,115.292447 C27.2751609,116.100759 27.9143016,117.776025 26.8077234,118.094963 C26.0453953,118.314759 24.5262234,117.6444 22.9595906,116.884181 C20.7702703,115.821689 21.4735359,114.763838 20.2068563,114.386892 C19.4725828,114.168361 17.6093719,113.311322 17.64945,112.80697 C17.7196922,111.925673 17.9327391,111.812822 18.6743953,110.653509 C23.3259891,103.382705 24.7010906,106.529259 23.2470984,110.908744" id="Fill-1" fill="#253368" fill-rule="evenodd"></path>
            <path d="M19.4635125,109.108856 L27.6776297,89.9048953 C28.3427156,88.3496531 30.4141219,87.7978406 32.1965438,88.7006531 C33.9175828,89.5722469 34.6902469,91.4605594 33.9137859,92.8976766 L23.96745,111.306192 C23.96745,111.306192 21.7317234,111.297333 19.4635125,109.108856" id="Fill-3" fill="#4E5C93" fill-rule="evenodd"></path>
            <path d="M31.3848773,92.7905625 L31.3848773,92.7905625 C33.2044242,92.8829531 34.7655727,91.6382109 34.9193461,89.9724375 L36.6317367,71.4019219 C36.8304398,69.2461406 35.0381039,67.3546641 32.6831977,67.2350625 C30.3282914,67.11525 28.3532836,68.8154062 28.3326117,70.9804687 L28.1543695,89.6288203 C28.1383383,91.3015547 29.5653305,92.6981719 31.3848773,92.7905625" id="Fill-5" fill="#4E5C93" fill-rule="evenodd"></path>
            <path d="M33.9622805,41.3901984 L34.1135227,35.9075109 L29.181382,35.7303234 L28.4403586,40.9214953 C28.2165539,42.4893937 29.3480227,43.9263 30.9247805,44.0764875 C32.5238977,44.2287844 33.9179836,42.9958547 33.9622805,41.3901984" id="Fill-7" fill="#FFC999" fill-rule="evenodd"></path>
            <path d="M35.4393492,35.4508945 C35.4393492,35.4508945 36.2658023,34.7486836 36.5298961,35.3021836 C36.7939898,35.8556836 36.0569742,37.6686914 35.2393805,37.6368398 C34.147568,37.5944414 35.4393492,35.4508945 35.4393492,35.4508945" id="Fill-9" fill="#BDC9E0" fill-rule="evenodd"></path>
            <path d="M30.238432,39.7681102 C30.238432,39.7681102 31.7042367,41.2311727 33.9439711,40.1446336 C35.5561664,39.3626883 36.0757055,36.0081492 36.0259242,33.5036883 C35.9978695,32.0866102 35.4262289,31.2694383 34.1011195,30.7205789 C32.7760102,30.1719305 29.0738461,29.7943523 28.645432,33.9143836 C28.1682914,38.5033289 30.238432,39.7681102 30.238432,39.7681102" id="Fill-11" fill="#FFC999" fill-rule="evenodd"></path>
            <path d="M33.4955188,33.9677767 C33.5096589,33.9285408 33.5529288,33.9081966 33.5921647,33.9223368 C33.6270411,33.9349058 33.6469906,33.9704908 33.6410622,34.0058001 L33.6376046,34.0189826 L33.3369844,34.8527812 L33.5716816,37.2316644 C33.5759062,37.2745065 33.54375,37.3112325 33.5024321,37.3143798 L33.4897891,37.3142891 L32.501336,37.2256954 C32.4597964,37.2219722 32.4291401,37.1852795 32.4328632,37.1437399 C32.436214,37.1063543 32.4662702,37.0777841 32.5025303,37.0751581 L32.5148187,37.0752671 L33.4123594,37.1556562 L33.1851293,34.8506574 C33.1843948,34.8432087 33.1847737,34.8357133 33.1862358,34.8284144 L33.1892375,34.8176439 L33.4955188,33.9677767 Z" id="Stroke-13" fill="#DD936F" fill-rule="nonzero"></path>
            <path d="M31.6292099,37.8108236 C31.6491846,37.6864578 31.709734,37.6224436 31.7644508,37.6678438 L31.7969059,37.6928358 C31.8110802,37.7032208 31.8285847,37.7155538 31.8493412,37.729516 L31.8711788,37.7440095 C31.9616075,37.8032524 32.0676345,37.8627059 32.1882697,37.9183291 C32.5577591,38.0886953 32.9787765,38.1860689 33.4420635,38.1725608 C33.5003075,38.1708625 33.5481293,38.2768031 33.5488853,38.4091857 C33.5496236,38.5415683 33.5030133,38.6502623 33.4447693,38.6519605 C32.9659097,38.6659227 32.5300167,38.5651087 32.1463326,38.3881974 C32.0410923,38.3396727 31.9461101,38.2881603 31.86195,38.2360282 L31.8127572,38.2046935 C31.7545081,38.1665326 31.7139698,38.1363446 31.6921164,38.1182122 C31.6373995,38.0728119 31.6092353,37.9351894 31.6292099,37.8108236 Z" id="Stroke-15" fill="#FF7A46" fill-rule="nonzero"></path>
            <g id="分组" stroke-width="1" fill-rule="evenodd" transform="translate(28.195312, 28.686023)">
                <mask id="mask-12" fill="white">
                    <use xlink:href="#path-11"></use>
                </mask>
                <g id="Clip-18"></g>
                <path d="M0.744630469,7.04162109 L0.0987398438,5.37394922 C0.0987398438,5.37394922 -0.183072656,3.03401953 0.444677344,2.10188672 C1.41878672,0.655277344 3.29718516,0.883300781 4.45502109,0.586511719 C5.61285703,0.289722656 5.63964609,-0.0872226562 6.08662266,0.0201445313 C6.53359922,0.127722656 8.16709922,1.52602734 8.23691953,2.82519141 C8.29830234,3.96762891 7.72729453,6.80558203 7.72729453,6.80558203 C7.72729453,6.80558203 7.66295859,4.23573047 7.48492734,3.54111328 C6.63632578,3.08337891 3.42058359,2.74545703 2.03662266,3.02621484 C2.03662266,3.02621484 1.83433359,3.87861328 1.70671641,4.48062891 C0.936583594,4.92380859 0.744630469,7.04162109 0.744630469,7.04162109" id="Fill-17" fill="#253368" mask="url(#mask-12)"></path>
            </g>
            <path d="M30.5833666,40.0096647 C30.6020996,39.9530893 30.6474927,39.930283 30.6847549,39.9587252 C31.8922063,40.880371 32.875036,40.8931209 33.62687,40.3672993 C33.7329285,40.2931235 33.8241419,40.2138742 33.9002937,40.1349654 L33.9349533,40.0979832 C33.9606681,40.0696591 33.9784511,40.0478364 33.9882189,40.0345048 C34.0192353,39.9921721 34.0669815,39.9960303 34.0948632,40.0431225 C34.1227449,40.0902146 34.1202037,40.1627078 34.0891873,40.2050405 C34.0706551,40.2303343 34.0360159,40.2719543 33.9854312,40.3243703 C33.9024994,40.4103044 33.803984,40.495898 33.6900589,40.5755755 C32.8969067,41.1302945 31.8658602,41.1169191 30.6169169,40.1636026 C30.5796546,40.1351604 30.5646337,40.06624 30.5833666,40.0096647 Z" id="Stroke-19" fill="#DD936F" fill-rule="nonzero"></path>
            <path d="M32.7133098,34.6736088 L33.4425208,34.7962907 C33.5257938,34.8103004 33.5893944,35.0179664 33.5845768,35.2601255 C33.5800803,35.4861407 33.5175731,35.6623218 33.4415548,35.6734176 L33.4250745,35.6732265 L32.6958636,35.5505446 C32.6125906,35.5365348 32.5489899,35.3288689 32.5538076,35.0867097 C32.5583041,34.8606945 32.6208113,34.6845135 32.6968296,34.6734176 L32.7133098,34.6736088 Z" id="Stroke-21" fill="#393C68" fill-rule="nonzero"></path>
            <path d="M32.7178663,35.218724 C32.8554678,35.1164995 32.9961289,35.0646194 33.1331407,35.0930956 C33.2965589,35.1270601 33.4397736,35.2754807 33.5473351,35.554712 C33.6004809,35.6926795 33.5914474,35.8969826 33.527158,36.0110357 C33.4674608,36.1169422 33.3811109,36.1077911 33.3265282,35.995479 L33.3145227,35.9677349 C33.2607604,35.8281672 33.1916289,35.7565227 33.1040231,35.7383149 C33.0165954,35.7201441 32.9167051,35.7569866 32.8166792,35.8312961 L32.7769811,35.8626554 C32.7466973,35.88808 32.72372,35.9110378 32.7103879,35.9263065 C32.6367988,36.0105847 32.5453072,35.9508822 32.5060357,35.7929571 C32.4667641,35.6350321 32.494584,35.4386875 32.5681731,35.3544093 L32.6000963,35.3202639 C32.6305634,35.289564 32.6704426,35.2539551 32.7178663,35.218724 Z" id="Stroke-23" fill="#393C68" fill-rule="nonzero"></path>
            <path d="M32.3801263,38.5444618 L33.177344,38.7632323 C33.2331976,38.7785595 33.275259,38.9658689 33.2712907,39.1815994 C33.2677192,39.3757569 33.228081,39.5267645 33.1794717,39.5438508 L33.1629736,39.5444618 L32.3657558,39.3256912 C32.3099022,39.310364 32.2678409,39.1230546 32.2718091,38.9073241 C32.2753806,38.7131666 32.3150189,38.5621591 32.3636281,38.5450727 L32.3801263,38.5444618 Z" id="Stroke-25" fill="#DD936F" fill-rule="nonzero"></path>
            <path d="M28.8224554,34.3854551 L30.0167835,34.6181181 C30.0999518,34.6343199 30.1622051,34.8188026 30.1558301,35.0301717 C30.1498802,35.2274496 30.0862503,35.3784239 30.0101739,35.3845044 L29.9936977,35.3835536 L28.7993696,35.1508906 C28.7162013,35.1346889 28.653948,34.9502062 28.660323,34.738837 C28.666273,34.5415591 28.7299028,34.3905849 28.8059793,34.3845044 L28.8224554,34.3854551 Z" id="Stroke-27" fill="#393C68" fill-rule="nonzero"></path>
            <path d="M30.1114266,34.397325 L32.3925047,34.5591141 C32.5519734,34.5705047 32.6717859,34.7082469 32.6595516,34.8675047 C32.6363484,35.1645047 32.5857234,35.6397469 32.4796219,36.0420047 C32.354325,36.5166141 31.9008094,36.7804969 31.4099578,36.7684734 C30.7969734,36.7532859 30.2485359,36.7151062 29.9939344,36.37845 C29.6058094,35.8652391 29.7657,35.0771766 29.8045125,34.6565672 C29.8188562,34.5023719 29.9568094,34.3863562 30.1114266,34.397325" id="Fill-29" fill="#FFFFFF" fill-rule="evenodd"></path>
            <path d="M30.1149858,34.3471425 C29.932955,34.334229 29.7712858,34.4706014 29.7544202,34.6519074 L29.7447822,34.7447723 L29.7255278,34.9114981 C29.6918512,35.2068564 29.6800827,35.4099358 29.6940975,35.6222752 C29.7148381,35.9365184 29.7953233,36.1992336 29.9538085,36.4087959 C30.1848072,36.7142424 30.56887,36.7979584 31.4087117,36.8187666 C31.944563,36.8318923 32.4015685,36.5347533 32.5282639,36.0548462 C32.6185006,35.7127361 32.6762798,35.2992951 32.7097073,34.8714231 C32.724073,34.6844219 32.5835084,34.5223204 32.396089,34.5089333 L30.1149858,34.3471425 Z M30.1078666,34.4475075 L32.3889454,34.6092966 C32.5208338,34.6187172 32.6194687,34.7324647 32.6093908,34.8636513 C32.5763986,35.28595 32.5193601,35.6940912 32.430977,36.0291739 C32.3169573,36.4610666 31.9029842,36.7302265 31.4111898,36.7181799 L31.301388,36.7149889 C30.5702879,36.6903582 30.2290717,36.6059652 30.0340602,36.3481042 C29.8888879,36.1561453 29.8140461,35.911851 29.7944962,35.6156487 C29.7829865,35.441265 29.7895897,35.2718143 29.8121891,35.0465095 L29.8502926,34.7050398 C29.8519088,34.6894782 29.8533272,34.6750732 29.8546083,34.6611899 C29.8663912,34.5345239 29.9802791,34.4384563 30.1078666,34.4475075 Z" id="Stroke-31" fill="#253368" fill-rule="nonzero"></path>
            <path d="M33.6712078,34.6244414 L36.2539266,34.8077461 C36.3226922,35.1918633 36.1271531,36.6448008 35.6616141,36.9261914 C35.0458875,37.1949258 33.8559891,36.9753398 33.6923016,36.6452227 C33.4433953,36.144457 33.4037391,35.2201289 33.4366453,34.8256758 C33.4467703,34.7054414 33.5509734,34.615793 33.6712078,34.6244414" id="Fill-33" fill="#FFFFFF" fill-rule="evenodd"></path>
            <path d="M33.6747694,34.574259 C33.527157,34.5636413 33.3989547,34.6737229 33.3865142,34.8214542 C33.3398486,35.3808428 33.4316562,36.2338672 33.6472512,36.667615 C33.8334557,37.0431436 35.0703833,37.2391261 35.6817381,36.9722997 C36.103366,36.7179633 36.4034679,35.3575816 36.3034479,34.7988807 C36.2993898,34.7762127 36.2804587,34.759194 36.2574882,34.7575637 L33.6747694,34.574259 Z M36.2102344,34.8550312 L36.2132266,34.8778288 C36.2762269,35.4351596 35.9929846,36.667113 35.6355901,36.8831367 C35.0735942,37.1279417 33.8952338,36.9412388 33.7373736,36.6228739 C33.531494,36.2086721 33.4415064,35.3725583 33.4867798,34.8298581 C33.4946017,34.7369725 33.5749767,34.6679581 33.6675984,34.6746204 L36.2102344,34.8550312 Z" id="Stroke-35" fill="#253368" fill-rule="nonzero"></path>
            <path d="M29.8774222,34.24567 L32.699766,34.7218924 C32.7827861,34.7359006 32.8435381,34.8639556 32.8354595,35.0079111 C32.8279194,35.1422696 32.7630851,35.2429924 32.6869756,35.2444357 L32.6705106,35.2432015 L29.8481669,34.7669791 C29.7651467,34.7529709 29.7043947,34.6249159 29.7124733,34.4809604 C29.7200134,34.3466019 29.7848477,34.2458791 29.8609572,34.2444357 L29.8774222,34.24567 Z" id="Stroke-37" fill="#393C68" fill-rule="nonzero"></path>
            <path d="M33.5057079,34.5577479 L36.279536,34.9008562 C36.362814,34.9111572 36.4264892,35.0665108 36.4217585,35.2478481 C36.4173431,35.4170962 36.3548992,35.549161 36.2788849,35.5576422 L36.2624046,35.5575366 L33.4885765,35.2144283 C33.4052985,35.2041272 33.3416233,35.0487736 33.346354,34.8674364 C33.3507694,34.6981882 33.4132133,34.5661235 33.4892276,34.5576422 L33.5057079,34.5577479 Z" id="Stroke-39" fill="#393C68" fill-rule="nonzero"></path>
            <path d="M28.7061398,34.4086523 C28.4487961,34.0772695 28.0073039,33.9443789 27.6501867,34.2542461 C27.0747492,34.7533242 27.3215461,36.8738789 28.6972805,37.1143477 C29.2315852,37.1000039 29.1079758,34.9258711 28.7061398,34.4086523" id="Fill-41" fill="#FFC999" fill-rule="evenodd"></path>
            <path d="M28.006083,34.5662031 C28.0386266,34.5290287 28.1168803,34.5142198 28.1808676,34.5331265 L28.2215527,34.5460641 C28.2456976,34.5541657 28.2752735,34.5647128 28.3090534,34.5776885 C28.4019125,34.613358 28.494672,34.6555676 28.5816181,34.704381 C28.9302932,34.9001347 29.0875846,35.1416886 28.9317217,35.4193323 C28.8747817,35.5205923 28.7837062,35.5727996 28.6253061,35.6177363 L28.553306,35.6367841 C28.4134304,35.6725124 28.3774979,35.6914946 28.3554957,35.7561985 C28.3124301,35.8832575 28.4022082,35.9836565 28.5888321,36.0656082 C28.6459517,36.0906909 28.7078149,36.1118577 28.7696574,36.1290194 L28.8089418,36.139401 C28.8261193,36.1436937 28.8393712,36.1466442 28.84767,36.1482766 C28.9156662,36.1616511 28.9521256,36.2045172 28.9291044,36.2440206 C28.9060832,36.2835241 28.832299,36.3047058 28.7643028,36.2913312 C28.6783549,36.2744257 28.55575,36.2404021 28.4320762,36.1860936 C28.173227,36.0724258 28.0355428,35.9184532 28.1004434,35.726973 C28.1397914,35.6112588 28.2263439,35.559207 28.408224,35.5092266 L28.4783844,35.4909113 C28.6017398,35.4589451 28.6498091,35.434317 28.6845882,35.3724671 C28.8052773,35.1574796 28.6846733,34.9722669 28.4009658,34.8129874 C28.3263215,34.7710804 28.2459482,34.7345071 28.1656746,34.7036721 L28.1144292,34.6847397 C28.0919192,34.6767817 28.0743597,34.6710985 28.0630168,34.667747 C27.9990295,34.6488402 27.9735394,34.6033775 28.006083,34.5662031 Z" id="Stroke-43" fill="#DD936F" fill-rule="nonzero"></path>
            <path d="M30.2886173,33.5490432 C30.3222638,33.3879504 30.4399549,33.2967548 30.5514879,33.3453521 C31.0352811,33.5561511 31.7254729,33.7310085 32.2440604,33.722667 C32.3605507,33.7207932 32.4560365,33.8556702 32.4573472,34.0239232 C32.4586311,34.1921762 32.3652487,34.3300912 32.2487584,34.331965 C31.6818496,34.3410838 30.9512138,34.1559801 30.4296434,33.9287207 C30.3181104,33.8801234 30.2549709,33.710136 30.2886173,33.5490432 Z" id="Stroke-45" fill="#253368" fill-rule="nonzero"></path>
            <path d="M33.8841857,33.6274836 C34.2562831,33.5319919 34.6536153,33.5329877 35.0330456,33.6979824 C35.2271573,33.7823916 35.407003,33.9075667 35.5685977,34.0772904 C35.6591132,34.1723592 35.6730374,34.3445461 35.5996983,34.4618805 C35.5263592,34.579215 35.3935287,34.5972648 35.3030132,34.5021959 C35.1816753,34.3747541 35.0464443,34.2806315 34.8988732,34.2164604 C34.5992543,34.0861716 34.2723618,34.0853523 33.9661155,34.1639446 C33.891223,34.1831643 33.8380206,34.2017931 33.8123528,34.212783 C33.7017332,34.260146 33.5824389,34.1822966 33.5459015,34.0389013 C33.5093642,33.8955061 33.5694197,33.7408659 33.6800394,33.6935029 L33.7163315,33.679064 C33.7577856,33.6635939 33.8144788,33.6453725 33.8841857,33.6274836 Z" id="Stroke-47" fill="#253368" fill-rule="nonzero"></path>
            <path d="M36.3646688,62.3705484 L36.3646688,62.3705484 C34.8370594,62.2726734 33.6621375,60.9808922 33.7091766,59.4507516 L34.1055281,46.5647906 C34.1622703,44.7182437 35.7371297,43.2859781 37.5807234,43.4041031 C39.4243172,43.5224391 40.8032156,45.1441266 40.6239188,46.9826578 L39.3711609,59.813775 C39.22245,61.3373766 37.8924891,62.4684234 36.3646688,62.3705484" id="Fill-53" fill="#597EF7" fill-rule="evenodd"></path>
            <path d="M36.2316094,71.6049492 L33.1432734,74.7131133 L28.6294219,72.8125664 C28.6294219,72.8125664 25.1843906,76.4754961 23.9371172,73.2684023 C22.6898437,70.0613086 24.2933906,64.2805664 24.2933906,64.2805664 L36.0493594,64.359668 C36.0493594,64.359668 37.4193984,69.3877852 36.2316094,71.6049492" id="Fill-55" fill="#ADC6FF" fill-rule="evenodd"></path>
            <path d="M51.3266133,57.4236211 L51.3534023,61.6489102 L36.3407695,62.449418 C34.7330039,62.5350586 33.3798398,61.2601523 33.3696553,59.6504883 C33.3593789,58.0406133 34.6963008,56.7486211 36.3049102,56.8140117 L51.3266133,57.4236211 Z" id="Fill-57" fill="#FFC999" fill-rule="evenodd"></path>
            <path d="M37.0838273,56.7247301 L51.2518664,57.3187301 C51.3034034,57.3208908 51.3450651,57.3597907 51.3519256,57.4096016 L51.3529151,57.4234375 L51.3797126,61.6485157 C51.3800587,61.7044437 51.3366943,61.7509236 51.2808761,61.754444 L49.3469752,61.8735864 C48.0845897,61.9501752 46.7892766,62.026764 45.5134467,62.0996024 L44.5964423,62.1514851 L42.8435577,62.2476732 C38.7699151,62.4660702 36.206672,62.5641987 35.7607613,62.4952828 C35.703196,62.4863861 35.6637423,62.4325079 35.672639,62.3749425 C35.6815358,62.3173772 35.735414,62.2779235 35.7929793,62.2868203 L35.8225951,62.2907355 C36.3530672,62.3511212 39.168891,62.2372972 43.4877318,62.0015728 L44.8655241,61.9250886 L46.1405956,61.8523006 C46.7808973,61.815316 47.4238913,61.77755 48.0630244,61.7394713 L51.1680937,61.5500156 L51.1426406,57.5251875 L37.0749914,56.9354824 C37.0216436,56.9332458 36.9792169,56.8917543 36.9743957,56.8400276 L36.9740332,56.8256883 C36.9762698,56.7723405 37.0177613,56.7299138 37.0694881,56.7250925 L37.0838273,56.7247301 Z" id="Stroke-59" fill="#597EF7" fill-rule="nonzero"></path>
            <path d="M49.3743405,57.71655 C49.602176,57.7162126 49.7915446,57.7556091 49.8227412,57.8070431 L49.8272377,57.8213481 L49.927157,61.5036841 C49.9287281,61.5619317 49.7285214,61.6094509 49.4799735,61.6098235 C49.252138,61.6101608 49.0627694,61.5707643 49.0315728,61.5193304 L49.0270762,61.5050253 L48.927157,57.8226894 C48.9255859,57.7644418 49.1257926,57.7169225 49.3743405,57.71655 Z" id="Stroke-61" fill="#597EF7" fill-rule="nonzero"></path>
            <path d="M50.2358766,60.2460224 C50.4172828,60.2449734 50.5653609,60.3909422 50.5664213,60.5723484 C50.5674703,60.7537547 50.4212906,60.9016219 50.2400953,60.9028875 C50.0586891,60.9041531 49.9106109,60.7579734 49.9095481,60.5765672 C49.9082906,60.3951609 50.0544703,60.2470828 50.2358766,60.2460224" id="Fill-63" fill="#FFFFFF" fill-rule="evenodd"></path>
            <path d="M36.2234672,61.0517883 C36.2234672,61.0517883 39.3611625,49.776968 38.5397719,43.7688352 C37.0100531,43.0590305 36.2956078,42.699382 33.7124672,42.0262805 C33.1598109,41.8824211 31.9346859,42.8626477 31.2598969,42.8303742 C30.2621625,42.7829133 28.7305453,41.514757 27.7903969,41.6740148 C24.1894828,42.2840461 22.207725,43.4558039 22.207725,43.4558039 L23.0611781,52.8558117 C23.1677016,53.5310227 23.2229672,57.9887648 23.476725,60.9330305 C23.6471625,62.9097258 23.4100688,63.8431242 25.1990297,63.8431242 C28.5250922,63.8431242 33.8708813,64.3177336 36.0483891,63.6842883 C36.9895922,63.4104914 36.6379594,62.1511945 36.2234672,61.0517883" id="Fill-65" fill="#597EF7" fill-rule="evenodd"></path>
            <polygon id="Fill-67" fill="#597EF7" fill-rule="evenodd" points="33.8842969 41.3641477 34.8419531 42.5829445 33.4320469 44.7191086 31.5513281 42.6008742"></polygon>
            <polygon id="Fill-69" fill="#597EF7" fill-rule="evenodd" points="31.382093 42.6597469 28.4606086 40.5839109 27.3074133 41.9678719 29.1986789 44.5602937"></polygon>
            <path d="M27.5842586,41.9610556 C27.626231,41.9328475 27.6817672,41.9404269 27.7148302,41.9767261 L27.7240389,41.9884703 L29.2996406,44.3330156 L31.408213,42.6021456 C31.4429812,42.5736045 31.4917753,42.5719331 31.5280952,42.5962469 L31.5410787,42.6065809 L33.611625,44.5512656 L34.6510019,42.3787656 C34.672825,42.3331462 34.7245116,42.311462 34.7714308,42.325932 L34.7853289,42.3313698 C34.8309483,42.3531929 34.8526326,42.4048795 34.8381625,42.4517988 L34.8327247,42.4656969 L33.7339512,44.7625953 C33.7066374,44.8196928 33.6350855,44.8368145 33.5852237,44.8016054 L33.5741322,44.7925456 L31.4675156,42.8139844 L29.3418573,44.5590434 C29.299752,44.5936076 29.2387479,44.5880419 29.2033403,44.5488828 L29.1943517,44.537375 L27.5568439,42.1008359 C27.525815,42.0546663 27.538089,41.9920845 27.5842586,41.9610556 Z" id="Stroke-71" fill="#1D39C4" fill-rule="nonzero"></path>
            <path d="M31.5700696,42.5795435 C31.645769,42.5756409 31.7114513,42.6174613 31.7167751,42.6729518 L31.7528607,43.0752703 L31.7886493,43.5029117 C31.8425203,44.1653901 31.8963883,44.908607 31.9466638,45.7153424 C32.1131572,48.386944 32.2013114,51.0882823 32.1706906,53.6256775 L32.1657751,53.9706516 C32.1170646,56.9308043 31.9036529,59.4339424 31.4949997,61.3377004 L31.46216,61.4858906 L31.5034279,61.5126057 C31.8836122,61.7661061 32.0846205,62.0828615 32.1287214,62.4455456 L32.1335857,62.4931113 C32.1642093,62.8612564 32.0382923,63.2509 31.8105292,63.6368629 C31.7393872,63.7574187 31.6631826,63.868835 31.5868668,63.9685842 C31.5667487,63.9948797 31.5476675,64.0189822 31.5298834,64.0407562 L31.4829684,64.0962056 C31.4412359,64.1426662 31.3560246,64.1555307 31.2926436,64.1249393 C31.2292627,64.0943478 31.2117131,64.0318847 31.2534456,63.9854241 L31.2844351,63.9491956 C31.2972336,63.9337209 31.3123709,63.9149179 31.3294574,63.8929977 L31.3471791,63.8700463 C31.4190874,63.7760581 31.4911067,63.670761 31.5583072,63.5568844 C31.7704115,63.1974566 31.8868771,62.8370597 31.8592862,62.505372 C31.8293549,62.1455504 31.6304206,61.8419438 31.2280466,61.6049582 C31.1893228,61.5821512 31.1704071,61.545799 31.1785735,61.5098811 C31.6140885,59.5943877 31.8406591,57.0266128 31.8909861,53.9682218 C31.9324195,51.4503017 31.8534113,48.7590226 31.694327,46.0885443 L31.6721411,45.7245353 C31.6252735,44.9724841 31.5752825,44.2757301 31.5250858,43.6482849 L31.4676301,42.9621749 L31.4426432,42.6870842 C31.4373194,42.6315936 31.4943701,42.583446 31.5700696,42.5795435 Z" id="Stroke-73" fill="#1D39C4" fill-rule="nonzero"></path>
            <path d="M38.3947659,46.7565467 C38.4454945,46.7617222 38.4835727,46.8036961 38.4852179,46.8532819 L38.4836179,46.8779812 L38.4162048,47.5166 C38.3692187,47.9536808 38.3163013,48.4330147 38.2580215,48.9456672 L38.2257041,49.2285464 C38.0350945,50.8888667 37.8285674,52.549211 37.6122998,54.1124216 L37.5689182,54.4237398 C37.2012487,57.0431525 36.8422404,59.1136959 36.5043428,60.431655 C36.4495819,60.6452485 36.3955388,60.8382618 36.3422184,61.010143 L36.3311719,61.04475 L36.3429923,61.0702766 C36.8519476,62.1864189 36.8296994,62.9735243 36.4683996,63.4790514 L36.4483573,63.5063466 C36.3408191,63.6489295 36.2313639,63.7344539 36.1535917,63.7740481 C36.1040187,63.7992859 36.0433726,63.7795584 36.0181347,63.7299854 C35.9928969,63.6804125 36.0126244,63.6197663 36.0621974,63.5945285 C36.0729071,63.5890761 36.0958951,63.5746905 36.1271445,63.5502733 C36.1813911,63.507887 36.2361266,63.4531969 36.287527,63.385046 C36.6260394,62.9362186 36.6501908,62.2003854 36.1322734,61.0945071 C36.1214969,61.0714967 36.1198153,61.0452635 36.1275656,61.0210655 C36.1869684,60.835598 36.2475527,60.6221136 36.3092086,60.3816266 L36.3422833,60.2504697 C36.6682212,58.9369288 37.014763,56.9225057 37.3694284,54.3957388 C37.6012081,52.7444551 37.8224346,50.9750266 38.0255733,49.2055708 L38.1192372,48.3777614 C38.1488331,48.112217 38.1767729,47.8575482 38.202964,47.6152059 L38.2843404,46.8465263 C38.2895159,46.7957977 38.3314898,46.7577195 38.3810757,46.7560742 L38.3947659,46.7565467 Z" id="Stroke-75" fill="#1D39C4" fill-rule="nonzero"></path>
            <path d="M38.2282858,47.8647179 L34.6649186,47.7853801 C34.6122324,47.7842327 34.5675487,47.8238712 34.5624308,47.8763214 L34.2456027,51.1232823 C34.242832,51.1516768 34.2522328,51.1799144 34.2714704,51.2009819 L35.9345016,53.0222163 C35.9698512,53.0609287 36.0289853,53.0660531 36.0704674,53.0339986 L37.8126002,51.6877954 C37.8336781,51.6715079 37.8474457,51.6475339 37.8508903,51.62112 L38.3259215,47.9784403 C38.3336675,47.9190417 38.2881725,47.8660509 38.2282858,47.8647179 Z M34.7537813,47.9888438 L38.111625,48.0635156 L37.6564219,51.5538281 L36.0208125,52.8177656 L34.4504531,51.0980625 L34.7537813,47.9888438 Z" id="Stroke-77" fill="#1D39C4" fill-rule="nonzero"></path>
            <path d="M32.1634266,44.827193 C32.1828328,45.0140836 32.3247938,45.1524586 32.4804656,45.1362164 C32.6363484,45.1199742 32.7468797,44.955443 32.7272625,44.7685523 C32.7078563,44.5816617 32.5658953,44.4432867 32.4102234,44.4595289 C32.2545516,44.4755602 32.1440203,44.6403023 32.1634266,44.827193" id="Fill-79" fill="#FFFFFF" fill-rule="evenodd"></path>
            <path d="M32.3218406,48.2322727 C32.3412469,48.4191633 32.4832078,48.5575383 32.6388797,48.5412961 C32.7947625,48.5250539 32.9052937,48.3605227 32.8856766,48.173632 C32.8662703,47.9867414 32.7243094,47.8483664 32.5686375,47.8646086 C32.4129656,47.8808508 32.3024344,48.045382 32.3218406,48.2322727" id="Fill-81" fill="#FFFFFF" fill-rule="evenodd"></path>
            <path d="M32.4801492,52.0333664 C32.4995555,52.220257 32.6417273,52.358632 32.7973992,52.3423898 C32.9530711,52.3261477 33.0636023,52.1616164 33.0441961,51.9747258 C33.0247898,51.7878352 32.882618,51.6494602 32.7269461,51.6657023 C32.5712742,51.6817336 32.460743,51.8464758 32.4801492,52.0333664" id="Fill-83" fill="#FFFFFF" fill-rule="evenodd"></path>
            <path d="M32.4061945,55.8228375 C32.3654836,56.0063531 32.4563977,56.1824859 32.6093273,56.2164469 C32.7620461,56.2501969 32.9189836,56.1291187 32.9596945,55.9458141 C33.0004055,55.7622984 32.9094914,55.5859547 32.7567727,55.5522047 C32.603843,55.5182437 32.4469055,55.6393219 32.4061945,55.8228375" id="Fill-85" fill="#FFFFFF" fill-rule="evenodd"></path>
            <path d="M31.861132,61.3731305 C31.7989055,61.550318 31.868093,61.7361539 32.0159602,61.7880445 C32.1636164,61.8399352 32.333843,61.7382633 32.3960695,61.5610758 C32.4582961,61.3836773 32.3891086,61.1980523 32.2414523,61.1461617 C32.0937961,61.0942711 31.9233586,61.195943 31.861132,61.3731305" id="Fill-87" fill="#FFFFFF" fill-rule="evenodd"></path>
            <path d="M19.9085695,61.5978633 L19.9085695,61.5978633 C18.4191398,61.2436992 17.4789914,59.7724102 17.7833742,58.2720117 L20.3460539,45.6372773 C20.7132961,43.8268008 22.5071086,42.6805664 24.3042961,43.1079258 C26.1014836,43.5352852 27.1876008,45.3660117 26.700757,47.1482227 L23.3031867,59.5844648 C22.8996633,61.0612383 21.3979992,61.9518164 19.9085695,61.5978633" id="Fill-89" fill="#FFC999" fill-rule="evenodd"></path>
            <path d="M24.4473328,56.1218414 L26.8615125,47.017357 C27.3483562,45.235568 26.26245,43.4044195 24.4652625,42.9772711 C22.6678641,42.5499117 20.6175516,43.7792555 20.2503094,45.589732 L18.3497625,54.8547398 C18.3497625,54.8547398 24.3855281,56.0600367 24.4473328,56.1218414" id="Fill-91" fill="#597EF7" fill-rule="evenodd"></path>
            <path d="M42.7077281,115.558629 C42.7077281,115.558629 44.2347047,117.62898 47.6495719,116.523035 C49.0352203,116.074371 50.7604781,116.995535 49.9063922,118.186066 C49.3824234,118.916543 48.0115406,119.599137 46.5212672,120.086402 C44.2874391,120.816879 44.2475719,119.731605 43.1272828,120.354715 C42.4778063,120.716051 40.6110094,121.377551 40.2730875,120.922137 C39.6828844,120.126691 39.6056813,119.897402 39.4017047,118.343848 C38.6543531,112.656973 40.5135563,110.783848 42.7077281,115.558629" id="Fill-93" fill="#253368" fill-rule="evenodd"></path>
            <path d="M38.296582,116.353758 L32.3949727,93.3210703 C31.9001133,91.45575 33.0830508,89.5600547 34.9760039,89.1852188 C36.8037773,88.8230391 38.5745977,90.0255938 38.9123086,91.8580078 L43.2373711,115.329867 C43.2373711,115.329867 41.3653008,116.82457 38.296582,116.353758" id="Fill-95" fill="#ADC6FF" fill-rule="evenodd"></path>
            <path d="M25.6163474,50.7138947 C25.6290891,50.659746 25.6833145,50.6261791 25.7374631,50.6389208 C25.7870994,50.6506007 25.8194413,50.6971384 25.8146726,50.7465219 L25.812437,50.7600366 L24.5453354,56.1448491 C24.5338051,56.1938495 24.4882427,56.2261055 24.439386,56.2222014 L24.4260029,56.2202255 L18.5661591,54.9531239 C18.5117882,54.941367 18.4772426,54.8877598 18.4889995,54.8333888 C18.4997767,54.7835488 18.5457197,54.7503676 18.5951816,54.7542393 L18.6087346,54.7562292 L24.3718594,56.0023594 L25.6163474,50.7138947 Z" id="Stroke-97" fill="#1D39C4" fill-rule="nonzero"></path>
            <path d="M50.0597438,63.1680609 L36.0081422,63.299934 C35.4738375,63.3049594 35.0876109,62.7913266 35.2407516,62.2793812 L38.2031578,52.3758656 C38.3029313,52.0427953 38.6079469,51.8132953 38.9557828,51.8101312 L53.0073844,51.6780473 C53.5416891,51.6730219 53.9279156,52.1868656 53.774775,52.6988109 L50.8123688,62.6021156 C50.7125953,62.9351859 50.4075797,63.1646859 50.0597438,63.1680609" id="Fill-99" fill="#ADC6FF" fill-rule="evenodd"></path>
            <path d="M50.4556734,63.1680609 L36.4040719,63.299934 C35.8699781,63.3049594 35.4835406,62.7913266 35.6366813,62.2793812 L38.5990875,52.3758656 C38.6988609,52.0427953 39.0038766,51.8132953 39.3517125,51.8101312 L53.4033141,51.6780473 C53.9376188,51.6730219 54.3238453,52.1868656 54.1707047,52.6988109 L51.2082984,62.6021156 C51.108525,62.9351859 50.8035094,63.1646859 50.4556734,63.1680609" id="Fill-101" fill="#12183F" fill-rule="evenodd"></path>
            <path d="M35.5383422,62.9217914 C35.5383422,62.9217914 32.4010687,62.3843227 31.9956469,60.9444633 C31.6284047,59.6406586 32.6037797,58.9726195 32.6037797,58.9726195 C32.6037797,58.9726195 34.5412406,58.5469477 36.0718031,58.5007523 C37.0746,58.4701664 38.9724047,58.1284477 39.1259672,58.6374398 C39.3259359,59.3014711 37.3285687,59.3343773 37.1446312,59.8041352 C36.7719047,60.7558852 39.9199359,61.0349555 40.4061469,61.3543148 C41.3562094,61.978268 39.2966156,63.5953148 35.5383422,62.9217914" id="Fill-103" fill="#FFC999" fill-rule="evenodd"></path>
            <path d="M37.2395159,61.3160572 C37.2566801,61.2625785 37.301408,61.2388022 37.3394184,61.2629514 L37.393401,61.2955991 L37.4508989,61.3287987 C37.4712398,61.3403258 37.4927438,61.3522971 37.5153761,61.3646635 L37.5501662,61.3835031 C37.7201742,61.4747575 37.9114263,61.5660804 38.1195353,61.6513334 C38.8394692,61.9462582 39.5722551,62.0959369 40.2608191,62.0224972 C40.3024059,62.0180618 40.3386744,62.0618983 40.3418269,62.1204089 C40.3449795,62.1789195 40.3138224,62.2299474 40.2722356,62.2343828 C39.5631683,62.3100093 38.813231,62.1568272 38.0773136,61.8553547 C37.8954258,61.7808434 37.7261057,61.7017558 37.5720654,61.6219713 L37.4963311,61.5820389 C37.4476009,61.5558822 37.4033394,61.5311954 37.3638232,61.5083724 L37.2772613,61.4566151 C37.2392509,61.4324659 37.2223517,61.369536 37.2395159,61.3160572 Z" id="Stroke-105" fill="#DD936F" fill-rule="nonzero"></path>
            <path d="M36.7134499,62.0588856 C36.7267463,61.9945776 36.7695703,61.9599809 36.8091002,61.9816117 C37.9330053,62.5966152 38.89946,62.7782031 39.616134,62.7188397 L39.6736935,62.7135023 C39.7208122,62.7086606 39.7525623,62.7038843 39.7681462,62.7008318 C39.8095532,62.6927211 39.8471619,62.7407537 39.8521476,62.8081156 C39.8571332,62.8754776 39.8276078,62.9366603 39.7862007,62.9447711 L39.7465669,62.9511663 C39.7293693,62.9535598 39.7082186,62.9561454 39.6832141,62.9587148 C38.9425795,63.0348182 37.934994,62.8569315 36.7609498,62.2144917 C36.72142,62.1928609 36.7001535,62.1231937 36.7134499,62.0588856 Z" id="Stroke-107" fill="#DD936F" fill-rule="nonzero"></path>
            <path d="M36.0412913,62.5611912 C36.0571953,62.4924288 36.1013427,62.4596801 36.1398974,62.4880448 L36.1872586,62.5199334 C36.2282706,62.5463292 36.2776957,62.5758648 36.335536,62.6077673 C36.501683,62.6994076 36.701514,62.7912391 36.9350484,62.8770782 C37.3436167,63.0272537 37.8102767,63.1424864 38.3350782,63.2087992 C38.37668,63.2140559 38.4080156,63.2784658 38.4050682,63.3526628 C38.4021208,63.4268597 38.3660065,63.4827468 38.3244046,63.4774901 C37.7929161,63.4103324 37.3196386,63.2934656 36.9045628,63.1408981 C36.6927121,63.0630292 36.5075554,62.9801064 36.3490878,62.8964877 L36.2909135,62.8651067 C36.2548652,62.8452238 36.2218554,62.8261613 36.1918839,62.8080867 L36.1359919,62.7733046 C36.10966,62.756357 36.0917645,62.7440153 36.0823041,62.7370554 C36.0437494,62.7086906 36.0253874,62.6299536 36.0412913,62.5611912 Z" id="Stroke-109" fill="#DD936F" fill-rule="nonzero"></path>
            <path d="M34.0307719,60.4881844 L34.0307719,60.4881844 C33.9852094,61.3319344 33.2994516,61.9993406 32.4548578,62.0221219 L20.6073422,62.3419031 C18.9523266,62.3716453 17.6050688,61.0505438 17.6495766,59.4413016 C17.6938734,57.8320594 19.1120063,56.5873172 20.7630141,56.7086063 L32.6915297,58.8030047 C33.5000531,58.9449656 34.0750688,59.6684813 34.0307719,60.4881844" id="Fill-111" fill="#FFC999" fill-rule="evenodd"></path>
            <path d="M36.593325,94.9096195 L36.593325,94.9096195 C38.2941141,94.2559242 39.1735125,92.3747836 38.5847859,90.6505805 L32.0195672,71.4286898 C31.25745,69.197182 28.7941219,68.0454633 26.5932,68.8913227 C24.3922781,69.737393 23.3344266,72.2424867 24.2629734,74.4098695 L32.2619344,93.0807914 C32.9795438,94.7554242 34.8925359,95.5633148 36.593325,94.9096195" id="Fill-113" fill="#ADC6FF" fill-rule="evenodd"></path>
            <polygon id="Fill-115" fill="#ADC6FF" fill-rule="evenodd" points="36.3728109 65.3899078 24.2576156 65.3899078 24.5223422 63.7281422 36.1618734 63.6743531"></polygon>
            <path d="M23.5573756,43.7885867 L23.5990493,43.7986073 C23.6166253,43.803196 23.6377947,43.8090704 23.662284,43.8163421 C23.7426326,43.8402005 23.8318289,43.8714324 23.9276794,43.9109445 C24.2008345,44.0235466 24.4738204,44.180141 24.7288144,44.3881517 C25.4571653,44.9823023 25.8943852,45.8682446 25.8943852,47.0944547 C25.8943852,47.1500823 25.8492901,47.1951773 25.7936625,47.1951773 C25.7380349,47.1951773 25.6929398,47.1500823 25.6929398,47.0944547 C25.6929398,45.9299255 25.283773,45.1008273 24.6014794,44.5442479 C24.3627477,44.3495031 24.1067419,44.2026491 23.8509054,44.0971863 C23.7794681,44.0677379 23.712236,44.0433097 23.650343,44.0234751 L23.6049422,44.0094538 C23.5613471,43.9965089 23.5309225,43.9888778 23.5158869,43.9857133 C23.4614519,43.9742565 23.4266112,43.9208407 23.4380679,43.8664056 C23.44857,43.8165069 23.4943293,43.7830728 23.5438118,43.7866716 L23.5573756,43.7885867 Z" id="Stroke-117" fill="#1D39C4" fill-rule="nonzero"></path>
            <path d="M51.5083992,57.5874773 C51.5083992,57.5874773 53.3188758,56.8175555 53.7430711,57.0348211 C54.4003523,57.3714773 53.4205477,58.5196102 53.4205477,58.5196102 C53.4205477,58.5196102 53.8561336,59.1321727 53.2083445,59.657618 C53.199907,60.4081336 52.7158055,60.5819461 52.7158055,60.5819461 C52.7158055,60.5819461 52.9043836,61.2276258 52.2049148,61.4210555 C51.5052352,61.6144852 50.3172352,61.0185867 50.8333992,60.2334773 C50.5233211,59.5660711 51.1145789,59.252407 51.1145789,59.252407 C51.1145789,59.252407 50.9312742,58.6607273 51.5134617,58.3692117 C51.232493,58.0251727 51.320243,57.669743 51.5083992,57.5874773" id="Fill-119" fill="#FFC999" fill-rule="evenodd"></path>
            <path d="M53.1084092,58.0430931 C53.149608,58.0270394 53.1882635,58.096701 53.1947487,58.1986866 C53.2005853,58.2904736 53.1783747,58.377161 53.1438403,58.4052837 L53.131894,58.4124156 L51.525183,59.0384913 C51.4839842,59.0545449 51.4453287,58.9848833 51.4388435,58.8828977 C51.4330069,58.7911107 51.4552174,58.7044233 51.4897519,58.6763006 L51.5016982,58.6691688 L53.1084092,58.0430931 Z" id="Stroke-121" fill="#DD936F" fill-rule="nonzero"></path>
            <path d="M51.1219507,59.1776659 L52.5244741,59.6497759 C52.565989,59.6637504 52.5964091,59.7929564 52.5924193,59.9383657 C52.5888285,60.069234 52.5585895,60.1686254 52.5223133,60.1770076 L52.5100259,60.1763493 L51.1075024,59.7042393 C51.0659876,59.6902648 51.0355675,59.5610588 51.0395573,59.4156495 C51.0431481,59.2847812 51.0733871,59.1853898 51.1096633,59.1770076 L51.1219507,59.1776659 Z" id="Stroke-123" fill="#DD936F" fill-rule="nonzero"></path>
            <path d="M50.8477173,60.1614309 L52.1521548,60.7869104 C52.1931022,60.8065447 52.2198767,60.9047601 52.2119574,61.0062806 C52.20483,61.0976491 52.1720297,61.1605553 52.1356903,61.1579095 L52.1234764,61.1545488 L50.8190389,60.5290693 C50.7780916,60.509435 50.7513171,60.4112196 50.7592364,60.3096991 C50.7663638,60.2183306 50.7991641,60.1554244 50.8355035,60.1580703 L50.8477173,60.1614309 Z" id="Stroke-125" fill="#DD936F" fill-rule="nonzero"></path>
            <path d="M33.07455,64.6465641 C33.0939563,64.8334547 33.2359172,64.9718297 33.3915891,64.9555875 C33.5474719,64.9393453 33.6577922,64.7748141 33.6383859,64.5879234 C33.6189797,64.4010328 33.4770188,64.2626578 33.3211359,64.2789 C33.165675,64.2949313 33.0551438,64.4596734 33.07455,64.6465641" id="Fill-127" fill="#FFFFFF" fill-rule="evenodd"></path>
            <path d="M36.3400523,63.5565445 C36.3817585,63.5565445 36.415568,63.7804022 36.415568,64.0565445 C36.415568,64.3050727 36.3881823,64.5112502 36.3523014,64.5500004 L36.3400523,64.5565445 L24.4357945,64.5565445 C24.3940884,64.5565445 24.3602789,64.3326869 24.3602789,64.0565445 C24.3602789,63.8080164 24.3876646,63.6018389 24.4235455,63.5630887 L24.4357945,63.5565445 L36.3400523,63.5565445 Z" id="Stroke-129" fill="#597EF7" fill-rule="nonzero"></path>
            <path d="M35.9509359,65.1600914 C35.9926421,65.1600914 36.0264516,65.383949 36.0264516,65.6600914 C36.0264516,65.9086195 35.9990659,66.114797 35.963185,66.1535473 L35.9509359,66.1600914 L24.4685531,66.1600914 C24.426847,66.1600914 24.3930375,65.9362338 24.3930375,65.6600914 C24.3930375,65.4115633 24.4204232,65.2053858 24.4563041,65.1666356 L24.4685531,65.1600914 L35.9509359,65.1600914 Z" id="Stroke-131" fill="#597EF7" fill-rule="nonzero"></path>
            <path d="M32.4416829,63.6753006 C32.4791717,63.6735239 32.5116383,63.6993221 32.5192734,63.7348664 L32.5208716,63.7470509 L32.5992656,65.3179219 L32.61237,65.3511686 L32.6331176,65.4068884 L32.6599392,65.4824766 C32.6829491,65.5489448 32.7075641,65.6241172 32.7334723,65.7080621 C32.836793,66.0428304 32.9399917,66.448633 33.0362273,66.9269697 C33.4535529,69.0012768 33.6095313,71.6947983 33.3520477,75.0409242 C33.3488479,75.0825074 33.3125441,75.1136233 33.2709609,75.1104235 C33.2293777,75.1072237 33.1982618,75.0709199 33.2014616,75.0293367 L33.224644,74.7139348 C33.4477779,71.5273937 33.2895587,68.951887 32.8881629,66.9567585 C32.7929294,66.4834028 32.6909827,66.0825235 32.589158,65.7526023 L32.5593594,65.6581304 C32.5447976,65.6129927 32.5307571,65.5709992 32.517305,65.5321348 L32.484013,65.4389677 L32.4549542,65.3638422 L32.44913,65.3383038 L32.3700284,63.754585 C32.3679479,63.7129308 32.4000287,63.6774769 32.4416829,63.6753006 Z" id="Stroke-133" fill="#597EF7" fill-rule="nonzero"></path>
            <path d="M33.9112623,65.0832803 C33.9516452,65.072858 33.9928309,65.0971458 34.0032532,65.1375287 L34.0336533,65.2597199 L34.0852587,65.4768248 C34.0944008,65.516189 34.1037966,65.5571047 34.1134207,65.5995141 C34.1958791,65.9628751 34.278326,66.3612709 34.3552787,66.7822399 C34.5000772,67.5743585 34.6082163,68.3519019 34.6645958,69.0807966 C34.764149,70.3678561 34.6954801,71.4043703 34.4159364,72.1048925 L34.3956098,72.1543572 L34.3864806,72.1702342 C34.0688557,72.5938281 33.771775,72.8680798 33.502429,73.0219869 C33.3351324,73.117582 33.2108471,73.1507203 33.1382742,73.1507203 C33.0965681,73.1507203 33.0627586,73.1169108 33.0627586,73.0752047 C33.0627586,73.0334986 33.0965681,72.9996891 33.1382742,72.9996891 C33.1466068,72.9996891 33.1688396,72.9968208 33.2042092,72.9873902 C33.2674596,72.9705257 33.3421571,72.939619 33.4274983,72.8908541 C33.6669648,72.7540204 33.9353353,72.5099349 34.2258882,72.1319974 L34.2597656,72.0870469 L34.2760397,72.0479675 C34.5381705,71.3903025 34.608571,70.4060374 34.5207241,69.182404 L34.5140143,69.092444 C34.4580783,68.3692825 34.350635,67.5967423 34.2067093,66.8093983 C34.138666,66.4371681 34.0663006,66.0826611 33.993463,65.7546733 L33.9661343,65.6329382 C33.9422253,65.527581 33.9197447,65.4315456 33.8990892,65.3457368 L33.8570139,65.1752713 C33.8465916,65.1348884 33.8708794,65.0937027 33.9112623,65.0832803 Z" id="Stroke-135" fill="#597EF7" fill-rule="nonzero"></path>
        </g>
    </g>
</svg>